<svg width="272" height="308" viewBox="0 0 272 308" fill="none" xmlns="http://www.w3.org/2000/svg">
<mask id="mask0_0_66" style="mask-type:alpha" maskUnits="userSpaceOnUse" x="0" y="0" width="272" height="308">
<path d="M250 308H22C9.84974 308 0 298.15 0 286V22C0 9.84974 9.84974 0 22 0H170L272 102V286C272 298.15 262.15 308 250 308Z" fill="url(#paint0_linear_0_66)"/>
</mask>
<g mask="url(#mask0_0_66)">
<path d="M250 308H22C9.84974 308 0 298.15 0 286V22C0 9.84974 9.84974 0 22 0H170L272 102V286C272 298.15 262.15 308 250 308Z" fill="url(#paint1_linear_0_66)"/>
<g opacity="0.26" filter="url(#filter0_f_0_66)">
<rect x="48" y="149" width="178" height="84" fill="#E66000" style="mix-blend-mode:darken"/>
</g>
<path d="M23.2389 217C22.2383 217 21.3956 216.658 20.7109 215.973C20.0263 215.288 19.6839 214.446 19.6839 213.445V165.492C19.6839 164.491 20.0263 163.649 20.7109 162.964C21.3956 162.227 22.2383 161.858 23.2389 161.858H39.1179C45.1219 161.858 50.2043 163.201 54.3649 165.887C58.5783 168.52 61.7383 171.944 63.8449 176.157C65.9516 180.37 67.0049 184.794 67.0049 189.429C67.0049 194.064 65.9516 198.488 63.8449 202.701C61.7383 206.914 58.5783 210.364 54.3649 213.05C50.2043 215.683 45.1219 217 39.1179 217H23.2389ZM38.2489 210.285C42.5676 210.285 46.3596 209.416 49.6249 207.678C52.8903 205.887 55.4183 203.438 57.2089 200.331C58.9996 197.171 59.8949 193.537 59.8949 189.429C59.8949 185.321 58.9996 181.713 57.2089 178.606C55.4183 175.446 52.8903 172.997 49.6249 171.259C46.3596 169.468 42.5676 168.573 38.2489 168.573H26.8729V210.285H38.2489ZM108.952 217.79C103.422 217.79 98.5767 216.579 94.4161 214.156C90.2554 211.733 87.0427 208.389 84.7781 204.123C82.5134 199.857 81.3284 194.959 81.2231 189.429C81.3284 183.899 82.5134 179.001 84.7781 174.735C87.0427 170.469 90.2554 167.125 94.4161 164.702C98.5767 162.279 103.422 161.068 108.952 161.068C114.482 161.068 119.301 162.279 123.409 164.702C127.57 167.125 130.782 170.495 133.047 174.814C135.364 179.08 136.576 183.952 136.681 189.429C136.576 194.906 135.364 199.804 133.047 204.123C130.782 208.389 127.57 211.733 123.409 214.156C119.301 216.579 114.482 217.79 108.952 217.79ZM108.952 211.075C113.165 211.075 116.826 210.127 119.933 208.231C123.04 206.335 125.41 203.754 127.043 200.489C128.676 197.224 129.492 193.537 129.492 189.429C129.492 185.321 128.676 181.634 127.043 178.369C125.41 175.104 123.04 172.523 119.933 170.627C116.826 168.731 113.165 167.783 108.952 167.783C104.686 167.783 100.999 168.731 97.8921 170.627C94.8374 172.523 92.4937 175.104 90.8611 178.369C89.2284 181.634 88.4121 185.321 88.4121 189.429C88.4121 193.537 89.2284 197.224 90.8611 200.489C92.4937 203.754 94.8374 206.335 97.8921 208.231C100.999 210.127 104.686 211.075 108.952 211.075ZM178.513 217.79C173.247 217.79 168.507 216.658 164.293 214.393C160.133 212.076 156.841 208.784 154.418 204.518C152.048 200.199 150.863 195.17 150.863 189.429C150.863 183.688 152.048 178.685 154.418 174.419C156.841 170.1 160.133 166.809 164.293 164.544C168.507 162.227 173.247 161.068 178.513 161.068C182.095 161.068 185.281 161.489 188.072 162.332C190.916 163.175 193.734 164.386 196.525 165.966C197.684 166.598 198.263 167.599 198.263 168.968C198.263 169.758 197.974 170.469 197.394 171.101C196.815 171.68 196.051 171.97 195.103 171.97C194.577 171.97 194.103 171.865 193.681 171.654C191.364 170.443 189.099 169.521 186.887 168.889C184.675 168.257 182.121 167.941 179.224 167.941C174.695 167.941 170.824 168.889 167.611 170.785C164.451 172.628 162.055 175.183 160.422 178.448C158.842 181.661 158.052 185.321 158.052 189.429C158.052 193.537 158.842 197.224 160.422 200.489C162.055 203.702 164.451 206.256 167.611 208.152C170.824 209.995 174.695 210.917 179.224 210.917C182.121 210.917 184.675 210.601 186.887 209.969C189.099 209.337 191.364 208.415 193.681 207.204C194.103 206.993 194.577 206.888 195.103 206.888C196.051 206.888 196.815 207.178 197.394 207.757C197.974 208.336 198.263 209.047 198.263 209.89C198.263 211.259 197.684 212.26 196.525 212.892C193.734 214.472 190.916 215.683 188.072 216.526C185.281 217.369 182.095 217.79 178.513 217.79ZM213.772 217.395C212.877 217.395 212.087 217.079 211.402 216.447C210.77 215.762 210.454 214.972 210.454 214.077C210.454 213.234 210.691 212.497 211.165 211.865L229.414 189.429L211.323 167.151C210.849 166.519 210.612 165.782 210.612 164.939C210.612 163.938 210.928 163.122 211.56 162.49C212.245 161.805 213.087 161.463 214.088 161.463C214.667 161.463 215.22 161.595 215.747 161.858C216.274 162.121 216.695 162.464 217.011 162.885L233.68 184.057L250.349 162.727C250.928 161.884 251.797 161.463 252.956 161.463C253.904 161.463 254.72 161.805 255.405 162.49C256.09 163.122 256.432 163.912 256.432 164.86C256.432 165.597 256.221 166.256 255.8 166.835L237.551 189.35L255.8 211.786C256.274 212.313 256.511 212.997 256.511 213.84C256.511 214.841 256.169 215.683 255.484 216.368C254.852 217.053 254.009 217.395 252.956 217.395C251.797 217.395 250.849 216.895 250.112 215.894L233.206 194.643L216.537 215.973C215.747 216.921 214.825 217.395 213.772 217.395Z" fill="white"/>
<path d="M20.7109 215.973L22.1251 214.559L22.1251 214.559L20.7109 215.973ZM20.7109 162.964L22.1251 164.378L22.1513 164.352L22.1765 164.325L20.7109 162.964ZM54.3649 165.887L53.2802 167.567L53.2925 167.575L53.3049 167.583L54.3649 165.887ZM63.8449 176.157L62.0561 177.051L62.0561 177.051L63.8449 176.157ZM63.8449 202.701L62.0561 201.807L62.0561 201.807L63.8449 202.701ZM54.3649 213.05L55.4345 214.74L55.44 214.736L54.3649 213.05ZM49.6249 207.678L50.5646 209.443L50.5756 209.438L50.5866 209.432L49.6249 207.678ZM57.2089 200.331L58.9418 201.33L58.9454 201.323L58.949 201.317L57.2089 200.331ZM57.2089 178.606L55.4689 179.592L55.4724 179.598L55.4761 179.605L57.2089 178.606ZM49.6249 171.259L48.6633 173.013L48.6742 173.019L48.6852 173.024L49.6249 171.259ZM26.8729 168.573V166.573H24.8729V168.573H26.8729ZM26.8729 210.285H24.8729V212.285H26.8729V210.285ZM23.2389 215C22.7488 215 22.4209 214.855 22.1251 214.559L19.2967 217.387C20.3702 218.461 21.7277 219 23.2389 219V215ZM22.1251 214.559C21.8293 214.263 21.6839 213.935 21.6839 213.445H17.6839C17.6839 214.956 18.2232 216.314 19.2967 217.387L22.1251 214.559ZM21.6839 213.445V165.492H17.6839V213.445H21.6839ZM21.6839 165.492C21.6839 165.002 21.8293 164.674 22.1251 164.378L19.2967 161.55C18.2232 162.623 17.6839 163.981 17.6839 165.492H21.6839ZM22.1765 164.325C22.4851 163.993 22.7979 163.858 23.2389 163.858V159.858C21.6786 159.858 20.306 160.461 19.2453 161.603L22.1765 164.325ZM23.2389 163.858H39.1179V159.858H23.2389V163.858ZM39.1179 163.858C44.8195 163.858 49.5057 165.131 53.2802 167.567L55.4497 164.207C50.9028 161.271 45.4243 159.858 39.1179 159.858V163.858ZM53.3049 167.583C57.224 170.032 60.1231 173.186 62.0561 177.051L65.6338 175.263C63.3534 170.702 59.9325 167.008 55.4249 164.191L53.3049 167.583ZM62.0561 177.051C64.0262 180.992 65.0049 185.11 65.0049 189.429H69.0049C69.0049 184.479 67.8769 179.749 65.6338 175.263L62.0561 177.051ZM65.0049 189.429C65.0049 193.748 64.0262 197.866 62.0561 201.807L65.6338 203.595C67.8769 199.109 69.0049 194.379 69.0049 189.429H65.0049ZM62.0561 201.807C60.1212 205.676 57.2172 208.86 53.2898 211.364L55.44 214.736C59.9393 211.868 63.3553 208.152 65.6338 203.595L62.0561 201.807ZM53.2953 211.36C49.5185 213.75 44.8267 215 39.1179 215V219C45.4172 219 50.89 217.616 55.4345 214.74L53.2953 211.36ZM39.1179 215H23.2389V219H39.1179V215ZM38.2489 212.285C42.8403 212.285 46.965 211.359 50.5646 209.443L48.6852 205.913C45.7542 207.473 42.2949 208.285 38.2489 208.285V212.285ZM50.5866 209.432C54.1604 207.472 56.9609 204.767 58.9418 201.33L55.4761 199.332C53.8756 202.11 51.6201 204.303 48.6633 205.924L50.5866 209.432ZM58.949 201.317C60.9314 197.819 61.8949 193.837 61.8949 189.429H57.8949C57.8949 193.237 57.0678 196.523 55.4689 199.345L58.949 201.317ZM61.8949 189.429C61.8949 185.022 60.9316 181.06 58.9418 177.607L55.4761 179.605C57.0676 182.366 57.8949 185.62 57.8949 189.429H61.8949ZM58.949 177.62C56.9674 174.123 54.1588 171.407 50.5646 169.494L48.6852 173.024C51.6217 174.587 53.8692 176.769 55.4689 179.592L58.949 177.62ZM50.5866 169.505C46.9825 167.529 42.8497 166.573 38.2489 166.573V170.573C42.2855 170.573 45.7367 171.408 48.6633 173.013L50.5866 169.505ZM38.2489 166.573H26.8729V170.573H38.2489V166.573ZM24.8729 168.573V210.285H28.8729V168.573H24.8729ZM26.8729 212.285H38.2489V208.285H26.8729V212.285ZM94.4161 214.156L95.4224 212.428L95.4224 212.428L94.4161 214.156ZM84.7781 204.123L83.0116 205.061L83.0116 205.061L84.7781 204.123ZM81.2231 189.429L79.2234 189.391L79.2227 189.429L79.2234 189.467L81.2231 189.429ZM84.7781 174.735L86.5446 175.673L86.5446 175.673L84.7781 174.735ZM94.4161 164.702L93.4097 162.974L93.4097 162.974L94.4161 164.702ZM123.409 164.702L122.393 166.425L122.403 166.43L123.409 164.702ZM133.047 174.814L131.276 175.743L131.283 175.756L131.29 175.769L133.047 174.814ZM136.681 189.429L138.681 189.467L138.681 189.429L138.681 189.391L136.681 189.429ZM133.047 204.123L131.285 203.177L131.281 203.185L133.047 204.123ZM123.409 214.156L122.403 212.428L122.393 212.433L123.409 214.156ZM119.933 208.231L118.891 206.524L118.891 206.524L119.933 208.231ZM127.043 200.489L128.832 201.383L128.832 201.383L127.043 200.489ZM127.043 178.369L128.832 177.475L128.832 177.475L127.043 178.369ZM119.933 170.627L118.891 172.334L118.891 172.334L119.933 170.627ZM97.8921 170.627L96.8503 168.92L96.8438 168.924L96.8373 168.928L97.8921 170.627ZM90.8611 178.369L89.0722 177.475L89.0722 177.475L90.8611 178.369ZM90.8611 200.489L89.0722 201.383L89.0722 201.383L90.8611 200.489ZM97.8921 208.231L96.8373 209.93L96.8438 209.934L96.8503 209.938L97.8921 208.231ZM108.952 215.79C103.722 215.79 99.2346 214.647 95.4224 212.428L93.4097 215.884C97.9189 218.51 103.122 219.79 108.952 219.79V215.79ZM95.4224 212.428C91.585 210.193 88.6351 207.123 86.5446 203.185L83.0116 205.061C85.4504 209.655 88.9258 213.274 93.4097 215.884L95.4224 212.428ZM86.5446 203.185C84.4473 199.234 83.3229 194.653 83.2227 189.391L79.2234 189.467C79.3339 195.265 80.5795 200.48 83.0116 205.061L86.5446 203.185ZM83.2227 189.467C83.3229 184.205 84.4473 179.624 86.5446 175.673L83.0116 173.797C80.5795 178.378 79.3339 183.593 79.2234 189.391L83.2227 189.467ZM86.5446 175.673C88.6351 171.735 91.585 168.665 95.4224 166.43L93.4097 162.974C88.9258 165.584 85.4504 169.203 83.0116 173.797L86.5446 175.673ZM95.4224 166.43C99.2346 164.211 103.722 163.068 108.952 163.068V159.068C103.122 159.068 97.9189 160.348 93.4097 162.974L95.4224 166.43ZM108.952 163.068C114.182 163.068 118.639 164.211 122.393 166.425L124.425 162.979C119.963 160.348 114.782 159.068 108.952 159.068V163.068ZM122.403 166.43C126.234 168.661 129.183 171.753 131.276 175.743L134.818 173.885C132.381 169.238 128.906 165.588 124.415 162.974L122.403 166.43ZM131.29 175.769C133.435 179.719 134.581 184.269 134.681 189.467L138.681 189.391C138.57 183.634 137.294 178.441 134.805 173.859L131.29 175.769ZM134.681 189.391C134.581 194.589 133.435 199.17 131.285 203.177L134.809 205.069C137.294 200.439 138.57 195.224 138.681 189.467L134.681 189.391ZM131.281 203.185C129.19 207.123 126.24 210.193 122.403 212.428L124.415 215.884C128.899 213.274 132.375 209.655 134.814 205.061L131.281 203.185ZM122.393 212.433C118.639 214.647 114.182 215.79 108.952 215.79V219.79C114.782 219.79 119.963 218.51 124.425 215.879L122.393 212.433ZM108.952 213.075C113.474 213.075 117.507 212.054 120.975 209.938L118.891 206.524C116.144 208.2 112.857 209.075 108.952 209.075V213.075ZM120.975 209.938C124.404 207.846 127.032 204.983 128.832 201.383L125.254 199.595C123.789 202.525 121.677 204.824 118.891 206.524L120.975 209.938ZM128.832 201.383C130.62 197.807 131.492 193.808 131.492 189.429H127.492C127.492 193.266 126.731 196.64 125.254 199.595L128.832 201.383ZM131.492 189.429C131.492 185.05 130.62 181.051 128.832 177.475L125.254 179.263C126.731 182.218 127.492 185.592 127.492 189.429H131.492ZM128.832 177.475C127.032 173.875 124.404 171.012 120.975 168.92L118.891 172.334C121.677 174.034 123.789 176.333 125.254 179.263L128.832 177.475ZM120.975 168.92C117.507 166.804 113.474 165.783 108.952 165.783V169.783C112.857 169.783 116.144 170.658 118.891 172.334L120.975 168.92ZM108.952 165.783C104.383 165.783 100.322 166.801 96.8503 168.92L98.9338 172.334C101.677 170.661 104.99 169.783 108.952 169.783V165.783ZM96.8373 168.928C93.4631 171.022 90.8677 173.884 89.0722 177.475L92.6499 179.263C94.1198 176.324 96.2117 174.024 98.9468 172.326L96.8373 168.928ZM89.0722 177.475C87.2841 181.051 86.4121 185.05 86.4121 189.429H90.4121C90.4121 185.592 91.1727 182.218 92.6499 179.263L89.0722 177.475ZM86.4121 189.429C86.4121 193.808 87.2841 197.807 89.0722 201.383L92.6499 199.595C91.1727 196.64 90.4121 193.266 90.4121 189.429H86.4121ZM89.0722 201.383C90.8677 204.974 93.4631 207.836 96.8373 209.93L98.9468 206.532C96.2117 204.834 94.1198 202.534 92.6499 199.595L89.0722 201.383ZM96.8503 209.938C100.322 212.057 104.383 213.075 108.952 213.075V209.075C104.99 209.075 101.677 208.197 98.9338 206.524L96.8503 209.938ZM164.293 214.393L163.32 216.14L163.333 216.148L163.347 216.155L164.293 214.393ZM154.418 204.518L152.665 205.48L152.672 205.493L152.679 205.506L154.418 204.518ZM154.418 174.419L152.674 173.44L152.67 173.448L154.418 174.419ZM164.293 164.544L165.25 166.301L165.257 166.296L164.293 164.544ZM188.072 162.332L187.494 164.247L187.504 164.25L188.072 162.332ZM196.525 165.966L195.54 167.707L195.554 167.714L195.568 167.722L196.525 165.966ZM197.394 171.101L198.809 172.515L198.839 172.484L198.869 172.452L197.394 171.101ZM193.681 171.654L192.755 173.426L192.771 173.435L192.787 173.443L193.681 171.654ZM186.887 168.889L187.437 166.966L187.437 166.966L186.887 168.889ZM167.611 170.785L168.619 172.513L168.628 172.507L167.611 170.785ZM160.422 178.448L158.634 177.554L158.628 177.565L160.422 178.448ZM160.422 200.489L158.622 201.36L158.631 201.378L158.639 201.395L160.422 200.489ZM167.611 208.152L166.582 209.867L166.599 209.877L166.616 209.887L167.611 208.152ZM186.887 209.969L187.437 211.892L187.437 211.892L186.887 209.969ZM193.681 207.204L192.787 205.415L192.771 205.423L192.755 205.432L193.681 207.204ZM197.394 207.757L198.809 206.343L198.809 206.343L197.394 207.757ZM196.525 212.892L195.568 211.136L195.554 211.144L195.54 211.151L196.525 212.892ZM188.072 216.526L187.504 214.608L187.494 214.611L188.072 216.526ZM178.513 215.79C173.543 215.79 169.134 214.724 165.24 212.631L163.347 216.155C167.88 218.591 172.95 219.79 178.513 219.79V215.79ZM165.267 212.646C161.436 210.512 158.405 207.488 156.158 203.53L152.679 205.506C155.277 210.08 158.83 213.639 163.32 216.14L165.267 212.646ZM156.172 203.556C153.989 199.577 152.863 194.889 152.863 189.429H148.863C148.863 195.45 150.108 200.821 152.665 205.48L156.172 203.556ZM152.863 189.429C152.863 183.968 153.989 179.311 156.167 175.39L152.67 173.448C150.108 178.059 148.863 183.409 148.863 189.429H152.863ZM156.163 175.397C158.41 171.392 161.435 168.377 165.25 166.301L163.337 162.787C158.83 165.24 155.272 168.809 152.674 173.44L156.163 175.397ZM165.257 166.296C169.148 164.157 173.551 163.068 178.513 163.068V159.068C172.943 159.068 167.866 160.297 163.33 162.792L165.257 166.296ZM178.513 163.068C181.942 163.068 184.928 163.472 187.494 164.247L188.65 160.417C185.635 159.507 182.248 159.068 178.513 159.068V163.068ZM187.504 164.25C190.192 165.046 192.87 166.195 195.54 167.707L197.511 164.225C194.598 162.577 191.641 161.303 188.641 160.414L187.504 164.25ZM195.568 167.722C195.872 167.888 196.017 168.053 196.098 168.193C196.181 168.337 196.263 168.57 196.263 168.968H200.263C200.263 167.997 200.056 167.045 199.56 166.188C199.062 165.328 198.338 164.676 197.483 164.21L195.568 167.722ZM196.263 168.968C196.263 169.213 196.193 169.452 195.92 169.75L198.869 172.452C199.755 171.486 200.263 170.303 200.263 168.968H196.263ZM195.98 169.687C195.835 169.832 195.611 169.97 195.103 169.97V173.97C196.492 173.97 197.795 173.529 198.809 172.515L195.98 169.687ZM195.103 169.97C194.85 169.97 194.688 169.921 194.576 169.865L192.787 173.443C193.517 173.808 194.303 173.97 195.103 173.97V169.97ZM194.608 169.882C192.186 168.616 189.796 167.64 187.437 166.966L186.338 170.812C188.403 171.402 190.542 172.27 192.755 173.426L194.608 169.882ZM187.437 166.966C185.007 166.272 182.261 165.941 179.224 165.941V169.941C181.981 169.941 184.344 170.242 186.338 170.812L187.437 166.966ZM179.224 165.941C174.414 165.941 170.175 166.95 166.595 169.063L168.628 172.507C171.473 170.828 174.976 169.941 179.224 169.941V165.941ZM166.604 169.057C163.109 171.096 160.44 173.94 158.634 177.554L162.211 179.342C163.67 176.426 165.794 174.16 168.619 172.513L166.604 169.057ZM158.628 177.565C156.894 181.091 156.052 185.06 156.052 189.429H160.052C160.052 185.582 160.791 182.231 162.217 179.331L158.628 177.565ZM156.052 189.429C156.052 193.799 156.894 197.789 158.622 201.36L162.223 199.618C160.791 196.658 160.052 193.275 160.052 189.429H156.052ZM158.639 201.395C160.446 204.951 163.108 207.782 166.582 209.867L168.64 206.437C165.795 204.73 163.664 202.453 162.205 199.583L158.639 201.395ZM166.616 209.887C170.192 211.939 174.423 212.917 179.224 212.917V208.917C174.967 208.917 171.456 208.052 168.607 206.417L166.616 209.887ZM179.224 212.917C182.261 212.917 185.007 212.586 187.437 211.892L186.338 208.046C184.344 208.616 181.981 208.917 179.224 208.917V212.917ZM187.437 211.892C189.796 211.218 192.186 210.242 194.608 208.976L192.755 205.432C190.542 206.588 188.403 207.456 186.338 208.046L187.437 211.892ZM194.576 208.993C194.688 208.937 194.85 208.888 195.103 208.888V204.888C194.303 204.888 193.517 205.05 192.787 205.415L194.576 208.993ZM195.103 208.888C195.611 208.888 195.835 209.026 195.98 209.171L198.809 206.343C197.795 205.329 196.492 204.888 195.103 204.888V208.888ZM195.98 209.171C196.173 209.364 196.263 209.561 196.263 209.89H200.263C200.263 208.534 199.775 207.309 198.809 206.343L195.98 209.171ZM196.263 209.89C196.263 210.288 196.181 210.521 196.098 210.665C196.017 210.805 195.872 210.97 195.568 211.136L197.483 214.648C198.338 214.182 199.062 213.53 199.56 212.67C200.056 211.813 200.263 210.861 200.263 209.89H196.263ZM195.54 211.151C192.87 212.663 190.192 213.812 187.504 214.608L188.641 218.444C191.641 217.555 194.598 216.281 197.511 214.633L195.54 211.151ZM187.494 214.611C184.928 215.386 181.942 215.79 178.513 215.79V219.79C182.248 219.79 185.635 219.351 188.65 218.441L187.494 214.611ZM211.402 216.447L209.932 217.804L209.987 217.862L210.046 217.917L211.402 216.447ZM211.165 211.865L209.614 210.603L209.589 210.634L209.565 210.665L211.165 211.865ZM229.414 189.429L230.966 190.691L231.991 189.43L230.967 188.168L229.414 189.429ZM211.323 167.151L209.723 168.351L209.746 168.382L209.771 168.412L211.323 167.151ZM211.56 162.49L210.146 161.076L210.146 161.076L211.56 162.49ZM215.747 161.858L216.642 160.069L216.642 160.069L215.747 161.858ZM217.011 162.885L215.411 164.085L215.425 164.104L215.44 164.122L217.011 162.885ZM233.68 184.057L232.109 185.294L233.686 187.298L235.256 185.289L233.68 184.057ZM250.349 162.727L251.925 163.959L251.963 163.91L251.997 163.86L250.349 162.727ZM255.405 162.49L253.991 163.904L254.019 163.932L254.049 163.96L255.405 162.49ZM255.8 166.835L257.354 168.094L257.387 168.054L257.418 168.011L255.8 166.835ZM237.551 189.35L235.997 188.091L234.975 189.352L236 190.612L237.551 189.35ZM255.8 211.786L254.249 213.048L254.28 213.087L254.314 213.124L255.8 211.786ZM255.484 216.368L254.07 214.954L254.042 214.982L254.014 215.011L255.484 216.368ZM250.112 215.894L251.722 214.708L251.7 214.678L251.677 214.649L250.112 215.894ZM233.206 194.643L234.771 193.398L233.192 191.413L231.63 193.411L233.206 194.643ZM216.537 215.973L218.074 217.253L218.094 217.229L218.113 217.205L216.537 215.973ZM213.772 215.395C213.402 215.395 213.09 215.284 212.759 214.977L210.046 217.917C211.083 218.874 212.352 219.395 213.772 219.395V215.395ZM212.872 215.09C212.565 214.759 212.454 214.447 212.454 214.077H208.454C208.454 215.497 208.975 216.766 209.932 217.804L212.872 215.09ZM212.454 214.077C212.454 213.636 212.569 213.327 212.765 213.065L209.565 210.665C208.814 211.667 208.454 212.832 208.454 214.077H212.454ZM212.717 213.127L230.966 190.691L227.863 188.167L209.614 210.603L212.717 213.127ZM230.967 188.168L212.876 165.89L209.771 168.412L227.862 190.69L230.967 188.168ZM212.923 165.951C212.727 165.689 212.612 165.38 212.612 164.939H208.612C208.612 166.184 208.972 167.349 209.723 168.351L212.923 165.951ZM212.612 164.939C212.612 164.399 212.764 164.115 212.974 163.904L210.146 161.076C209.092 162.129 208.612 163.477 208.612 164.939H212.612ZM212.974 163.904C213.27 163.608 213.598 163.463 214.088 163.463V159.463C212.577 159.463 211.219 160.002 210.146 161.076L212.974 163.904ZM214.088 163.463C214.352 163.463 214.599 163.52 214.853 163.647L216.642 160.069C215.842 159.669 214.983 159.463 214.088 159.463V163.463ZM214.853 163.647C215.135 163.788 215.302 163.94 215.411 164.085L218.611 161.685C218.088 160.987 217.413 160.455 216.642 160.069L214.853 163.647ZM215.44 164.122L232.109 185.294L235.252 182.82L218.583 161.648L215.44 164.122ZM235.256 185.289L251.925 163.959L248.773 161.495L232.104 182.825L235.256 185.289ZM251.997 163.86C252.149 163.639 252.354 163.463 252.956 163.463V159.463C251.241 159.463 249.708 160.13 248.701 161.594L251.997 163.86ZM252.956 163.463C253.361 163.463 253.672 163.586 253.991 163.904L256.819 161.076C255.769 160.025 254.447 159.463 252.956 159.463V163.463ZM254.049 163.96C254.315 164.206 254.432 164.459 254.432 164.86H258.432C258.432 163.365 257.865 162.038 256.762 161.02L254.049 163.96ZM254.432 164.86C254.432 165.188 254.348 165.432 254.183 165.659L257.418 168.011C258.095 167.08 258.432 166.007 258.432 164.86H254.432ZM254.246 165.576L235.997 188.091L239.105 190.609L257.354 168.094L254.246 165.576ZM236 190.612L254.249 213.048L257.352 210.524L239.103 188.088L236 190.612ZM254.314 213.124C254.396 213.216 254.511 213.393 254.511 213.84H258.511C258.511 212.602 258.152 211.409 257.287 210.448L254.314 213.124ZM254.511 213.84C254.511 214.33 254.366 214.658 254.07 214.954L256.898 217.782C257.972 216.709 258.511 215.351 258.511 213.84H254.511ZM254.014 215.011C253.812 215.23 253.532 215.395 252.956 215.395V219.395C254.487 219.395 255.892 218.875 256.954 217.725L254.014 215.011ZM252.956 215.395C252.485 215.395 252.115 215.24 251.722 214.708L248.502 217.08C249.584 218.549 251.11 219.395 252.956 219.395V215.395ZM251.677 214.649L234.771 193.398L231.641 195.888L248.547 217.139L251.677 214.649ZM231.63 193.411L214.961 214.741L218.113 217.205L234.782 195.875L231.63 193.411ZM215.001 214.693C214.518 215.272 214.127 215.395 213.772 215.395V219.395C215.524 219.395 216.976 218.57 218.074 217.253L215.001 214.693Z" fill="white"/>
<g filter="url(#filter1_d_0_66)">
<path d="M272 102H192C179.85 102 170 92.1503 170 80V0L272 102Z" fill="url(#paint2_linear_0_66)"/>
</g>
</g>
<defs>
<filter id="filter0_f_0_66" x="9" y="110" width="256" height="162" filterUnits="userSpaceOnUse" color-interpolation-filters="sRGB">
<feFlood flood-opacity="0" result="BackgroundImageFix"/>
<feBlend mode="normal" in="SourceGraphic" in2="BackgroundImageFix" result="shape"/>
<feGaussianBlur stdDeviation="19.5" result="effect1_foregroundBlur_0_66"/>
</filter>
<filter id="filter1_d_0_66" x="147" y="-24" width="152" height="152" filterUnits="userSpaceOnUse" color-interpolation-filters="sRGB">
<feFlood flood-opacity="0" result="BackgroundImageFix"/>
<feColorMatrix in="SourceAlpha" type="matrix" values="0 0 0 0 0 0 0 0 0 0 0 0 0 0 0 0 0 0 127 0" result="hardAlpha"/>
<feOffset dx="2" dy="1"/>
<feGaussianBlur stdDeviation="12.5"/>
<feColorMatrix type="matrix" values="0 0 0 0 0 0 0 0 0 0 0 0 0 0 0 0 0 0 0.33 0"/>
<feBlend mode="normal" in2="BackgroundImageFix" result="effect1_dropShadow_0_66"/>
<feBlend mode="normal" in="SourceGraphic" in2="effect1_dropShadow_0_66" result="shape"/>
</filter>
<linearGradient id="paint0_linear_0_66" x1="136" y1="0" x2="136" y2="308" gradientUnits="userSpaceOnUse">
<stop stop-color="#FF7979"/>
<stop offset="1" stop-color="#E85555"/>
</linearGradient>
<linearGradient id="paint1_linear_0_66" x1="136" y1="0" x2="136" y2="308" gradientUnits="userSpaceOnUse">
<stop stop-color="#FFA216"/>
<stop offset="1" stop-color="#EF8100"/>
</linearGradient>
<linearGradient id="paint2_linear_0_66" x1="221" y1="0" x2="221" y2="102" gradientUnits="userSpaceOnUse">
<stop stop-color="#FF7A1B"/>
<stop offset="1" stop-color="#E86100"/>
</linearGradient>
</defs>
</svg>
