<svg xmlns="http://www.w3.org/2000/svg" version="1.1" xmlns:xlink="http://www.w3.org/1999/xlink" xmlns:svgjs="http://svgjs.com/svgjs" width="1440" height="560" preserveAspectRatio="none" viewBox="0 0 1440 560"><g mask="url(&quot;#SvgjsMask1167&quot;)" fill="none"><rect width="1440" height="560" x="0" y="0" fill="rgba(19, 19, 19, 1)"></rect><path d="M12.17,347.367C36.514,347.218,59.82,336.672,72.653,315.985C86.215,294.124,88.503,266.689,76.254,244.066C63.423,220.369,39.118,204.382,12.17,204.281C-14.944,204.179,-39.699,219.817,-52.755,243.581C-65.351,266.508,-63.483,294.557,-49.61,316.734C-36.544,337.62,-12.466,347.518,12.17,347.367" fill="rgba(46, 46, 46, 0.4)" class="triangle-float3"></path><path d="M132.393,570.824C187.038,573.496,242.155,550.43,269.796,503.216C297.689,455.571,289.902,396.699,262.335,348.865C234.727,300.959,187.66,263.132,132.393,264.796C79.334,266.394,39.561,309.071,15.333,356.302C-6.605,399.068,-6.58,448.639,16.443,490.83C40.55,535.008,82.126,568.367,132.393,570.824" fill="rgba(46, 46, 46, 0.4)" class="triangle-float2"></path><path d="M1433.9663525942724 537.4621115358278L1460.6921945894637 437.71991133471585 1360.9499943883516 410.9940693395246 1334.2241523931605 510.73626954063656z" fill="rgba(46, 46, 46, 0.4)" class="triangle-float3"></path><path d="M435.848,386.099C460.514,385.512,479.717,366.807,491.405,345.078C502.41,324.62,503.477,300.747,492.881,280.074C481.203,257.292,461.436,237.498,435.848,236.69C409.09,235.845,384.988,252.736,372.217,276.264C360.006,298.76,362.687,325.685,375.518,347.833C388.313,369.918,410.331,386.706,435.848,386.099" fill="rgba(46, 46, 46, 0.4)" class="triangle-float3"></path><path d="M762.807346485398-68.98781895044472L670.1769215706679 49.57371830565343 788.7384588267661 142.20414322038357 881.3688837414962 23.642605964285437z" fill="rgba(46, 46, 46, 0.4)" class="triangle-float3"></path><path d="M944.2222952613874 333.90708741794583L949.6363766253199 437.2139139616231 1052.9432031689971 431.7998325976906 1047.5291218050647 328.49300605401334z" fill="rgba(46, 46, 46, 0.4)" class="triangle-float2"></path><path d="M1109.648,615.943C1161.836,615.618,1203.136,575.818,1227.54,529.686C1250.248,486.76,1251.493,435.801,1227.186,393.76C1202.905,351.765,1158.097,328.203,1109.648,325.787C1056.037,323.113,997.042,334.627,969.885,380.929C942.506,427.609,961.526,484.656,989.188,531.169C1016.087,576.4,1057.024,616.27,1109.648,615.943" fill="rgba(46, 46, 46, 0.4)" class="triangle-float3"></path></g><defs><mask id="SvgjsMask1167"><rect width="1440" height="560" fill="#ffffff"></rect></mask><style>
            @keyframes float1 {
                0%{transform: translate(0, 0)}
                50%{transform: translate(-10px, 0)}
                100%{transform: translate(0, 0)}
            }

            .triangle-float1 {
                animation: float1 5s infinite;
            }

            @keyframes float2 {
                0%{transform: translate(0, 0)}
                50%{transform: translate(-5px, -5px)}
                100%{transform: translate(0, 0)}
            }

            .triangle-float2 {
                animation: float2 4s infinite;
            }

            @keyframes float3 {
                0%{transform: translate(0, 0)}
                50%{transform: translate(0, -10px)}
                100%{transform: translate(0, 0)}
            }

            .triangle-float3 {
                animation: float3 6s infinite;
            }
        </style></defs></svg>