<svg width="272" height="308" viewBox="0 0 272 308" fill="none" xmlns="http://www.w3.org/2000/svg">
<mask id="mask0_0_19" style="mask-type:alpha" maskUnits="userSpaceOnUse" x="0" y="0" width="272" height="308">
<path d="M250 308H22C9.84974 308 0 298.15 0 286V22C0 9.84974 9.84974 0 22 0H170L272 102V286C272 298.15 262.15 308 250 308Z" fill="url(#paint0_linear_0_19)"/>
</mask>
<g mask="url(#mask0_0_19)">
<path d="M250 308H22C9.84974 308 0 298.15 0 286V22C0 9.84974 9.84974 0 22 0H170L272 102V286C272 298.15 262.15 308 250 308Z" fill="url(#paint1_linear_0_19)"/>
<path d="M112.995 226.79C107.728 226.79 102.988 225.658 98.775 223.393C94.6143 221.076 91.3227 217.784 88.9 213.518C86.53 209.199 85.345 204.17 85.345 198.429C85.345 192.688 86.53 187.685 88.9 183.419C91.3227 179.1 94.6143 175.809 98.775 173.544C102.988 171.227 107.728 170.068 112.995 170.068C116.576 170.068 119.763 170.489 122.554 171.332C125.398 172.175 128.216 173.386 131.007 174.966C132.166 175.598 132.745 176.599 132.745 177.968C132.745 178.758 132.455 179.469 131.876 180.101C131.297 180.68 130.533 180.97 129.585 180.97C129.058 180.97 128.584 180.865 128.163 180.654C125.846 179.443 123.581 178.521 121.369 177.889C119.157 177.257 116.603 176.941 113.706 176.941C109.177 176.941 105.306 177.889 102.093 179.785C98.933 181.628 96.5367 184.183 94.904 187.448C93.324 190.661 92.534 194.321 92.534 198.429C92.534 202.537 93.324 206.224 94.904 209.489C96.5367 212.702 98.933 215.256 102.093 217.152C105.306 218.995 109.177 219.917 113.706 219.917C116.603 219.917 119.157 219.601 121.369 218.969C123.581 218.337 125.846 217.415 128.163 216.204C128.584 215.993 129.058 215.888 129.585 215.888C130.533 215.888 131.297 216.178 131.876 216.757C132.455 217.336 132.745 218.047 132.745 218.89C132.745 220.259 132.166 221.26 131.007 221.892C128.216 223.472 125.398 224.683 122.554 225.526C119.763 226.369 116.576 226.79 112.995 226.79ZM166.503 226.79C159.814 226.79 153.547 225.526 147.701 222.998C147.069 222.735 146.542 222.313 146.121 221.734C145.699 221.102 145.489 220.444 145.489 219.759C145.489 218.864 145.778 218.1 146.358 217.468C146.99 216.783 147.78 216.441 148.728 216.441C149.254 216.441 149.755 216.546 150.229 216.757C155.074 218.916 160.262 219.996 165.792 219.996C175.008 219.996 179.617 216.968 179.617 210.911C179.617 209.331 179.011 208.014 177.8 206.961C176.641 205.908 175.193 205.091 173.455 204.512C171.717 203.88 169.241 203.143 166.029 202.3C161.763 201.194 158.313 200.141 155.68 199.14C153.046 198.087 150.782 196.533 148.886 194.479C146.99 192.425 146.042 189.686 146.042 186.263C146.042 183.261 146.832 180.549 148.412 178.126C149.992 175.651 152.309 173.702 155.364 172.28C158.471 170.805 162.184 170.068 166.503 170.068C172.296 170.068 177.536 170.937 182.224 172.675C183.698 173.202 184.436 174.255 184.436 175.835C184.436 176.678 184.146 177.441 183.567 178.126C182.987 178.811 182.224 179.153 181.276 179.153C180.96 179.153 180.538 179.048 180.012 178.837C175.904 177.415 171.664 176.704 167.293 176.704C163.132 176.704 159.735 177.494 157.102 179.074C154.521 180.654 153.231 182.866 153.231 185.71C153.231 187.606 153.836 189.16 155.048 190.371C156.312 191.53 157.865 192.451 159.709 193.136C161.605 193.768 164.159 194.453 167.372 195.19C171.532 196.191 174.877 197.191 177.405 198.192C179.985 199.193 182.171 200.746 183.962 202.853C185.805 204.96 186.727 207.804 186.727 211.385C186.727 214.334 185.884 216.994 184.199 219.364C182.513 221.681 180.143 223.498 177.089 224.815C174.034 226.132 170.505 226.79 166.503 226.79Z" fill="white"/>
<path d="M98.775 223.393L97.8018 225.14L97.8149 225.148L97.8281 225.155L98.775 223.393ZM88.9 213.518L87.1467 214.48L87.1537 214.493L87.1609 214.506L88.9 213.518ZM88.9 183.419L87.1557 182.44L87.1517 182.448L88.9 183.419ZM98.775 173.544L99.7312 175.301L99.7388 175.296L98.775 173.544ZM122.554 171.332L121.976 173.247L121.986 173.25L122.554 171.332ZM131.007 174.966L130.022 176.707L130.035 176.714L130.049 176.722L131.007 174.966ZM131.876 180.101L133.29 181.515L133.321 181.484L133.35 181.452L131.876 180.101ZM128.163 180.654L127.236 182.426L127.252 182.435L127.269 182.443L128.163 180.654ZM121.369 177.889L121.918 175.966L121.918 175.966L121.369 177.889ZM102.093 179.785L103.101 181.513L103.11 181.507L102.093 179.785ZM94.904 187.448L93.1151 186.554L93.1093 186.565L94.904 187.448ZM94.904 209.489L93.1037 210.36L93.1122 210.378L93.121 210.395L94.904 209.489ZM102.093 217.152L101.064 218.867L101.081 218.877L101.098 218.887L102.093 217.152ZM121.369 218.969L121.918 220.892L121.918 220.892L121.369 218.969ZM128.163 216.204L127.269 214.415L127.252 214.423L127.236 214.432L128.163 216.204ZM131.876 216.757L133.29 215.343L133.29 215.343L131.876 216.757ZM131.007 221.892L130.049 220.136L130.035 220.144L130.022 220.151L131.007 221.892ZM122.554 225.526L121.986 223.608L121.976 223.611L122.554 225.526ZM112.995 224.79C108.025 224.79 103.616 223.724 99.7219 221.631L97.8281 225.155C102.361 227.591 107.432 228.79 112.995 228.79V224.79ZM99.7482 221.646C95.9176 219.512 92.8866 216.488 90.6391 212.53L87.1609 214.506C89.7587 219.08 93.3111 222.639 97.8018 225.14L99.7482 221.646ZM90.6533 212.556C88.4701 208.577 87.345 203.889 87.345 198.429H83.345C83.345 204.45 84.5899 209.821 87.1467 214.48L90.6533 212.556ZM87.345 198.429C87.345 192.968 88.4703 188.311 90.6483 184.39L87.1517 182.448C84.5897 187.059 83.345 192.409 83.345 198.429H87.345ZM90.6443 184.397C92.8915 180.392 95.9166 177.377 99.7311 175.301L97.8189 171.787C93.3121 174.24 89.7538 177.809 87.1557 182.44L90.6443 184.397ZM99.7388 175.296C103.629 173.157 108.032 172.068 112.995 172.068V168.068C107.424 168.068 102.347 169.297 97.8112 171.792L99.7388 175.296ZM112.995 172.068C116.423 172.068 119.409 172.472 121.976 173.247L123.132 169.417C120.116 168.507 116.729 168.068 112.995 168.068V172.068ZM121.986 173.25C124.673 174.046 127.352 175.195 130.022 176.707L131.992 173.225C129.08 171.577 126.123 170.303 123.122 169.414L121.986 173.25ZM130.049 176.722C130.353 176.888 130.499 177.053 130.58 177.193C130.663 177.337 130.745 177.57 130.745 177.968H134.745C134.745 176.997 134.537 176.045 134.041 175.188C133.543 174.328 132.819 173.676 131.965 173.21L130.049 176.722ZM130.745 177.968C130.745 178.213 130.674 178.452 130.402 178.75L133.35 181.452C134.236 180.486 134.745 179.303 134.745 177.968H130.745ZM130.462 178.687C130.317 178.832 130.093 178.97 129.585 178.97V182.97C130.973 182.97 132.277 182.529 133.29 181.515L130.462 178.687ZM129.585 178.97C129.332 178.97 129.17 178.921 129.057 178.865L127.269 182.443C127.999 182.808 128.785 182.97 129.585 182.97V178.97ZM129.09 178.882C126.668 177.616 124.277 176.64 121.918 175.966L120.82 179.812C122.885 180.402 125.023 181.27 127.236 182.426L129.09 178.882ZM121.918 175.966C119.489 175.272 116.743 174.941 113.706 174.941V178.941C116.463 178.941 118.825 179.242 120.82 179.812L121.918 175.966ZM113.706 174.941C108.896 174.941 104.657 175.95 101.076 178.063L103.11 181.507C105.954 179.828 109.458 178.941 113.706 178.941V174.941ZM101.085 178.057C97.5902 180.096 94.9221 182.94 93.1151 186.554L96.6929 188.342C98.1513 185.426 100.276 183.16 103.101 181.513L101.085 178.057ZM93.1093 186.565C91.3756 190.091 90.534 194.06 90.534 198.429H94.534C94.534 194.582 95.2724 191.231 96.6987 188.331L93.1093 186.565ZM90.534 198.429C90.534 202.799 91.3758 206.789 93.1037 210.36L96.7043 208.618C95.2722 205.658 94.534 202.275 94.534 198.429H90.534ZM93.121 210.395C94.928 213.951 97.5893 216.782 101.064 218.867L103.122 215.437C100.277 213.73 98.1453 211.453 96.687 208.583L93.121 210.395ZM101.098 218.887C104.674 220.939 108.905 221.917 113.706 221.917V217.917C109.449 217.917 105.937 217.052 103.088 215.417L101.098 218.887ZM113.706 221.917C116.743 221.917 119.489 221.586 121.918 220.892L120.82 217.046C118.825 217.616 116.463 217.917 113.706 217.917V221.917ZM121.918 220.892C124.277 220.218 126.668 219.242 129.09 217.976L127.236 214.432C125.023 215.588 122.885 216.456 120.82 217.046L121.918 220.892ZM129.057 217.993C129.17 217.937 129.332 217.888 129.585 217.888V213.888C128.785 213.888 127.999 214.05 127.269 214.415L129.057 217.993ZM129.585 217.888C130.093 217.888 130.317 218.026 130.462 218.171L133.29 215.343C132.277 214.329 130.973 213.888 129.585 213.888V217.888ZM130.462 218.171C130.654 218.364 130.745 218.561 130.745 218.89H134.745C134.745 217.534 134.256 216.309 133.29 215.343L130.462 218.171ZM130.745 218.89C130.745 219.288 130.663 219.521 130.58 219.665C130.499 219.805 130.353 219.97 130.049 220.136L131.965 223.648C132.819 223.182 133.543 222.53 134.041 221.67C134.537 220.813 134.745 219.861 134.745 218.89H130.745ZM130.022 220.151C127.352 221.663 124.673 222.812 121.986 223.608L123.122 227.444C126.123 226.555 129.08 225.281 131.992 223.633L130.022 220.151ZM121.976 223.611C119.409 224.386 116.423 224.79 112.995 224.79V228.79C116.729 228.79 120.116 228.351 123.132 227.441L121.976 223.611ZM147.701 222.998L148.495 221.162L148.482 221.157L148.47 221.152L147.701 222.998ZM146.121 221.734L144.457 222.843L144.479 222.877L144.503 222.91L146.121 221.734ZM146.358 217.468L144.888 216.111L144.883 216.117L146.358 217.468ZM150.229 216.757L151.043 214.93L151.041 214.929L150.229 216.757ZM177.8 206.961L176.454 208.441L176.471 208.456L176.487 208.47L177.8 206.961ZM173.455 204.512L172.771 206.392L172.797 206.401L172.822 206.409L173.455 204.512ZM166.029 202.3L166.536 200.365L166.531 200.364L166.029 202.3ZM155.68 199.14L154.937 200.997L154.953 201.003L154.969 201.01L155.68 199.14ZM148.886 194.479L147.416 195.836L147.416 195.836L148.886 194.479ZM148.412 178.126L150.087 179.219L150.092 179.21L150.098 179.202L148.412 178.126ZM155.364 172.28L156.208 174.093L156.214 174.09L156.221 174.087L155.364 172.28ZM182.224 172.675L181.528 174.55L181.54 174.554L181.551 174.558L182.224 172.675ZM183.567 178.126L185.093 179.418L185.093 179.418L183.567 178.126ZM180.012 178.837L180.754 176.98L180.711 176.962L180.666 176.947L180.012 178.837ZM157.102 179.074L156.073 177.359L156.065 177.364L156.057 177.368L157.102 179.074ZM155.048 190.371L153.633 191.785L153.664 191.816L153.696 191.845L155.048 190.371ZM159.709 193.136L159.012 195.011L159.044 195.023L159.076 195.033L159.709 193.136ZM167.372 195.19L167.839 193.245L167.829 193.243L167.819 193.241L167.372 195.19ZM177.405 198.192L176.669 200.052L176.682 200.057L177.405 198.192ZM183.962 202.853L182.438 204.148L182.447 204.159L182.457 204.17L183.962 202.853ZM184.199 219.364L185.816 220.54L185.822 220.532L185.829 220.523L184.199 219.364ZM177.089 224.815L177.88 226.652L177.88 226.652L177.089 224.815ZM166.503 224.79C160.073 224.79 154.077 223.577 148.495 221.162L146.907 224.834C153.016 227.475 159.555 228.79 166.503 228.79V224.79ZM148.47 221.152C148.193 221.036 147.954 220.854 147.738 220.558L144.503 222.91C145.13 223.772 145.945 224.433 146.931 224.844L148.47 221.152ZM147.785 220.625C147.558 220.284 147.489 220.006 147.489 219.759H143.489C143.489 220.881 143.841 221.92 144.457 222.843L147.785 220.625ZM147.489 219.759C147.489 219.34 147.607 219.065 147.832 218.819L144.883 216.117C143.95 217.135 143.489 218.388 143.489 219.759H147.489ZM147.827 218.825C148.073 218.558 148.327 218.441 148.728 218.441V214.441C147.233 214.441 145.906 215.009 144.888 216.111L147.827 218.825ZM148.728 218.441C148.979 218.441 149.202 218.489 149.416 218.585L151.041 214.929C150.307 214.603 149.53 214.441 148.728 214.441V218.441ZM149.415 218.584C154.527 220.862 159.993 221.996 165.792 221.996V217.996C160.53 217.996 155.621 216.97 151.043 214.93L149.415 218.584ZM165.792 221.996C170.555 221.996 174.476 221.225 177.259 219.396C180.188 217.471 181.617 214.534 181.617 210.911H177.617C177.617 213.344 176.741 214.95 175.062 216.053C173.237 217.253 170.245 217.996 165.792 217.996V221.996ZM181.617 210.911C181.617 208.742 180.752 206.878 179.112 205.452L176.487 208.47C177.27 209.151 177.617 209.92 177.617 210.911H181.617ZM179.145 205.481C177.748 204.211 176.045 203.267 174.087 202.615L172.822 206.409C174.341 206.915 175.534 207.604 176.454 208.441L179.145 205.481ZM174.138 202.632C172.314 201.969 169.77 201.214 166.536 200.365L165.521 204.235C168.713 205.072 171.119 205.791 172.771 206.392L174.138 202.632ZM166.531 200.364C162.301 199.267 158.928 198.235 156.39 197.27L154.969 201.01C157.698 202.046 161.225 203.121 165.527 204.236L166.531 200.364ZM156.422 197.283C154.061 196.339 152.046 194.954 150.355 193.122L147.416 195.836C149.517 198.112 152.031 199.835 154.937 200.997L156.422 197.283ZM150.355 193.122C148.873 191.517 148.042 189.302 148.042 186.263H144.042C144.042 190.07 145.106 193.333 147.416 195.836L150.355 193.122ZM148.042 186.263C148.042 183.633 148.727 181.303 150.087 179.219L146.736 177.033C144.936 179.794 144.042 182.889 144.042 186.263H148.042ZM150.098 179.202C151.444 177.093 153.446 175.379 156.208 174.093L154.52 170.467C151.172 172.025 148.539 174.209 146.726 177.05L150.098 179.202ZM156.221 174.087C159.001 172.768 162.407 172.068 166.503 172.068V168.068C161.961 168.068 157.941 168.843 154.506 170.473L156.221 174.087ZM166.503 172.068C172.096 172.068 177.096 172.907 181.528 174.55L182.919 170.8C177.977 168.967 172.496 168.068 166.503 168.068V172.068ZM181.551 174.558C181.984 174.713 182.161 174.888 182.244 175.007C182.328 175.127 182.436 175.36 182.436 175.835H186.436C186.436 174.73 186.174 173.646 185.521 172.713C184.867 171.778 183.938 171.163 182.896 170.792L181.551 174.558ZM182.436 175.835C182.436 176.173 182.335 176.485 182.04 176.834L185.093 179.418C185.957 178.397 186.436 177.183 186.436 175.835H182.436ZM182.04 176.834C181.865 177.041 181.674 177.153 181.276 177.153V181.153C182.774 181.153 184.11 180.58 185.093 179.418L182.04 176.834ZM181.276 177.153C181.329 177.153 181.314 177.16 181.208 177.134C181.107 177.108 180.958 177.061 180.754 176.98L179.269 180.694C179.874 180.936 180.578 181.153 181.276 181.153V177.153ZM180.666 176.947C176.346 175.452 171.885 174.704 167.293 174.704V178.704C171.443 178.704 175.461 179.378 179.357 180.727L180.666 176.947ZM167.293 174.704C162.894 174.704 159.108 175.538 156.073 177.359L158.131 180.789C160.362 179.45 163.37 178.704 167.293 178.704V174.704ZM156.057 177.368C152.929 179.284 151.231 182.118 151.231 185.71H155.231C155.231 183.614 156.113 182.024 158.146 180.78L156.057 177.368ZM151.231 185.71C151.231 188.074 152.005 190.157 153.633 191.785L156.462 188.957C155.667 188.162 155.231 187.138 155.231 185.71H151.231ZM153.696 191.845C155.177 193.202 156.962 194.249 159.012 195.011L160.405 191.261C158.769 190.653 157.447 189.857 156.399 188.897L153.696 191.845ZM159.076 195.033C161.059 195.694 163.684 196.396 166.924 197.139L167.819 193.241C164.634 192.51 162.15 191.842 160.341 191.239L159.076 195.033ZM166.904 197.135C171.019 198.124 174.263 199.099 176.669 200.052L178.141 196.332C175.491 195.283 172.046 194.257 167.839 193.245L166.904 197.135ZM176.682 200.057C178.953 200.937 180.863 202.295 182.438 204.148L185.486 201.558C183.479 199.197 181.018 197.448 178.128 196.327L176.682 200.057ZM182.457 204.17C183.9 205.82 184.727 208.149 184.727 211.385H188.727C188.727 207.458 187.71 204.1 185.467 201.536L182.457 204.17ZM184.727 211.385C184.727 213.925 184.01 216.179 182.569 218.205L185.829 220.523C187.758 217.809 188.727 214.743 188.727 211.385H184.727ZM182.581 218.188C181.139 220.171 179.076 221.781 176.297 222.978L177.88 226.652C181.211 225.216 183.888 223.192 185.816 220.54L182.581 218.188ZM176.297 222.978C173.538 224.168 170.287 224.79 166.503 224.79V228.79C170.723 228.79 174.53 228.096 177.88 226.652L176.297 222.978Z" fill="white"/>
<g filter="url(#filter0_d_0_19)">
<path d="M272 102H192C179.85 102 170 92.1503 170 80V0L272 102Z" fill="url(#paint2_linear_0_19)"/>
</g>
</g>
<defs>
<filter id="filter0_d_0_19" x="147" y="-24" width="152" height="152" filterUnits="userSpaceOnUse" color-interpolation-filters="sRGB">
<feFlood flood-opacity="0" result="BackgroundImageFix"/>
<feColorMatrix in="SourceAlpha" type="matrix" values="0 0 0 0 0 0 0 0 0 0 0 0 0 0 0 0 0 0 127 0" result="hardAlpha"/>
<feOffset dx="2" dy="1"/>
<feGaussianBlur stdDeviation="12.5"/>
<feColorMatrix type="matrix" values="0 0 0 0 0 0 0 0 0 0 0 0 0 0 0 0 0 0 0.33 0"/>
<feBlend mode="normal" in2="BackgroundImageFix" result="effect1_dropShadow_0_19"/>
<feBlend mode="normal" in="SourceGraphic" in2="effect1_dropShadow_0_19" result="shape"/>
</filter>
<linearGradient id="paint0_linear_0_19" x1="136" y1="0" x2="136" y2="308" gradientUnits="userSpaceOnUse">
<stop stop-color="#FF7979"/>
<stop offset="1" stop-color="#E85555"/>
</linearGradient>
<linearGradient id="paint1_linear_0_19" x1="136" y1="0" x2="136" y2="308" gradientUnits="userSpaceOnUse">
<stop stop-color="#FF7981"/>
<stop offset="1" stop-color="#E85567"/>
</linearGradient>
<linearGradient id="paint2_linear_0_19" x1="221" y1="0" x2="221" y2="102" gradientUnits="userSpaceOnUse">
<stop stop-color="#D03954"/>
<stop offset="1" stop-color="#C02A3C"/>
</linearGradient>
</defs>
</svg>
