<svg width="272" height="308" viewBox="0 0 272 308" fill="none" xmlns="http://www.w3.org/2000/svg">
<mask id="mask0_8_0" style="mask-type:alpha" maskUnits="userSpaceOnUse" x="0" y="0" width="272" height="308">
<path d="M250 308H22C9.84974 308 0 298.15 0 286V22C0 9.84974 9.84974 0 22 0H170L272 102V286C272 298.15 262.15 308 250 308Z" fill="url(#paint0_linear_8_0)"/>
</mask>
<g mask="url(#mask0_8_0)">
<path d="M250 308H22C9.84974 308 0 298.15 0 286V22C0 9.84974 9.84974 0 22 0H170L272 102V286C272 298.15 262.15 308 250 308Z" fill="url(#paint1_linear_8_0)"/>
<g filter="url(#filter0_f_8_0)">
<rect x="48" y="149" width="178" height="84" fill="#CC1583" fill-opacity="0.15" style="mix-blend-mode:darken"/>
</g>
<path d="M39.272 226.79C35.4273 226.79 31.925 225.895 28.765 224.104C27.6063 223.419 27.027 222.445 27.027 221.181C27.027 220.338 27.2903 219.601 27.817 218.969C28.3963 218.284 29.1337 217.942 30.029 217.942C30.5557 217.942 31.0297 218.047 31.451 218.258C33.8737 219.417 36.3227 219.996 38.798 219.996C41.642 219.996 43.933 219.18 45.671 217.547C47.4617 215.914 48.357 212.833 48.357 208.304V174.097C48.357 173.096 48.6993 172.254 49.384 171.569C50.0687 170.832 50.9113 170.463 51.912 170.463C52.9127 170.463 53.7553 170.832 54.44 171.569C55.1773 172.254 55.546 173.096 55.546 174.097V207.83C55.546 214.729 53.9923 219.627 50.885 222.524C47.8303 225.368 43.9593 226.79 39.272 226.79ZM75.8348 226.395C74.7815 226.395 73.9125 226.053 73.2278 225.368C72.5958 224.683 72.2798 223.841 72.2798 222.84C72.2798 222.419 72.4115 221.892 72.6748 221.26L92.8198 173.702C93.2411 172.754 93.8205 171.99 94.5578 171.411C95.3478 170.779 96.2958 170.463 97.4018 170.463H98.1918C99.2978 170.463 100.219 170.779 100.957 171.411C101.747 171.99 102.352 172.754 102.774 173.702L122.919 221.26C123.182 221.892 123.314 222.419 123.314 222.84C123.314 223.841 122.971 224.683 122.287 225.368C121.655 226.053 120.812 226.395 119.759 226.395C119.021 226.395 118.337 226.211 117.705 225.842C117.125 225.421 116.678 224.868 116.362 224.183L111.227 211.859H84.3668L79.2318 224.183C78.9158 224.868 78.4418 225.421 77.8098 225.842C77.2305 226.211 76.5721 226.395 75.8348 226.395ZM87.1318 205.302H108.462L97.7968 179.627L87.1318 205.302ZM155.874 226.395C153.714 226.395 152.082 225.184 150.976 222.761L131.463 175.44C131.305 175.019 131.226 174.571 131.226 174.097C131.226 172.991 131.542 172.122 132.174 171.49C132.806 170.805 133.675 170.463 134.781 170.463C135.518 170.463 136.176 170.7 136.756 171.174C137.388 171.595 137.862 172.175 138.178 172.912L156.743 219.206L175.308 172.912C175.624 172.175 176.071 171.595 176.651 171.174C177.283 170.7 177.967 170.463 178.705 170.463C179.811 170.463 180.68 170.805 181.312 171.49C181.944 172.122 182.26 172.991 182.26 174.097C182.26 174.571 182.181 175.019 182.023 175.44L162.51 222.761C161.404 225.184 159.771 226.395 157.612 226.395H155.874ZM193.745 226.395C192.692 226.395 191.823 226.053 191.138 225.368C190.506 224.683 190.19 223.841 190.19 222.84C190.19 222.419 190.322 221.892 190.585 221.26L210.73 173.702C211.152 172.754 211.731 171.99 212.468 171.411C213.258 170.779 214.206 170.463 215.312 170.463H216.102C217.208 170.463 218.13 170.779 218.867 171.411C219.657 171.99 220.263 172.754 220.684 173.702L240.829 221.26C241.093 221.892 241.224 222.419 241.224 222.84C241.224 223.841 240.882 224.683 240.197 225.368C239.565 226.053 238.723 226.395 237.669 226.395C236.932 226.395 236.247 226.211 235.615 225.842C235.036 225.421 234.588 224.868 234.272 224.183L229.137 211.859H202.277L197.142 224.183C196.826 224.868 196.352 225.421 195.72 225.842C195.141 226.211 194.483 226.395 193.745 226.395ZM205.042 205.302H226.372L215.707 179.627L205.042 205.302Z" fill="white"/>
<path d="M28.765 224.104L27.7475 225.826L27.7632 225.835L27.779 225.844L28.765 224.104ZM27.817 218.969L26.2902 217.677L26.2854 217.683L26.2806 217.689L27.817 218.969ZM31.451 218.258L30.5566 220.047L30.5723 220.055L30.5881 220.062L31.451 218.258ZM45.671 217.547L44.3235 216.069L44.3125 216.079L44.3017 216.089L45.671 217.547ZM49.384 171.569L50.7982 172.983L50.8244 172.957L50.8496 172.93L49.384 171.569ZM54.44 171.569L52.9744 172.93L53.0248 172.984L53.0791 173.035L54.44 171.569ZM50.885 222.524L52.2478 223.988L52.2488 223.987L50.885 222.524ZM39.272 224.79C35.752 224.79 32.5926 223.974 29.751 222.364L27.779 225.844C31.2574 227.815 35.1027 228.79 39.272 228.79V224.79ZM29.7825 222.382C29.1847 222.029 29.027 221.684 29.027 221.181H25.027C25.027 223.206 26.028 224.81 27.7475 225.826L29.7825 222.382ZM29.027 221.181C29.027 220.794 29.1341 220.513 29.3534 220.249L26.2806 217.689C25.4465 218.689 25.027 219.883 25.027 221.181H29.027ZM29.3438 220.261C29.5439 220.024 29.7231 219.942 30.029 219.942V215.942C28.5442 215.942 27.2488 216.544 26.2902 217.677L29.3438 220.261ZM30.029 219.942C30.2822 219.942 30.4443 219.991 30.5566 220.047L32.3454 216.469C31.615 216.104 30.8291 215.942 30.029 215.942V219.942ZM30.5881 220.062C33.2569 221.339 35.9993 221.996 38.798 221.996V217.996C36.6461 217.996 34.4904 217.495 32.3139 216.454L30.5881 220.062ZM38.798 221.996C42.0467 221.996 44.862 221.051 47.0404 219.005L44.3017 216.089C43.004 217.308 41.2373 217.996 38.798 217.996V221.996ZM47.0185 219.025C49.4673 216.792 50.357 212.951 50.357 208.304H46.357C46.357 212.716 45.456 215.036 44.3235 216.069L47.0185 219.025ZM50.357 208.304V174.097H46.357V208.304H50.357ZM50.357 174.097C50.357 173.607 50.5024 173.279 50.7982 172.983L47.9698 170.155C46.8962 171.228 46.357 172.586 46.357 174.097H50.357ZM50.8496 172.93C51.1582 172.598 51.471 172.463 51.912 172.463V168.463C50.3517 168.463 48.9791 169.066 47.9184 170.208L50.8496 172.93ZM51.912 172.463C52.353 172.463 52.6658 172.598 52.9744 172.93L55.9056 170.208C54.8449 169.066 53.4723 168.463 51.912 168.463V172.463ZM53.0791 173.035C53.4115 173.343 53.546 173.656 53.546 174.097H57.546C57.546 172.537 56.9432 171.164 55.8009 170.103L53.0791 173.035ZM53.546 174.097V207.83H57.546V174.097H53.546ZM53.546 207.83C53.546 214.509 52.0299 218.723 49.5212 221.061L52.2488 223.987C55.9548 220.532 57.546 214.949 57.546 207.83H53.546ZM49.5222 221.06C46.8841 223.516 43.5208 224.79 39.272 224.79V228.79C44.3978 228.79 48.7766 227.22 52.2478 223.988L49.5222 221.06ZM73.2278 225.368L71.7582 226.725L71.7853 226.754L71.8136 226.782L73.2278 225.368ZM72.6748 221.26L70.8332 220.48L70.8286 220.491L72.6748 221.26ZM92.8198 173.702L90.9922 172.89L90.9851 172.906L90.9782 172.922L92.8198 173.702ZM94.5578 171.411L95.7935 172.984L95.8003 172.978L95.8072 172.973L94.5578 171.411ZM100.957 171.411L99.6552 172.93L99.7129 172.979L99.7741 173.024L100.957 171.411ZM102.774 173.702L104.615 172.922L104.609 172.906L104.601 172.89L102.774 173.702ZM122.919 221.26L124.765 220.491L124.76 220.48L122.919 221.26ZM122.287 225.368L120.873 223.954L120.844 223.982L120.817 224.011L122.287 225.368ZM117.705 225.842L116.528 227.459L116.61 227.519L116.697 227.57L117.705 225.842ZM116.362 224.183L114.516 224.952L114.53 224.987L114.546 225.021L116.362 224.183ZM111.227 211.859L113.073 211.09L112.56 209.859H111.227V211.859ZM84.3668 211.859V209.859H83.0335L82.5207 211.09L84.3668 211.859ZM79.2318 224.183L81.0477 225.021L81.0635 224.987L81.078 224.952L79.2318 224.183ZM77.8098 225.842L78.8836 227.529L78.9015 227.518L78.9192 227.506L77.8098 225.842ZM87.1318 205.302L85.2848 204.535L84.1354 207.302H87.1318V205.302ZM108.462 205.302V207.302H111.458L110.309 204.535L108.462 205.302ZM97.7968 179.627L99.6438 178.86L97.7968 174.413L95.9498 178.86L97.7968 179.627ZM75.8348 224.395C75.2605 224.395 74.9168 224.229 74.642 223.954L71.8136 226.782C72.9082 227.877 74.3024 228.395 75.8348 228.395V224.395ZM74.6974 224.011C74.433 223.725 74.2798 223.379 74.2798 222.84H70.2798C70.2798 224.303 70.7586 225.642 71.7582 226.725L74.6974 224.011ZM74.2798 222.84C74.2798 222.797 74.3035 222.551 74.521 222.029L70.8286 220.491C70.5194 221.233 70.2798 222.041 70.2798 222.84H74.2798ZM74.5164 222.04L94.6614 174.482L90.9782 172.922L70.8332 220.48L74.5164 222.04ZM94.6474 174.514C94.9507 173.832 95.3389 173.341 95.7935 172.984L93.3222 169.838C92.3021 170.64 91.5316 171.676 90.9922 172.89L94.6474 174.514ZM95.8072 172.973C96.2089 172.651 96.7048 172.463 97.4018 172.463V168.463C95.8868 168.463 94.4867 168.907 93.3084 169.849L95.8072 172.973ZM97.4018 172.463H98.1918V168.463H97.4018V172.463ZM98.1918 172.463C98.8909 172.463 99.3305 172.651 99.6552 172.93L102.258 169.892C101.108 168.907 99.7047 168.463 98.1918 168.463V172.463ZM99.7741 173.024C100.266 173.385 100.658 173.865 100.946 174.514L104.601 172.89C104.047 171.643 103.227 170.596 102.14 169.798L99.7741 173.024ZM100.932 174.482L121.077 222.04L124.76 220.48L104.615 172.922L100.932 174.482ZM121.073 222.029C121.29 222.551 121.314 222.797 121.314 222.84H125.314C125.314 222.041 125.074 221.233 124.765 220.491L121.073 222.029ZM121.314 222.84C121.314 223.33 121.168 223.658 120.873 223.954L123.701 226.782C124.775 225.709 125.314 224.351 125.314 222.84H121.314ZM120.817 224.011C120.615 224.23 120.334 224.395 119.759 224.395V228.395C121.29 228.395 122.694 227.875 123.756 226.725L120.817 224.011ZM119.759 224.395C119.373 224.395 119.036 224.303 118.713 224.114L116.697 227.57C117.637 228.118 118.67 228.395 119.759 228.395V224.395ZM118.881 224.225C118.593 224.015 118.358 223.736 118.178 223.345L114.546 225.021C114.997 225.999 115.658 226.827 116.528 227.459L118.881 224.225ZM118.208 223.414L113.073 211.09L109.381 212.628L114.516 224.952L118.208 223.414ZM111.227 209.859H84.3668V213.859H111.227V209.859ZM82.5207 211.09L77.3857 223.414L81.078 224.952L86.213 212.628L82.5207 211.09ZM77.4159 223.345C77.2558 223.692 77.0275 223.96 76.7004 224.178L78.9192 227.506C79.8561 226.882 80.5758 226.044 81.0477 225.021L77.4159 223.345ZM76.7361 224.155C76.5015 224.304 76.221 224.395 75.8348 224.395V228.395C76.9232 228.395 77.9595 228.117 78.8836 227.529L76.7361 224.155ZM87.1318 207.302H108.462V203.302H87.1318V207.302ZM110.309 204.535L99.6438 178.86L95.9498 180.394L106.615 206.069L110.309 204.535ZM95.9498 178.86L85.2848 204.535L88.9788 206.069L99.6438 180.394L95.9498 178.86ZM150.976 222.761L149.127 223.523L149.141 223.558L149.156 223.592L150.976 222.761ZM131.463 175.44L129.59 176.142L129.601 176.173L129.614 176.202L131.463 175.44ZM132.174 171.49L133.588 172.904L133.616 172.876L133.643 172.847L132.174 171.49ZM136.756 171.174L135.489 172.722L135.565 172.784L135.646 172.838L136.756 171.174ZM138.178 172.912L140.034 172.168L140.025 172.146L140.016 172.124L138.178 172.912ZM156.743 219.206L154.886 219.95L156.743 224.579L158.599 219.95L156.743 219.206ZM175.308 172.912L173.469 172.124L173.46 172.146L173.451 172.168L175.308 172.912ZM176.651 171.174L177.827 172.791L177.839 172.783L177.851 172.774L176.651 171.174ZM181.312 171.49L179.842 172.847L179.869 172.876L179.897 172.904L181.312 171.49ZM182.023 175.44L183.872 176.202L183.884 176.173L183.895 176.142L182.023 175.44ZM162.51 222.761L164.329 223.592L164.344 223.558L164.359 223.523L162.51 222.761ZM155.874 224.395C155.195 224.395 154.671 224.214 154.221 223.88C153.748 223.529 153.25 222.927 152.795 221.93L149.156 223.592C149.807 225.018 150.679 226.233 151.838 227.093C153.021 227.971 154.393 228.395 155.874 228.395V224.395ZM152.825 221.999L133.312 174.678L129.614 176.202L149.127 223.523L152.825 221.999ZM133.335 174.738C133.266 174.553 133.226 174.344 133.226 174.097H129.226C129.226 174.798 129.343 175.485 129.59 176.142L133.335 174.738ZM133.226 174.097C133.226 173.388 133.416 173.076 133.588 172.904L130.759 170.076C129.667 171.168 129.226 172.594 129.226 174.097H133.226ZM133.643 172.847C133.826 172.649 134.119 172.463 134.781 172.463V168.463C133.23 168.463 131.785 168.962 130.704 170.133L133.643 172.847ZM134.781 172.463C135.049 172.463 135.261 172.535 135.489 172.722L138.022 169.626C137.091 168.865 135.987 168.463 134.781 168.463V172.463ZM135.646 172.838C135.937 173.032 136.167 173.298 136.339 173.7L140.016 172.124C139.556 171.051 138.838 170.159 137.865 169.51L135.646 172.838ZM136.321 173.656L154.886 219.95L158.599 218.462L140.034 172.168L136.321 173.656ZM158.599 219.95L177.164 173.656L173.451 172.168L154.886 218.462L158.599 219.95ZM177.146 173.7C177.337 173.253 177.573 172.976 177.827 172.791L175.474 169.557C174.57 170.214 173.91 171.096 173.469 172.124L177.146 173.7ZM177.851 172.774C178.163 172.54 178.432 172.463 178.705 172.463V168.463C177.503 168.463 176.402 168.86 175.451 169.574L177.851 172.774ZM178.705 172.463C179.366 172.463 179.659 172.649 179.842 172.847L182.781 170.133C181.7 168.962 180.255 168.463 178.705 168.463V172.463ZM179.897 172.904C180.069 173.076 180.26 173.388 180.26 174.097H184.26C184.26 172.594 183.818 171.168 182.726 170.076L179.897 172.904ZM180.26 174.097C180.26 174.344 180.219 174.553 180.15 174.738L183.895 176.142C184.142 175.485 184.26 174.798 184.26 174.097H180.26ZM180.174 174.678L160.661 221.999L164.359 223.523L183.872 176.202L180.174 174.678ZM160.69 221.93C160.235 222.927 159.737 223.529 159.264 223.88C158.814 224.214 158.29 224.395 157.612 224.395V228.395C159.092 228.395 160.464 227.971 161.647 227.093C162.806 226.233 163.678 225.018 164.329 223.592L160.69 221.93ZM157.612 224.395H155.874V228.395H157.612V224.395ZM191.138 225.368L189.669 226.725L189.696 226.754L189.724 226.782L191.138 225.368ZM190.585 221.26L188.744 220.48L188.739 220.491L190.585 221.26ZM210.73 173.702L208.903 172.89L208.896 172.906L208.889 172.922L210.73 173.702ZM212.468 171.411L213.704 172.984L213.711 172.978L213.718 172.973L212.468 171.411ZM218.867 171.411L217.566 172.93L217.623 172.979L217.685 173.024L218.867 171.411ZM220.684 173.702L222.526 172.922L222.519 172.906L222.512 172.89L220.684 173.702ZM240.829 221.26L242.676 220.491L242.671 220.48L240.829 221.26ZM240.197 225.368L238.783 223.954L238.755 223.982L238.728 224.011L240.197 225.368ZM235.615 225.842L234.439 227.459L234.521 227.519L234.608 227.57L235.615 225.842ZM234.272 224.183L232.426 224.952L232.441 224.987L232.456 225.021L234.272 224.183ZM229.137 211.859L230.984 211.09L230.471 209.859H229.137V211.859ZM202.277 211.859V209.859H200.944L200.431 211.09L202.277 211.859ZM197.142 224.183L198.958 225.021L198.974 224.987L198.989 224.952L197.142 224.183ZM195.72 225.842L196.794 227.529L196.812 227.518L196.83 227.506L195.72 225.842ZM205.042 205.302L203.195 204.535L202.046 207.302H205.042V205.302ZM226.372 205.302V207.302H229.369L228.219 204.535L226.372 205.302ZM215.707 179.627L217.554 178.86L215.707 174.413L213.86 178.86L215.707 179.627ZM193.745 224.395C193.171 224.395 192.827 224.229 192.553 223.954L189.724 226.782C190.819 227.877 192.213 228.395 193.745 228.395V224.395ZM192.608 224.011C192.344 223.725 192.19 223.379 192.19 222.84H188.19C188.19 224.303 188.669 225.642 189.669 226.725L192.608 224.011ZM192.19 222.84C192.19 222.797 192.214 222.551 192.432 222.029L188.739 220.491C188.43 221.233 188.19 222.041 188.19 222.84H192.19ZM192.427 222.04L212.572 174.482L208.889 172.922L188.744 220.48L192.427 222.04ZM212.558 174.514C212.861 173.832 213.249 173.341 213.704 172.984L211.233 169.838C210.213 170.64 209.442 171.676 208.903 172.89L212.558 174.514ZM213.718 172.973C214.119 172.651 214.615 172.463 215.312 172.463V168.463C213.797 168.463 212.397 168.907 211.219 169.849L213.718 172.973ZM215.312 172.463H216.102V168.463H215.312V172.463ZM216.102 172.463C216.801 172.463 217.241 172.651 217.566 172.93L220.169 169.892C219.019 168.907 217.615 168.463 216.102 168.463V172.463ZM217.685 173.024C218.177 173.385 218.568 173.865 218.857 174.514L222.512 172.89C221.958 171.643 221.138 170.596 220.05 169.798L217.685 173.024ZM218.843 174.482L238.988 222.04L242.671 220.48L222.526 172.922L218.843 174.482ZM238.983 222.029C239.201 222.551 239.224 222.797 239.224 222.84H243.224C243.224 222.041 242.985 221.233 242.676 220.491L238.983 222.029ZM239.224 222.84C239.224 223.33 239.079 223.658 238.783 223.954L241.612 226.782C242.685 225.709 243.224 224.351 243.224 222.84H239.224ZM238.728 224.011C238.526 224.23 238.245 224.395 237.669 224.395V228.395C239.201 228.395 240.605 227.875 241.667 226.725L238.728 224.011ZM237.669 224.395C237.283 224.395 236.947 224.303 236.623 224.114L234.608 227.57C235.548 228.118 236.581 228.395 237.669 228.395V224.395ZM236.792 224.225C236.503 224.015 236.269 223.736 236.088 223.345L232.456 225.021C232.908 225.999 233.569 226.827 234.439 227.459L236.792 224.225ZM236.119 223.414L230.984 211.09L227.291 212.628L232.426 224.952L236.119 223.414ZM229.137 209.859H202.277V213.859H229.137V209.859ZM200.431 211.09L195.296 223.414L198.989 224.952L204.124 212.628L200.431 211.09ZM195.326 223.345C195.166 223.692 194.938 223.96 194.611 224.178L196.83 227.506C197.767 226.882 198.486 226.044 198.958 225.021L195.326 223.345ZM194.647 224.155C194.412 224.304 194.132 224.395 193.745 224.395V228.395C194.834 228.395 195.87 228.117 196.794 227.529L194.647 224.155ZM205.042 207.302H226.372V203.302H205.042V207.302ZM228.219 204.535L217.554 178.86L213.86 180.394L224.525 206.069L228.219 204.535ZM213.86 178.86L203.195 204.535L206.889 206.069L217.554 180.394L213.86 178.86Z" fill="white"/>
<g filter="url(#filter1_d_8_0)">
<path d="M272 102H192C179.85 102 170 92.1503 170 80V0L272 102Z" fill="url(#paint2_linear_8_0)"/>
</g>
</g>
<defs>
<filter id="filter0_f_8_0" x="9" y="110" width="256" height="162" filterUnits="userSpaceOnUse" color-interpolation-filters="sRGB">
<feFlood flood-opacity="0" result="BackgroundImageFix"/>
<feBlend mode="normal" in="SourceGraphic" in2="BackgroundImageFix" result="shape"/>
<feGaussianBlur stdDeviation="19.5" result="effect1_foregroundBlur_8_0"/>
</filter>
<filter id="filter1_d_8_0" x="147" y="-24" width="152" height="152" filterUnits="userSpaceOnUse" color-interpolation-filters="sRGB">
<feFlood flood-opacity="0" result="BackgroundImageFix"/>
<feColorMatrix in="SourceAlpha" type="matrix" values="0 0 0 0 0 0 0 0 0 0 0 0 0 0 0 0 0 0 127 0" result="hardAlpha"/>
<feOffset dx="2" dy="1"/>
<feGaussianBlur stdDeviation="12.5"/>
<feColorMatrix type="matrix" values="0 0 0 0 0 0 0 0 0 0 0 0 0 0 0 0 0 0 0.33 0"/>
<feBlend mode="normal" in2="BackgroundImageFix" result="effect1_dropShadow_8_0"/>
<feBlend mode="normal" in="SourceGraphic" in2="effect1_dropShadow_8_0" result="shape"/>
</filter>
<linearGradient id="paint0_linear_8_0" x1="136" y1="0" x2="136" y2="308" gradientUnits="userSpaceOnUse">
<stop stop-color="#FF7979"/>
<stop offset="1" stop-color="#E85555"/>
</linearGradient>
<linearGradient id="paint1_linear_8_0" x1="136" y1="0" x2="136" y2="308" gradientUnits="userSpaceOnUse">
<stop stop-color="#FF6AC3"/>
<stop offset="1" stop-color="#DD3C9C"/>
</linearGradient>
<linearGradient id="paint2_linear_8_0" x1="221" y1="0" x2="221" y2="102" gradientUnits="userSpaceOnUse">
<stop stop-color="#F430A6"/>
<stop offset="1" stop-color="#BF0B77"/>
</linearGradient>
</defs>
</svg>
