<svg width="272" height="308" viewBox="0 0 272 308" fill="none" xmlns="http://www.w3.org/2000/svg">
<mask id="mask0_0_199" style="mask-type:alpha" maskUnits="userSpaceOnUse" x="0" y="0" width="272" height="308">
<path d="M250 308H22C9.84974 308 0 298.15 0 286V22C0 9.84974 9.84974 0 22 0H170L272 102V286C272 298.15 262.15 308 250 308Z" fill="url(#paint0_linear_0_199)"/>
</mask>
<g mask="url(#mask0_0_199)">
<path d="M250 308H22C9.84974 308 0 298.15 0 286V22C0 9.84974 9.84974 0 22 0H170L272 102V286C272 298.15 262.15 308 250 308Z" fill="url(#paint1_linear_0_199)"/>
<path d="M41.272 226.79C37.4273 226.79 33.925 225.895 30.765 224.104C29.6063 223.419 29.027 222.445 29.027 221.181C29.027 220.338 29.2903 219.601 29.817 218.969C30.3963 218.284 31.1337 217.942 32.029 217.942C32.5557 217.942 33.0297 218.047 33.451 218.258C35.8737 219.417 38.3227 219.996 40.798 219.996C43.642 219.996 45.933 219.18 47.671 217.547C49.4617 215.914 50.357 212.833 50.357 208.304V174.097C50.357 173.096 50.6993 172.254 51.384 171.569C52.0687 170.832 52.9113 170.463 53.912 170.463C54.9127 170.463 55.7553 170.832 56.44 171.569C57.1773 172.254 57.546 173.096 57.546 174.097V207.83C57.546 214.729 55.9923 219.627 52.885 222.524C49.8303 225.368 45.9593 226.79 41.272 226.79ZM81.5478 226.395C80.5471 226.395 79.7045 226.053 79.0198 225.368C78.3351 224.683 77.9928 223.841 77.9928 222.84V174.492C77.9928 173.491 78.3351 172.649 79.0198 171.964C79.7045 171.227 80.5471 170.858 81.5478 170.858H99.5598C104.563 170.858 108.645 171.701 111.805 173.386C114.965 175.071 117.229 177.231 118.599 179.864C119.968 182.497 120.653 185.341 120.653 188.396C120.653 191.451 119.968 194.295 118.599 196.928C117.229 199.561 114.965 201.721 111.805 203.406C108.645 205.091 104.563 205.934 99.5598 205.934H85.1818V222.84C85.1818 223.841 84.8131 224.683 84.0758 225.368C83.3911 226.053 82.5485 226.395 81.5478 226.395ZM98.8488 199.14C104.221 199.14 107.986 198.113 110.146 196.059C112.358 194.005 113.464 191.451 113.464 188.396C113.464 185.341 112.358 182.787 110.146 180.733C107.986 178.679 104.221 177.652 98.8488 177.652H85.1818V199.14H98.8488ZM140.156 226C139.155 226 138.313 225.658 137.628 224.973C136.943 224.288 136.601 223.446 136.601 222.445V174.492C136.601 173.491 136.943 172.649 137.628 171.964C138.313 171.227 139.155 170.858 140.156 170.858H171.835C172.783 170.858 173.573 171.2 174.205 171.885C174.89 172.517 175.232 173.307 175.232 174.255C175.232 175.203 174.89 175.993 174.205 176.625C173.573 177.257 172.783 177.573 171.835 177.573H143.79V195.032H168.991C169.939 195.032 170.729 195.374 171.361 196.059C172.046 196.691 172.388 197.481 172.388 198.429C172.388 199.377 172.046 200.167 171.361 200.799C170.729 201.431 169.939 201.747 168.991 201.747H143.79V219.285H171.835C172.783 219.285 173.573 219.627 174.205 220.312C174.89 220.944 175.232 221.734 175.232 222.682C175.232 223.63 174.89 224.42 174.205 225.052C173.573 225.684 172.783 226 171.835 226H140.156ZM216.38 226.79C210.955 226.79 206.136 225.605 201.923 223.235C197.709 220.812 194.444 217.468 192.127 213.202C189.809 208.883 188.651 203.985 188.651 198.508C188.651 192.925 189.862 187.975 192.285 183.656C194.707 179.337 197.999 175.993 202.16 173.623C206.373 171.253 211.034 170.068 216.143 170.068C220.251 170.068 223.832 170.568 226.887 171.569C229.994 172.57 232.97 173.965 235.814 175.756C236.235 175.967 236.604 176.335 236.92 176.862C237.236 177.389 237.394 177.968 237.394 178.6C237.394 179.495 237.078 180.259 236.446 180.891C235.866 181.523 235.076 181.839 234.076 181.839C233.496 181.839 232.943 181.707 232.417 181.444C229.941 179.969 227.466 178.863 224.991 178.126C222.515 177.389 219.829 177.02 216.933 177.02C212.93 177.02 209.322 177.863 206.11 179.548C202.897 181.233 200.369 183.709 198.526 186.974C196.735 190.187 195.84 194.031 195.84 198.508C195.84 202.616 196.682 206.303 198.368 209.568C200.106 212.781 202.581 215.335 205.794 217.231C209.059 219.074 212.904 219.996 217.328 219.996C222.278 219.996 226.887 218.837 231.153 216.52V202.221H218.118C217.222 202.221 216.459 201.905 215.827 201.273C215.195 200.641 214.879 199.877 214.879 198.982C214.879 198.087 215.195 197.323 215.827 196.691C216.459 196.059 217.222 195.743 218.118 195.743H233.681C234.734 195.743 235.629 196.112 236.367 196.849C237.104 197.586 237.473 198.482 237.473 199.535V217.468C237.473 218.574 237.183 219.575 236.604 220.47C236.077 221.313 235.366 221.945 234.471 222.366C228.572 225.315 222.542 226.79 216.38 226.79Z" fill="white"/>
<path d="M30.765 224.104L29.7475 225.826L29.7632 225.835L29.779 225.844L30.765 224.104ZM29.817 218.969L28.2902 217.677L28.2854 217.683L28.2806 217.689L29.817 218.969ZM33.451 218.258L32.5566 220.047L32.5723 220.055L32.5881 220.062L33.451 218.258ZM47.671 217.547L46.3235 216.069L46.3125 216.079L46.3017 216.089L47.671 217.547ZM51.384 171.569L52.7982 172.983L52.8244 172.957L52.8496 172.93L51.384 171.569ZM56.44 171.569L54.9744 172.93L55.0248 172.984L55.0791 173.035L56.44 171.569ZM52.885 222.524L54.2478 223.988L54.2488 223.987L52.885 222.524ZM41.272 224.79C37.752 224.79 34.5926 223.974 31.751 222.364L29.779 225.844C33.2574 227.815 37.1027 228.79 41.272 228.79V224.79ZM31.7825 222.382C31.1847 222.029 31.027 221.684 31.027 221.181H27.027C27.027 223.206 28.028 224.81 29.7475 225.826L31.7825 222.382ZM31.027 221.181C31.027 220.794 31.1341 220.513 31.3534 220.249L28.2806 217.689C27.4465 218.689 27.027 219.883 27.027 221.181H31.027ZM31.3438 220.261C31.5439 220.024 31.7231 219.942 32.029 219.942V215.942C30.5442 215.942 29.2488 216.544 28.2902 217.677L31.3438 220.261ZM32.029 219.942C32.2822 219.942 32.4443 219.991 32.5566 220.047L34.3454 216.469C33.615 216.104 32.8291 215.942 32.029 215.942V219.942ZM32.5881 220.062C35.2569 221.339 37.9993 221.996 40.798 221.996V217.996C38.6461 217.996 36.4904 217.495 34.3139 216.454L32.5881 220.062ZM40.798 221.996C44.0467 221.996 46.862 221.051 49.0404 219.005L46.3017 216.089C45.004 217.308 43.2373 217.996 40.798 217.996V221.996ZM49.0185 219.025C51.4673 216.792 52.357 212.951 52.357 208.304H48.357C48.357 212.716 47.456 215.036 46.3235 216.069L49.0185 219.025ZM52.357 208.304V174.097H48.357V208.304H52.357ZM52.357 174.097C52.357 173.607 52.5024 173.279 52.7982 172.983L49.9698 170.155C48.8962 171.228 48.357 172.586 48.357 174.097H52.357ZM52.8496 172.93C53.1582 172.598 53.471 172.463 53.912 172.463V168.463C52.3517 168.463 50.9791 169.066 49.9184 170.208L52.8496 172.93ZM53.912 172.463C54.353 172.463 54.6658 172.598 54.9744 172.93L57.9056 170.208C56.8449 169.066 55.4723 168.463 53.912 168.463V172.463ZM55.0791 173.035C55.4115 173.343 55.546 173.656 55.546 174.097H59.546C59.546 172.537 58.9432 171.164 57.8009 170.103L55.0791 173.035ZM55.546 174.097V207.83H59.546V174.097H55.546ZM55.546 207.83C55.546 214.509 54.0299 218.723 51.5212 221.061L54.2488 223.987C57.9548 220.532 59.546 214.949 59.546 207.83H55.546ZM51.5222 221.06C48.8841 223.516 45.5208 224.79 41.272 224.79V228.79C46.3978 228.79 50.7766 227.22 54.2478 223.988L51.5222 221.06ZM79.0198 225.368L80.434 223.954L80.434 223.954L79.0198 225.368ZM79.0198 171.964L80.434 173.378L80.4602 173.352L80.4854 173.325L79.0198 171.964ZM111.805 173.386L112.746 171.621L111.805 173.386ZM118.599 179.864L116.824 180.787L116.824 180.787L118.599 179.864ZM118.599 196.928L116.824 196.005L116.824 196.005L118.599 196.928ZM111.805 203.406L112.746 205.171L111.805 203.406ZM85.1818 205.934V203.934H83.1818V205.934H85.1818ZM84.0758 225.368L82.7149 223.902L82.6878 223.928L82.6616 223.954L84.0758 225.368ZM110.146 196.059L108.785 194.593L108.776 194.602L108.767 194.61L110.146 196.059ZM110.146 180.733L108.767 182.182L108.776 182.19L108.785 182.199L110.146 180.733ZM85.1818 177.652V175.652H83.1818V177.652H85.1818ZM85.1818 199.14H83.1818V201.14H85.1818V199.14ZM81.5478 224.395C81.0577 224.395 80.7298 224.25 80.434 223.954L77.6056 226.782C78.6791 227.856 80.0365 228.395 81.5478 228.395V224.395ZM80.434 223.954C80.1382 223.658 79.9928 223.33 79.9928 222.84H75.9928C75.9928 224.351 76.5321 225.709 77.6056 226.782L80.434 223.954ZM79.9928 222.84V174.492H75.9928V222.84H79.9928ZM79.9928 174.492C79.9928 174.002 80.1382 173.674 80.434 173.378L77.6056 170.55C76.5321 171.623 75.9928 172.981 75.9928 174.492H79.9928ZM80.4854 173.325C80.794 172.993 81.1068 172.858 81.5478 172.858V168.858C79.9875 168.858 78.6149 169.461 77.5542 170.603L80.4854 173.325ZM81.5478 172.858H99.5598V168.858H81.5478V172.858ZM99.5598 172.858C104.358 172.858 108.085 173.669 110.864 175.151L112.746 171.621C109.204 169.732 104.768 168.858 99.5598 168.858V172.858ZM110.864 175.151C113.742 176.686 115.677 178.58 116.824 180.787L120.373 178.941C118.782 175.881 116.188 173.457 112.746 171.621L110.864 175.151ZM116.824 180.787C118.041 183.127 118.653 185.653 118.653 188.396H122.653C122.653 185.03 121.895 181.868 120.373 178.941L116.824 180.787ZM118.653 188.396C118.653 191.139 118.041 193.665 116.824 196.005L120.373 197.851C121.895 194.924 122.653 191.762 122.653 188.396H118.653ZM116.824 196.005C115.677 198.212 113.742 200.106 110.864 201.641L112.746 205.171C116.188 203.335 118.782 200.911 120.373 197.851L116.824 196.005ZM110.864 201.641C108.085 203.123 104.358 203.934 99.5598 203.934V207.934C104.768 207.934 109.204 207.06 112.746 205.171L110.864 201.641ZM99.5598 203.934H85.1818V207.934H99.5598V203.934ZM83.1818 205.934V222.84H87.1818V205.934H83.1818ZM83.1818 222.84C83.1818 223.281 83.0473 223.594 82.7149 223.902L85.4367 226.834C86.579 225.773 87.1818 224.4 87.1818 222.84H83.1818ZM82.6616 223.954C82.3658 224.25 82.0379 224.395 81.5478 224.395V228.395C83.0591 228.395 84.4165 227.856 85.49 226.782L82.6616 223.954ZM98.8488 201.14C104.361 201.14 108.79 200.109 111.524 197.508L108.767 194.61C107.183 196.117 104.081 197.14 98.8488 197.14V201.14ZM111.507 197.525C114.132 195.087 115.464 191.999 115.464 188.396H111.464C111.464 190.902 110.584 192.923 108.785 194.593L111.507 197.525ZM115.464 188.396C115.464 184.793 114.132 181.705 111.507 179.267L108.785 182.199C110.584 183.869 111.464 185.89 111.464 188.396H115.464ZM111.524 179.284C108.79 176.683 104.361 175.652 98.8488 175.652V179.652C104.081 179.652 107.183 180.675 108.767 182.182L111.524 179.284ZM98.8488 175.652H85.1818V179.652H98.8488V175.652ZM83.1818 177.652V199.14H87.1818V177.652H83.1818ZM85.1818 201.14H98.8488V197.14H85.1818V201.14ZM137.628 224.973L139.042 223.559L139.042 223.559L137.628 224.973ZM137.628 171.964L139.042 173.378L139.068 173.352L139.094 173.325L137.628 171.964ZM174.205 171.885L172.735 173.242L172.79 173.3L172.848 173.355L174.205 171.885ZM174.205 176.625L172.848 175.155L172.819 175.183L172.791 175.211L174.205 176.625ZM143.79 177.573V175.573H141.79V177.573H143.79ZM143.79 195.032H141.79V197.032H143.79V195.032ZM171.361 196.059L169.891 197.416L169.946 197.474L170.004 197.529L171.361 196.059ZM171.361 200.799L170.004 199.329L169.975 199.357L169.947 199.385L171.361 200.799ZM143.79 201.747V199.747H141.79V201.747H143.79ZM143.79 219.285H141.79V221.285H143.79V219.285ZM174.205 220.312L172.735 221.669L172.79 221.727L172.848 221.782L174.205 220.312ZM174.205 225.052L172.848 223.582L172.819 223.61L172.791 223.638L174.205 225.052ZM140.156 224C139.666 224 139.338 223.855 139.042 223.559L136.214 226.387C137.287 227.461 138.645 228 140.156 228V224ZM139.042 223.559C138.746 223.263 138.601 222.935 138.601 222.445H134.601C134.601 223.956 135.14 225.314 136.214 226.387L139.042 223.559ZM138.601 222.445V174.492H134.601V222.445H138.601ZM138.601 174.492C138.601 174.002 138.746 173.674 139.042 173.378L136.214 170.55C135.14 171.623 134.601 172.981 134.601 174.492H138.601ZM139.094 173.325C139.402 172.993 139.715 172.858 140.156 172.858V168.858C138.596 168.858 137.223 169.461 136.162 170.603L139.094 173.325ZM140.156 172.858H171.835V168.858H140.156V172.858ZM171.835 172.858C172.236 172.858 172.489 172.975 172.735 173.242L175.675 170.528C174.656 169.426 173.33 168.858 171.835 168.858V172.858ZM172.848 173.355C173.115 173.601 173.232 173.854 173.232 174.255H177.232C177.232 172.76 176.664 171.433 175.561 170.415L172.848 173.355ZM173.232 174.255C173.232 174.656 173.115 174.909 172.848 175.155L175.561 178.095C176.664 177.077 177.232 175.75 177.232 174.255H173.232ZM172.791 175.211C172.558 175.443 172.288 175.573 171.835 175.573V179.573C173.278 179.573 174.588 179.071 175.619 178.039L172.791 175.211ZM171.835 175.573H143.79V179.573H171.835V175.573ZM141.79 177.573V195.032H145.79V177.573H141.79ZM143.79 197.032H168.991V193.032H143.79V197.032ZM168.991 197.032C169.392 197.032 169.645 197.149 169.891 197.416L172.831 194.702C171.812 193.6 170.486 193.032 168.991 193.032V197.032ZM170.004 197.529C170.271 197.775 170.388 198.028 170.388 198.429H174.388C174.388 196.934 173.82 195.607 172.717 194.589L170.004 197.529ZM170.388 198.429C170.388 198.83 170.271 199.083 170.004 199.329L172.717 202.269C173.82 201.251 174.388 199.924 174.388 198.429H170.388ZM169.947 199.385C169.714 199.617 169.444 199.747 168.991 199.747V203.747C170.434 203.747 171.744 203.245 172.775 202.213L169.947 199.385ZM168.991 199.747H143.79V203.747H168.991V199.747ZM141.79 201.747V219.285H145.79V201.747H141.79ZM143.79 221.285H171.835V217.285H143.79V221.285ZM171.835 221.285C172.236 221.285 172.489 221.402 172.735 221.669L175.675 218.955C174.656 217.853 173.33 217.285 171.835 217.285V221.285ZM172.848 221.782C173.115 222.028 173.232 222.281 173.232 222.682H177.232C177.232 221.187 176.664 219.86 175.561 218.842L172.848 221.782ZM173.232 222.682C173.232 223.083 173.115 223.336 172.848 223.582L175.561 226.522C176.664 225.504 177.232 224.177 177.232 222.682H173.232ZM172.791 223.638C172.558 223.87 172.288 224 171.835 224V228C173.278 228 174.588 227.498 175.619 226.466L172.791 223.638ZM171.835 224H140.156V228H171.835V224ZM201.923 223.235L200.926 224.969L200.934 224.974L200.942 224.978L201.923 223.235ZM192.127 213.202L190.364 214.148L190.369 214.157L192.127 213.202ZM192.285 183.656L194.029 184.635L194.029 184.635L192.285 183.656ZM202.16 173.623L201.179 171.88L201.17 171.885L202.16 173.623ZM226.887 171.569L226.264 173.47L226.274 173.473L226.887 171.569ZM235.814 175.756L234.748 177.448L234.831 177.501L234.919 177.545L235.814 175.756ZM236.92 176.862L235.205 177.891L235.205 177.891L236.92 176.862ZM236.446 180.891L235.032 179.477L235.001 179.508L234.972 179.54L236.446 180.891ZM232.417 181.444L231.393 183.162L231.456 183.2L231.522 183.233L232.417 181.444ZM224.991 178.126L225.562 176.209L225.562 176.209L224.991 178.126ZM206.11 179.548L207.039 181.319L207.039 181.319L206.11 179.548ZM198.526 186.974L196.784 185.991L196.779 186L198.526 186.974ZM198.368 209.568L196.591 210.485L196.599 210.503L196.609 210.52L198.368 209.568ZM205.794 217.231L204.777 218.953L204.794 218.963L204.811 218.973L205.794 217.231ZM231.153 216.52L232.107 218.277L233.153 217.71V216.52H231.153ZM231.153 202.221H233.153V200.221H231.153V202.221ZM215.827 201.273L214.413 202.687L215.827 201.273ZM215.827 196.691L214.413 195.277L215.827 196.691ZM236.604 220.47L234.925 219.383L234.916 219.397L234.908 219.41L236.604 220.47ZM234.471 222.366L233.619 220.556L233.598 220.566L233.576 220.577L234.471 222.366ZM216.38 224.79C211.256 224.79 206.782 223.674 202.903 221.492L200.942 224.978C205.49 227.536 210.654 228.79 216.38 228.79V224.79ZM202.92 221.501C199.027 219.263 196.025 216.188 193.884 212.247L190.369 214.157C192.863 218.748 196.392 222.362 200.926 224.969L202.92 221.501ZM193.889 212.256C191.745 208.261 190.651 203.695 190.651 198.508H186.651C186.651 204.276 187.873 209.505 190.364 214.148L193.889 212.256ZM190.651 198.508C190.651 193.224 191.795 188.618 194.029 184.635L190.541 182.677C187.93 187.332 186.651 192.627 186.651 198.508H190.651ZM194.029 184.635C196.28 180.621 199.316 177.545 203.15 175.361L201.17 171.885C196.682 174.441 193.135 178.053 190.541 182.677L194.029 184.635ZM203.14 175.366C207.037 173.174 211.357 172.068 216.143 172.068V168.068C210.711 168.068 205.709 169.332 201.179 171.88L203.14 175.366ZM216.143 172.068C220.095 172.068 223.457 172.55 226.264 173.47L227.509 169.668C224.207 168.587 220.407 168.068 216.143 168.068V172.068ZM226.274 173.473C229.217 174.421 232.041 175.744 234.748 177.448L236.879 174.064C233.898 172.186 230.771 170.719 227.5 169.665L226.274 173.473ZM234.919 177.545C234.92 177.545 234.926 177.548 234.937 177.556C234.949 177.565 234.967 177.58 234.992 177.605C235.042 177.655 235.116 177.744 235.205 177.891L238.635 175.833C238.182 175.078 237.559 174.392 236.708 173.967L234.919 177.545ZM235.205 177.891C235.329 178.098 235.394 178.319 235.394 178.6H239.394C239.394 177.617 239.143 176.68 238.635 175.833L235.205 177.891ZM235.394 178.6C235.394 178.966 235.288 179.221 235.032 179.477L237.86 182.305C238.868 181.297 239.394 180.025 239.394 178.6H235.394ZM234.972 179.54C234.835 179.688 234.618 179.839 234.076 179.839V183.839C235.534 183.839 236.898 183.358 237.92 182.242L234.972 179.54ZM234.076 179.839C233.812 179.839 233.565 179.782 233.311 179.655L231.522 183.233C232.322 183.633 233.181 183.839 234.076 183.839V179.839ZM233.44 179.726C230.839 178.176 228.213 176.999 225.562 176.209L224.42 180.043C226.72 180.728 229.044 181.763 231.393 183.162L233.44 179.726ZM225.562 176.209C222.88 175.41 220 175.02 216.933 175.02V179.02C219.659 179.02 222.151 179.367 224.42 180.043L225.562 176.209ZM216.933 175.02C212.641 175.02 208.709 175.926 205.181 177.777L207.039 181.319C209.936 179.799 213.22 179.02 216.933 179.02V175.02ZM205.181 177.777C201.615 179.647 198.81 182.402 196.784 185.991L200.267 187.957C201.928 185.015 204.179 182.819 207.039 181.319L205.181 177.777ZM196.779 186C194.79 189.569 193.84 193.764 193.84 198.508H197.84C197.84 194.299 198.681 190.804 200.273 187.948L196.779 186ZM193.84 198.508C193.84 202.897 194.742 206.904 196.591 210.485L200.145 208.651C198.623 205.701 197.84 202.335 197.84 198.508H193.84ZM196.609 210.52C198.523 214.059 201.259 216.877 204.777 218.953L206.81 215.509C203.904 213.793 201.688 211.502 200.127 208.616L196.609 210.52ZM204.811 218.973C208.426 221.014 212.622 221.996 217.328 221.996V217.996C213.186 217.996 209.692 217.135 206.777 215.489L204.811 218.973ZM217.328 221.996C222.605 221.996 227.542 220.757 232.107 218.277L230.198 214.763C226.231 216.917 221.952 217.996 217.328 217.996V221.996ZM233.153 216.52V202.221H229.153V216.52H233.153ZM231.153 200.221H218.118V204.221H231.153V200.221ZM218.118 200.221C217.752 200.221 217.497 200.115 217.241 199.859L214.413 202.687C215.42 203.695 216.693 204.221 218.118 204.221V200.221ZM217.241 199.859C216.985 199.603 216.879 199.348 216.879 198.982H212.879C212.879 200.407 213.405 201.679 214.413 202.687L217.241 199.859ZM216.879 198.982C216.879 198.616 216.985 198.361 217.241 198.105L214.413 195.277C213.405 196.285 212.879 197.557 212.879 198.982H216.879ZM217.241 198.105C217.497 197.849 217.752 197.743 218.118 197.743V193.743C216.693 193.743 215.42 194.269 214.413 195.277L217.241 198.105ZM218.118 197.743H233.681V193.743H218.118V197.743ZM233.681 197.743C234.21 197.743 234.595 197.905 234.953 198.263L237.781 195.435C236.664 194.318 235.259 193.743 233.681 193.743V197.743ZM234.953 198.263C235.311 198.621 235.473 199.006 235.473 199.535H239.473C239.473 197.957 238.898 196.551 237.781 195.435L234.953 198.263ZM235.473 199.535V217.468H239.473V199.535H235.473ZM235.473 217.468C235.473 218.204 235.287 218.824 234.925 219.383L238.283 221.557C239.08 220.325 239.473 218.944 239.473 217.468H235.473ZM234.908 219.41C234.584 219.928 234.165 220.299 233.619 220.556L235.322 224.176C236.567 223.59 237.57 222.697 238.3 221.53L234.908 219.41ZM233.576 220.577C227.935 223.398 222.21 224.79 216.38 224.79V228.79C222.874 228.79 229.209 227.233 235.365 224.155L233.576 220.577Z" fill="white"/>
<g filter="url(#filter0_d_0_199)">
<path d="M272 102H192C179.85 102 170 92.1503 170 80V0L272 102Z" fill="url(#paint2_linear_0_199)"/>
</g>
</g>
<defs>
<filter id="filter0_d_0_199" x="147" y="-24" width="152" height="152" filterUnits="userSpaceOnUse" color-interpolation-filters="sRGB">
<feFlood flood-opacity="0" result="BackgroundImageFix"/>
<feColorMatrix in="SourceAlpha" type="matrix" values="0 0 0 0 0 0 0 0 0 0 0 0 0 0 0 0 0 0 127 0" result="hardAlpha"/>
<feOffset dx="2" dy="1"/>
<feGaussianBlur stdDeviation="12.5"/>
<feColorMatrix type="matrix" values="0 0 0 0 0 0 0 0 0 0 0 0 0 0 0 0 0 0 0.33 0"/>
<feBlend mode="normal" in2="BackgroundImageFix" result="effect1_dropShadow_0_199"/>
<feBlend mode="normal" in="SourceGraphic" in2="effect1_dropShadow_0_199" result="shape"/>
</filter>
<linearGradient id="paint0_linear_0_199" x1="136" y1="0" x2="136" y2="308" gradientUnits="userSpaceOnUse">
<stop stop-color="#FF7979"/>
<stop offset="1" stop-color="#E85555"/>
</linearGradient>
<linearGradient id="paint1_linear_0_199" x1="136" y1="0" x2="136" y2="308" gradientUnits="userSpaceOnUse">
<stop stop-color="#9391FC"/>
<stop offset="1" stop-color="#5B59EF"/>
</linearGradient>
<linearGradient id="paint2_linear_0_199" x1="221" y1="0" x2="221" y2="102" gradientUnits="userSpaceOnUse">
<stop stop-color="#7371F1"/>
<stop offset="1" stop-color="#504DE8"/>
</linearGradient>
</defs>
</svg>
