<svg width="272" height="308" viewBox="0 0 272 308" fill="none" xmlns="http://www.w3.org/2000/svg">
<mask id="mask0_0_199" style="mask-type:alpha" maskUnits="userSpaceOnUse" x="0" y="0" width="272" height="308">
<path d="M250 308H22C9.84974 308 0 298.15 0 286V22C0 9.84974 9.84974 0 22 0H170L272 102V286C272 298.15 262.15 308 250 308Z" fill="url(#paint0_linear_0_199)"/>
</mask>
<g mask="url(#mask0_0_199)">
<path d="M250 308H22C9.84974 308 0 298.15 0 286V22C0 9.84974 9.84974 0 22 0H170L272 102V286C272 298.15 262.15 308 250 308Z" fill="url(#paint1_linear_0_199)"/>
<path d="M69.272 226.79C65.4273 226.79 61.925 225.895 58.765 224.104C57.6063 223.419 57.027 222.445 57.027 221.181C57.027 220.338 57.2903 219.601 57.817 218.969C58.3963 218.284 59.1337 217.942 60.029 217.942C60.5557 217.942 61.0297 218.047 61.451 218.258C63.8737 219.417 66.3227 219.996 68.798 219.996C71.642 219.996 73.933 219.18 75.671 217.547C77.4617 215.914 78.357 212.833 78.357 208.304V174.097C78.357 173.096 78.6993 172.254 79.384 171.569C80.0687 170.832 80.9113 170.463 81.912 170.463C82.9127 170.463 83.7553 170.832 84.44 171.569C85.1773 172.254 85.546 173.096 85.546 174.097V207.83C85.546 214.729 83.9923 219.627 80.885 222.524C77.8303 225.368 73.9593 226.79 69.272 226.79ZM109.548 226.395C108.547 226.395 107.704 226.053 107.02 225.368C106.335 224.683 105.993 223.841 105.993 222.84V174.492C105.993 173.491 106.335 172.649 107.02 171.964C107.704 171.227 108.547 170.858 109.548 170.858H127.56C132.563 170.858 136.645 171.701 139.805 173.386C142.965 175.071 145.229 177.231 146.599 179.864C147.968 182.497 148.653 185.341 148.653 188.396C148.653 191.451 147.968 194.295 146.599 196.928C145.229 199.561 142.965 201.721 139.805 203.406C136.645 205.091 132.563 205.934 127.56 205.934H113.182V222.84C113.182 223.841 112.813 224.683 112.076 225.368C111.391 226.053 110.548 226.395 109.548 226.395ZM126.849 199.14C132.221 199.14 135.986 198.113 138.146 196.059C140.358 194.005 141.464 191.451 141.464 188.396C141.464 185.341 140.358 182.787 138.146 180.733C135.986 178.679 132.221 177.652 126.849 177.652H113.182V199.14H126.849ZM189.012 226.79C183.587 226.79 178.768 225.605 174.555 223.235C170.342 220.812 167.076 217.468 164.759 213.202C162.442 208.883 161.283 203.985 161.283 198.508C161.283 192.925 162.494 187.975 164.917 183.656C167.34 179.337 170.631 175.993 174.792 173.623C179.005 171.253 183.666 170.068 188.775 170.068C192.883 170.068 196.464 170.568 199.519 171.569C202.626 172.57 205.602 173.965 208.446 175.756C208.867 175.967 209.236 176.335 209.552 176.862C209.868 177.389 210.026 177.968 210.026 178.6C210.026 179.495 209.71 180.259 209.078 180.891C208.499 181.523 207.709 181.839 206.708 181.839C206.129 181.839 205.576 181.707 205.049 181.444C202.574 179.969 200.098 178.863 197.623 178.126C195.148 177.389 192.462 177.02 189.565 177.02C185.562 177.02 181.955 177.863 178.742 179.548C175.529 181.233 173.001 183.709 171.158 186.974C169.367 190.187 168.472 194.031 168.472 198.508C168.472 202.616 169.315 206.303 171 209.568C172.738 212.781 175.213 215.335 178.426 217.231C181.691 219.074 185.536 219.996 189.96 219.996C194.911 219.996 199.519 218.837 203.785 216.52V202.221H190.75C189.855 202.221 189.091 201.905 188.459 201.273C187.827 200.641 187.511 199.877 187.511 198.982C187.511 198.087 187.827 197.323 188.459 196.691C189.091 196.059 189.855 195.743 190.75 195.743H206.313C207.366 195.743 208.262 196.112 208.999 196.849C209.736 197.586 210.105 198.482 210.105 199.535V217.468C210.105 218.574 209.815 219.575 209.236 220.47C208.709 221.313 207.998 221.945 207.103 222.366C201.204 225.315 195.174 226.79 189.012 226.79Z" fill="white"/>
<path d="M58.765 224.104L57.7475 225.826L57.7632 225.835L57.779 225.844L58.765 224.104ZM57.817 218.969L56.2902 217.677L56.2854 217.683L56.2806 217.689L57.817 218.969ZM61.451 218.258L60.5566 220.047L60.5723 220.055L60.5881 220.062L61.451 218.258ZM75.671 217.547L74.3235 216.069L74.3125 216.079L74.3017 216.089L75.671 217.547ZM79.384 171.569L80.7982 172.983L80.8244 172.957L80.8496 172.93L79.384 171.569ZM84.44 171.569L82.9744 172.93L83.0248 172.984L83.0791 173.035L84.44 171.569ZM80.885 222.524L82.2478 223.988L82.2488 223.987L80.885 222.524ZM69.272 224.79C65.752 224.79 62.5926 223.974 59.751 222.364L57.779 225.844C61.2574 227.815 65.1027 228.79 69.272 228.79V224.79ZM59.7825 222.382C59.1847 222.029 59.027 221.684 59.027 221.181H55.027C55.027 223.206 56.028 224.81 57.7475 225.826L59.7825 222.382ZM59.027 221.181C59.027 220.794 59.1341 220.513 59.3534 220.249L56.2806 217.689C55.4465 218.689 55.027 219.883 55.027 221.181H59.027ZM59.3438 220.261C59.5439 220.024 59.7231 219.942 60.029 219.942V215.942C58.5442 215.942 57.2488 216.544 56.2902 217.677L59.3438 220.261ZM60.029 219.942C60.2822 219.942 60.4443 219.991 60.5566 220.047L62.3454 216.469C61.615 216.104 60.8291 215.942 60.029 215.942V219.942ZM60.5881 220.062C63.2569 221.339 65.9993 221.996 68.798 221.996V217.996C66.6461 217.996 64.4904 217.495 62.3139 216.454L60.5881 220.062ZM68.798 221.996C72.0467 221.996 74.862 221.051 77.0404 219.005L74.3017 216.089C73.004 217.308 71.2373 217.996 68.798 217.996V221.996ZM77.0185 219.025C79.4673 216.792 80.357 212.951 80.357 208.304H76.357C76.357 212.716 75.456 215.036 74.3235 216.069L77.0185 219.025ZM80.357 208.304V174.097H76.357V208.304H80.357ZM80.357 174.097C80.357 173.607 80.5024 173.279 80.7982 172.983L77.9698 170.155C76.8962 171.228 76.357 172.586 76.357 174.097H80.357ZM80.8496 172.93C81.1582 172.598 81.471 172.463 81.912 172.463V168.463C80.3517 168.463 78.9791 169.066 77.9184 170.208L80.8496 172.93ZM81.912 172.463C82.353 172.463 82.6658 172.598 82.9744 172.93L85.9056 170.208C84.8449 169.066 83.4723 168.463 81.912 168.463V172.463ZM83.0791 173.035C83.4115 173.343 83.546 173.656 83.546 174.097H87.546C87.546 172.537 86.9432 171.164 85.8009 170.103L83.0791 173.035ZM83.546 174.097V207.83H87.546V174.097H83.546ZM83.546 207.83C83.546 214.509 82.0299 218.723 79.5212 221.061L82.2488 223.987C85.9548 220.532 87.546 214.949 87.546 207.83H83.546ZM79.5222 221.06C76.8841 223.516 73.5208 224.79 69.272 224.79V228.79C74.3978 228.79 78.7766 227.22 82.2478 223.988L79.5222 221.06ZM107.02 225.368L108.434 223.954L108.434 223.954L107.02 225.368ZM107.02 171.964L108.434 173.378L108.46 173.352L108.485 173.325L107.02 171.964ZM139.805 173.386L140.746 171.621L139.805 173.386ZM146.599 179.864L144.824 180.787L144.824 180.787L146.599 179.864ZM146.599 196.928L144.824 196.005L144.824 196.005L146.599 196.928ZM139.805 203.406L140.746 205.171L139.805 203.406ZM113.182 205.934V203.934H111.182V205.934H113.182ZM112.076 225.368L110.715 223.902L110.688 223.928L110.662 223.954L112.076 225.368ZM138.146 196.059L136.785 194.593L136.776 194.602L136.767 194.61L138.146 196.059ZM138.146 180.733L136.767 182.182L136.776 182.19L136.785 182.199L138.146 180.733ZM113.182 177.652V175.652H111.182V177.652H113.182ZM113.182 199.14H111.182V201.14H113.182V199.14ZM109.548 224.395C109.058 224.395 108.73 224.25 108.434 223.954L105.606 226.782C106.679 227.856 108.037 228.395 109.548 228.395V224.395ZM108.434 223.954C108.138 223.658 107.993 223.33 107.993 222.84H103.993C103.993 224.351 104.532 225.709 105.606 226.782L108.434 223.954ZM107.993 222.84V174.492H103.993V222.84H107.993ZM107.993 174.492C107.993 174.002 108.138 173.674 108.434 173.378L105.606 170.55C104.532 171.623 103.993 172.981 103.993 174.492H107.993ZM108.485 173.325C108.794 172.993 109.107 172.858 109.548 172.858V168.858C107.988 168.858 106.615 169.461 105.554 170.603L108.485 173.325ZM109.548 172.858H127.56V168.858H109.548V172.858ZM127.56 172.858C132.358 172.858 136.085 173.669 138.864 175.151L140.746 171.621C137.204 169.732 132.768 168.858 127.56 168.858V172.858ZM138.864 175.151C141.742 176.686 143.677 178.58 144.824 180.787L148.373 178.941C146.782 175.881 144.188 173.457 140.746 171.621L138.864 175.151ZM144.824 180.787C146.041 183.127 146.653 185.653 146.653 188.396H150.653C150.653 185.03 149.895 181.868 148.373 178.941L144.824 180.787ZM146.653 188.396C146.653 191.139 146.041 193.665 144.824 196.005L148.373 197.851C149.895 194.924 150.653 191.762 150.653 188.396H146.653ZM144.824 196.005C143.677 198.212 141.742 200.106 138.864 201.641L140.746 205.171C144.188 203.335 146.782 200.911 148.373 197.851L144.824 196.005ZM138.864 201.641C136.085 203.123 132.358 203.934 127.56 203.934V207.934C132.768 207.934 137.204 207.06 140.746 205.171L138.864 201.641ZM127.56 203.934H113.182V207.934H127.56V203.934ZM111.182 205.934V222.84H115.182V205.934H111.182ZM111.182 222.84C111.182 223.281 111.047 223.594 110.715 223.902L113.437 226.834C114.579 225.773 115.182 224.4 115.182 222.84H111.182ZM110.662 223.954C110.366 224.25 110.038 224.395 109.548 224.395V228.395C111.059 228.395 112.416 227.856 113.49 226.782L110.662 223.954ZM126.849 201.14C132.361 201.14 136.79 200.109 139.524 197.508L136.767 194.61C135.183 196.117 132.081 197.14 126.849 197.14V201.14ZM139.507 197.525C142.132 195.087 143.464 191.999 143.464 188.396H139.464C139.464 190.902 138.584 192.923 136.785 194.593L139.507 197.525ZM143.464 188.396C143.464 184.793 142.132 181.705 139.507 179.267L136.785 182.199C138.584 183.869 139.464 185.89 139.464 188.396H143.464ZM139.524 179.284C136.79 176.683 132.361 175.652 126.849 175.652V179.652C132.081 179.652 135.183 180.675 136.767 182.182L139.524 179.284ZM126.849 175.652H113.182V179.652H126.849V175.652ZM111.182 177.652V199.14H115.182V177.652H111.182ZM113.182 201.14H126.849V197.14H113.182V201.14ZM174.555 223.235L173.558 224.969L173.566 224.974L173.574 224.978L174.555 223.235ZM164.759 213.202L162.997 214.148L163.001 214.157L164.759 213.202ZM164.917 183.656L166.661 184.635L166.661 184.635L164.917 183.656ZM174.792 173.623L173.811 171.88L173.802 171.885L174.792 173.623ZM199.519 171.569L198.896 173.47L198.906 173.473L199.519 171.569ZM208.446 175.756L207.38 177.448L207.464 177.501L207.552 177.545L208.446 175.756ZM209.552 176.862L207.837 177.891L207.837 177.891L209.552 176.862ZM209.078 180.891L207.664 179.477L207.633 179.508L207.604 179.54L209.078 180.891ZM205.049 181.444L204.025 183.162L204.089 183.2L204.155 183.233L205.049 181.444ZM197.623 178.126L198.194 176.209L198.194 176.209L197.623 178.126ZM178.742 179.548L179.671 181.319L179.671 181.319L178.742 179.548ZM171.158 186.974L169.416 185.991L169.411 186L171.158 186.974ZM171 209.568L169.223 210.485L169.232 210.503L169.241 210.52L171 209.568ZM178.426 217.231L177.409 218.953L177.426 218.963L177.443 218.973L178.426 217.231ZM203.785 216.52L204.74 218.277L205.785 217.71V216.52H203.785ZM203.785 202.221H205.785V200.221H203.785V202.221ZM188.459 201.273L187.045 202.687L188.459 201.273ZM188.459 196.691L187.045 195.277L188.459 196.691ZM209.236 220.47L207.557 219.383L207.548 219.397L207.54 219.41L209.236 220.47ZM207.103 222.366L206.251 220.556L206.23 220.566L206.209 220.577L207.103 222.366ZM189.012 224.79C183.888 224.79 179.414 223.674 175.535 221.492L173.574 224.978C178.122 227.536 183.287 228.79 189.012 228.79V224.79ZM175.552 221.501C171.659 219.263 168.657 216.188 166.516 212.247L163.001 214.157C165.496 218.748 169.024 222.362 173.558 224.969L175.552 221.501ZM166.521 212.256C164.378 208.261 163.283 203.695 163.283 198.508H159.283C159.283 204.276 160.506 209.505 162.997 214.148L166.521 212.256ZM163.283 198.508C163.283 193.224 164.427 188.618 166.661 184.635L163.173 182.677C160.562 187.332 159.283 192.627 159.283 198.508H163.283ZM166.661 184.635C168.912 180.621 171.948 177.545 175.782 175.361L173.802 171.885C169.314 174.441 165.767 178.053 163.173 182.677L166.661 184.635ZM175.772 175.366C179.669 173.174 183.99 172.068 188.775 172.068V168.068C183.343 168.068 178.341 169.332 173.811 171.88L175.772 175.366ZM188.775 172.068C192.727 172.068 196.09 172.55 198.896 173.47L200.142 169.668C196.839 168.587 193.039 168.068 188.775 168.068V172.068ZM198.906 173.473C201.849 174.421 204.674 175.744 207.38 177.448L209.512 174.064C206.53 172.186 203.403 170.719 200.132 169.665L198.906 173.473ZM207.552 177.545C207.552 177.545 207.558 177.548 207.569 177.556C207.581 177.565 207.599 177.58 207.624 177.605C207.675 177.655 207.749 177.744 207.837 177.891L211.267 175.833C210.814 175.078 210.191 174.392 209.34 173.967L207.552 177.545ZM207.837 177.891C207.961 178.098 208.026 178.319 208.026 178.6H212.026C212.026 177.617 211.775 176.68 211.267 175.833L207.837 177.891ZM208.026 178.6C208.026 178.966 207.92 179.221 207.664 179.477L210.492 182.305C211.5 181.297 212.026 180.025 212.026 178.6H208.026ZM207.604 179.54C207.467 179.688 207.251 179.839 206.708 179.839V183.839C208.167 183.839 209.53 183.358 210.552 182.242L207.604 179.54ZM206.708 179.839C206.444 179.839 206.197 179.782 205.943 179.655L204.155 183.233C204.954 183.633 205.813 183.839 206.708 183.839V179.839ZM206.073 179.726C203.471 178.176 200.845 176.999 198.194 176.209L197.052 180.043C199.352 180.728 201.676 181.763 204.025 183.162L206.073 179.726ZM198.194 176.209C195.512 175.41 192.632 175.02 189.565 175.02V179.02C192.291 179.02 194.783 179.367 197.052 180.043L198.194 176.209ZM189.565 175.02C185.273 175.02 181.341 175.926 177.813 177.777L179.671 181.319C182.568 179.799 185.852 179.02 189.565 179.02V175.02ZM177.813 177.777C174.247 179.647 171.442 182.402 169.416 185.991L172.9 187.957C174.56 185.015 176.811 182.819 179.671 181.319L177.813 177.777ZM169.411 186C167.422 189.569 166.472 193.764 166.472 198.508H170.472C170.472 194.299 171.313 190.804 172.905 187.948L169.411 186ZM166.472 198.508C166.472 202.897 167.374 206.904 169.223 210.485L172.777 208.651C171.255 205.701 170.472 202.335 170.472 198.508H166.472ZM169.241 210.52C171.156 214.059 173.891 216.877 177.409 218.953L179.442 215.509C176.536 213.793 174.32 211.502 172.759 208.616L169.241 210.52ZM177.443 218.973C181.058 221.014 185.254 221.996 189.96 221.996V217.996C185.818 217.996 182.325 217.135 179.409 215.489L177.443 218.973ZM189.96 221.996C195.237 221.996 200.175 220.757 204.74 218.277L202.83 214.763C198.863 216.917 194.584 217.996 189.96 217.996V221.996ZM205.785 216.52V202.221H201.785V216.52H205.785ZM203.785 200.221H190.75V204.221H203.785V200.221ZM190.75 200.221C190.384 200.221 190.129 200.115 189.873 199.859L187.045 202.687C188.053 203.695 189.325 204.221 190.75 204.221V200.221ZM189.873 199.859C189.617 199.603 189.511 199.348 189.511 198.982H185.511C185.511 200.407 186.037 201.679 187.045 202.687L189.873 199.859ZM189.511 198.982C189.511 198.616 189.617 198.361 189.873 198.105L187.045 195.277C186.037 196.285 185.511 197.557 185.511 198.982H189.511ZM189.873 198.105C190.129 197.849 190.384 197.743 190.75 197.743V193.743C189.325 193.743 188.053 194.269 187.045 195.277L189.873 198.105ZM190.75 197.743H206.313V193.743H190.75V197.743ZM206.313 197.743C206.842 197.743 207.227 197.905 207.585 198.263L210.413 195.435C209.296 194.318 207.891 193.743 206.313 193.743V197.743ZM207.585 198.263C207.943 198.621 208.105 199.006 208.105 199.535H212.105C212.105 197.957 211.53 196.551 210.413 195.435L207.585 198.263ZM208.105 199.535V217.468H212.105V199.535H208.105ZM208.105 217.468C208.105 218.204 207.919 218.824 207.557 219.383L210.915 221.557C211.712 220.325 212.105 218.944 212.105 217.468H208.105ZM207.54 219.41C207.216 219.928 206.797 220.299 206.251 220.556L207.955 224.176C209.199 223.59 210.203 222.697 210.932 221.53L207.54 219.41ZM206.209 220.577C200.568 223.398 194.842 224.79 189.012 224.79V228.79C195.506 228.79 201.841 227.233 207.997 224.155L206.209 220.577Z" fill="white"/>
<g filter="url(#filter0_d_0_199)">
<path d="M272 102H192C179.85 102 170 92.1503 170 80V0L272 102Z" fill="url(#paint2_linear_0_199)"/>
</g>
</g>
<defs>
<filter id="filter0_d_0_199" x="147" y="-24" width="152" height="152" filterUnits="userSpaceOnUse" color-interpolation-filters="sRGB">
<feFlood flood-opacity="0" result="BackgroundImageFix"/>
<feColorMatrix in="SourceAlpha" type="matrix" values="0 0 0 0 0 0 0 0 0 0 0 0 0 0 0 0 0 0 127 0" result="hardAlpha"/>
<feOffset dx="2" dy="1"/>
<feGaussianBlur stdDeviation="12.5"/>
<feColorMatrix type="matrix" values="0 0 0 0 0 0 0 0 0 0 0 0 0 0 0 0 0 0 0.33 0"/>
<feBlend mode="normal" in2="BackgroundImageFix" result="effect1_dropShadow_0_199"/>
<feBlend mode="normal" in="SourceGraphic" in2="effect1_dropShadow_0_199" result="shape"/>
</filter>
<linearGradient id="paint0_linear_0_199" x1="136" y1="0" x2="136" y2="308" gradientUnits="userSpaceOnUse">
<stop stop-color="#FF7979"/>
<stop offset="1" stop-color="#E85555"/>
</linearGradient>
<linearGradient id="paint1_linear_0_199" x1="136" y1="0" x2="136" y2="308" gradientUnits="userSpaceOnUse">
<stop stop-color="#9391FC"/>
<stop offset="1" stop-color="#5B59EF"/>
</linearGradient>
<linearGradient id="paint2_linear_0_199" x1="221" y1="0" x2="221" y2="102" gradientUnits="userSpaceOnUse">
<stop stop-color="#7371F1"/>
<stop offset="1" stop-color="#504DE8"/>
</linearGradient>
</defs>
</svg>
