<svg width="272" height="308" viewBox="0 0 272 308" fill="none" xmlns="http://www.w3.org/2000/svg">
<mask id="mask0_0_19" style="mask-type:alpha" maskUnits="userSpaceOnUse" x="0" y="0" width="272" height="308">
<path d="M250 308H22C9.84974 308 0 298.15 0 286V22C0 9.84974 9.84974 0 22 0H170L272 102V286C272 298.15 262.15 308 250 308Z" fill="url(#paint0_linear_0_19)"/>
</mask>
<g mask="url(#mask0_0_19)">
<path d="M250 308H22C9.84974 308 0 298.15 0 286V22C0 9.84974 9.84974 0 22 0H170L272 102V286C272 298.15 262.15 308 250 308Z" fill="url(#paint1_linear_0_19)"/>
<path d="M92.218 226.395C91.2173 226.395 90.3747 226.053 89.69 225.368C89.0053 224.683 88.663 223.841 88.663 222.84V174.097C88.663 173.096 89.0053 172.254 89.69 171.569C90.3747 170.832 91.2173 170.463 92.218 170.463C93.2187 170.463 94.0613 170.832 94.746 171.569C95.4833 172.254 95.852 173.096 95.852 174.097V199.219L122.87 171.727C123.607 170.884 124.503 170.463 125.556 170.463C126.451 170.463 127.215 170.779 127.847 171.411C128.532 171.99 128.874 172.728 128.874 173.623C128.874 174.676 128.584 175.493 128.005 176.072L109.756 194.242L130.691 220.628C131.27 221.365 131.56 222.129 131.56 222.919C131.613 223.867 131.297 224.683 130.612 225.368C129.927 226.053 129.085 226.395 128.084 226.395C126.873 226.395 125.925 225.921 125.24 224.973L104.858 198.982L95.852 208.067V222.84C95.852 223.841 95.4833 224.683 94.746 225.368C94.0613 226.053 93.2187 226.395 92.218 226.395ZM163.47 226.395C162.469 226.395 161.626 226.053 160.942 225.368C160.257 224.683 159.915 223.841 159.915 222.84V177.573H143.799C142.851 177.573 142.061 177.257 141.429 176.625C140.797 175.993 140.481 175.203 140.481 174.255C140.481 173.307 140.797 172.517 141.429 171.885C142.061 171.2 142.851 170.858 143.799 170.858H183.141C184.089 170.858 184.879 171.2 185.511 171.885C186.195 172.517 186.538 173.307 186.538 174.255C186.538 175.203 186.195 175.993 185.511 176.625C184.879 177.257 184.089 177.573 183.141 177.573H167.104V222.84C167.104 223.841 166.735 224.683 165.998 225.368C165.313 226.053 164.47 226.395 163.47 226.395Z" fill="white"/>
<path d="M89.69 225.368L91.1042 223.954L91.1042 223.954L89.69 225.368ZM89.69 171.569L91.1042 172.983L91.1304 172.957L91.1556 172.93L89.69 171.569ZM94.746 171.569L93.2804 172.93L93.3308 172.984L93.3851 173.035L94.746 171.569ZM95.852 199.219H93.852V204.107L97.2785 200.621L95.852 199.219ZM122.87 171.727L124.296 173.129L124.337 173.088L124.375 173.044L122.87 171.727ZM127.847 171.411L126.433 172.825L126.492 172.884L126.555 172.938L127.847 171.411ZM128.005 176.072L129.416 177.489L129.419 177.486L128.005 176.072ZM109.756 194.242L108.345 192.825L107.079 194.085L108.189 195.485L109.756 194.242ZM130.691 220.628L132.264 219.392L132.258 219.385L130.691 220.628ZM131.56 222.919H129.56V222.975L129.563 223.03L131.56 222.919ZM130.612 225.368L132.026 226.782L132.026 226.782L130.612 225.368ZM125.24 224.973L126.861 223.802L126.838 223.77L126.814 223.739L125.24 224.973ZM104.858 198.982L106.432 197.748L105.033 195.964L103.438 197.574L104.858 198.982ZM95.852 208.067L94.4316 206.659L93.852 207.244V208.067H95.852ZM94.746 225.368L93.3851 223.902L93.358 223.928L93.3318 223.954L94.746 225.368ZM92.218 224.395C91.7279 224.395 91.4 224.25 91.1042 223.954L88.2758 226.782C89.3493 227.856 90.7067 228.395 92.218 228.395V224.395ZM91.1042 223.954C90.8084 223.658 90.663 223.33 90.663 222.84H86.663C86.663 224.351 87.2022 225.709 88.2758 226.782L91.1042 223.954ZM90.663 222.84V174.097H86.663V222.84H90.663ZM90.663 174.097C90.663 173.607 90.8084 173.279 91.1042 172.983L88.2758 170.155C87.2022 171.228 86.663 172.586 86.663 174.097H90.663ZM91.1556 172.93C91.4642 172.598 91.777 172.463 92.218 172.463V168.463C90.6577 168.463 89.2851 169.066 88.2244 170.208L91.1556 172.93ZM92.218 172.463C92.659 172.463 92.9718 172.598 93.2804 172.93L96.2116 170.208C95.1509 169.066 93.7783 168.463 92.218 168.463V172.463ZM93.3851 173.035C93.7175 173.343 93.852 173.656 93.852 174.097H97.852C97.852 172.537 97.2492 171.164 96.1069 170.103L93.3851 173.035ZM93.852 174.097V199.219H97.852V174.097H93.852ZM97.2785 200.621L124.296 173.129L121.444 170.325L94.4255 197.817L97.2785 200.621ZM124.375 173.044C124.76 172.604 125.119 172.463 125.556 172.463V168.463C123.886 168.463 122.455 169.164 121.365 170.41L124.375 173.044ZM125.556 172.463C125.922 172.463 126.177 172.569 126.433 172.825L129.261 169.997C128.253 168.989 126.981 168.463 125.556 168.463V172.463ZM126.555 172.938C126.792 173.138 126.874 173.317 126.874 173.623H130.874C130.874 172.138 130.272 170.843 129.139 169.884L126.555 172.938ZM126.874 173.623C126.874 174.304 126.696 174.552 126.591 174.658L129.419 177.486C130.473 176.433 130.874 175.048 130.874 173.623H126.874ZM126.594 174.655L108.345 192.825L111.167 195.659L129.416 177.489L126.594 174.655ZM108.189 195.485L129.124 221.871L132.258 219.385L111.323 192.999L108.189 195.485ZM129.118 221.864C129.475 222.317 129.56 222.657 129.56 222.919H133.56C133.56 221.601 133.066 220.414 132.264 219.392L129.118 221.864ZM129.563 223.03C129.583 223.397 129.489 223.662 129.198 223.954L132.026 226.782C133.104 225.704 133.642 224.337 133.557 222.808L129.563 223.03ZM129.198 223.954C128.902 224.25 128.574 224.395 128.084 224.395V228.395C129.595 228.395 130.953 227.856 132.026 226.782L129.198 223.954ZM128.084 224.395C127.488 224.395 127.154 224.208 126.861 223.802L123.619 226.144C124.695 227.634 126.258 228.395 128.084 228.395V224.395ZM126.814 223.739L106.432 197.748L103.284 200.216L123.666 226.207L126.814 223.739ZM103.438 197.574L94.4316 206.659L97.2724 209.475L106.278 200.39L103.438 197.574ZM93.852 208.067V222.84H97.852V208.067H93.852ZM93.852 222.84C93.852 223.281 93.7175 223.594 93.3851 223.902L96.1069 226.834C97.2492 225.773 97.852 224.4 97.852 222.84H93.852ZM93.3318 223.954C93.036 224.25 92.7081 224.395 92.218 224.395V228.395C93.7293 228.395 95.0867 227.856 96.1602 226.782L93.3318 223.954ZM160.942 225.368L159.528 226.782L160.942 225.368ZM159.915 177.573H161.915V175.573H159.915V177.573ZM141.429 176.625L140.015 178.039L140.015 178.039L141.429 176.625ZM141.429 171.885L142.843 173.299L142.871 173.271L142.898 173.242L141.429 171.885ZM185.511 171.885L184.041 173.242L184.095 173.3L184.154 173.355L185.511 171.885ZM185.511 176.625L184.154 175.155L184.125 175.183L184.097 175.211L185.511 176.625ZM167.104 177.573V175.573H165.104V177.573H167.104ZM165.998 225.368L164.637 223.902L164.61 223.928L164.584 223.954L165.998 225.368ZM163.47 224.395C162.98 224.395 162.652 224.25 162.356 223.954L159.528 226.782C160.601 227.856 161.959 228.395 163.47 228.395V224.395ZM162.356 223.954C162.06 223.658 161.915 223.33 161.915 222.84H157.915C157.915 224.351 158.454 225.709 159.528 226.782L162.356 223.954ZM161.915 222.84V177.573H157.915V222.84H161.915ZM159.915 175.573H143.799V179.573H159.915V175.573ZM143.799 175.573C143.346 175.573 143.075 175.443 142.843 175.211L140.015 178.039C141.046 179.071 142.356 179.573 143.799 179.573V175.573ZM142.843 175.211C142.611 174.978 142.481 174.708 142.481 174.255H138.481C138.481 175.698 138.983 177.008 140.015 178.039L142.843 175.211ZM142.481 174.255C142.481 173.802 142.611 173.532 142.843 173.299L140.015 170.471C138.983 171.502 138.481 172.812 138.481 174.255H142.481ZM142.898 173.242C143.144 172.975 143.398 172.858 143.799 172.858V168.858C142.304 168.858 140.977 169.426 139.959 170.528L142.898 173.242ZM143.799 172.858H183.141V168.858H143.799V172.858ZM183.141 172.858C183.542 172.858 183.795 172.975 184.041 173.242L186.98 170.528C185.962 169.426 184.636 168.858 183.141 168.858V172.858ZM184.154 173.355C184.421 173.601 184.538 173.854 184.538 174.255H188.538C188.538 172.76 187.97 171.433 186.867 170.415L184.154 173.355ZM184.538 174.255C184.538 174.656 184.421 174.909 184.154 175.155L186.867 178.095C187.97 177.077 188.538 175.75 188.538 174.255H184.538ZM184.097 175.211C183.864 175.443 183.594 175.573 183.141 175.573V179.573C184.584 179.573 185.893 179.071 186.925 178.039L184.097 175.211ZM183.141 175.573H167.104V179.573H183.141V175.573ZM165.104 177.573V222.84H169.104V177.573H165.104ZM165.104 222.84C165.104 223.281 164.969 223.594 164.637 223.902L167.359 226.834C168.501 225.773 169.104 224.4 169.104 222.84H165.104ZM164.584 223.954C164.288 224.25 163.96 224.395 163.47 224.395V228.395C164.981 228.395 166.339 227.856 167.412 226.782L164.584 223.954Z" fill="white"/>
<g filter="url(#filter0_d_0_19)">
<path d="M272 102H192C179.85 102 170 92.1503 170 80V0L272 102Z" fill="url(#paint2_linear_0_19)"/>
</g>
</g>
<defs>
<filter id="filter0_d_0_19" x="147" y="-24" width="152" height="152" filterUnits="userSpaceOnUse" color-interpolation-filters="sRGB">
<feFlood flood-opacity="0" result="BackgroundImageFix"/>
<feColorMatrix in="SourceAlpha" type="matrix" values="0 0 0 0 0 0 0 0 0 0 0 0 0 0 0 0 0 0 127 0" result="hardAlpha"/>
<feOffset dx="2" dy="1"/>
<feGaussianBlur stdDeviation="12.5"/>
<feColorMatrix type="matrix" values="0 0 0 0 0 0 0 0 0 0 0 0 0 0 0 0 0 0 0.33 0"/>
<feBlend mode="normal" in2="BackgroundImageFix" result="effect1_dropShadow_0_19"/>
<feBlend mode="normal" in="SourceGraphic" in2="effect1_dropShadow_0_19" result="shape"/>
</filter>
<linearGradient id="paint0_linear_0_19" x1="136" y1="0" x2="136" y2="308" gradientUnits="userSpaceOnUse">
<stop stop-color="#FF7979"/>
<stop offset="1" stop-color="#E85555"/>
</linearGradient>
<linearGradient id="paint1_linear_0_19" x1="136" y1="0" x2="136" y2="308" gradientUnits="userSpaceOnUse">
<stop stop-color="#FF7981"/>
<stop offset="1" stop-color="#E85567"/>
</linearGradient>
<linearGradient id="paint2_linear_0_19" x1="221" y1="0" x2="221" y2="102" gradientUnits="userSpaceOnUse">
<stop stop-color="#D03954"/>
<stop offset="1" stop-color="#C02A3C"/>
</linearGradient>
</defs>
</svg>
