<svg width="272" height="308" viewBox="0 0 272 308" fill="none" xmlns="http://www.w3.org/2000/svg">
<mask id="mask0_8_0" style="mask-type:alpha" maskUnits="userSpaceOnUse" x="0" y="0" width="272" height="308">
<path d="M250 308H22C9.84974 308 0 298.15 0 286V22C0 9.84974 9.84974 0 22 0H170L272 102V286C272 298.15 262.15 308 250 308Z" fill="url(#paint0_linear_8_0)"/>
</mask>
<g mask="url(#mask0_8_0)">
<path d="M250 308H22C9.84974 308 0 298.15 0 286V22C0 9.84974 9.84974 0 22 0H170L272 102V286C272 298.15 262.15 308 250 308Z" fill="url(#paint1_linear_8_0)"/>
<g filter="url(#filter0_f_8_0)">
<rect x="48" y="149" width="178" height="84" fill="#CC1583" fill-opacity="0.15" style="mix-blend-mode:darken"/>
</g>
<path d="M76.218 226.395C75.2173 226.395 74.3747 226.053 73.69 225.368C73.0053 224.683 72.663 223.841 72.663 222.84V175.677C72.663 174.255 73.1633 173.044 74.164 172.043C75.1647 170.99 76.376 170.463 77.798 170.463H80.405C81.4583 170.463 82.4063 170.779 83.249 171.411C84.1443 172.043 84.8027 172.833 85.224 173.781L103.157 218.495L121.09 173.781C121.511 172.833 122.143 172.043 122.986 171.411C123.881 170.779 124.856 170.463 125.909 170.463H128.516C129.938 170.463 131.149 170.99 132.15 172.043C133.151 173.044 133.651 174.255 133.651 175.677V222.84C133.651 223.841 133.309 224.683 132.624 225.368C131.939 226.053 131.097 226.395 130.096 226.395C129.095 226.395 128.226 226.053 127.489 225.368C126.804 224.683 126.462 223.841 126.462 222.84V177.968L108.213 223.077C107.792 224.078 107.107 224.894 106.159 225.526C105.264 226.105 104.263 226.395 103.157 226.395C102.051 226.395 101.024 226.105 100.076 225.526C99.1807 224.894 98.5223 224.078 98.101 223.077L79.852 177.968V222.84C79.852 223.841 79.4833 224.683 78.746 225.368C78.0613 226.053 77.2187 226.395 76.218 226.395ZM158.048 226C157.047 226 156.204 225.658 155.52 224.973C154.835 224.288 154.493 223.446 154.493 222.445V174.492C154.493 173.491 154.835 172.649 155.52 171.964C156.204 171.227 157.047 170.858 158.048 170.858H173.927C179.931 170.858 185.013 172.201 189.174 174.887C193.387 177.52 196.547 180.944 198.654 185.157C200.76 189.37 201.814 193.794 201.814 198.429C201.814 203.064 200.76 207.488 198.654 211.701C196.547 215.914 193.387 219.364 189.174 222.05C185.013 224.683 179.931 226 173.927 226H158.048ZM173.058 219.285C177.376 219.285 181.168 218.416 184.434 216.678C187.699 214.887 190.227 212.438 192.018 209.331C193.808 206.171 194.704 202.537 194.704 198.429C194.704 194.321 193.808 190.713 192.018 187.606C190.227 184.446 187.699 181.997 184.434 180.259C181.168 178.468 177.376 177.573 173.058 177.573H161.682V219.285H173.058Z" fill="white"/>
<path d="M73.69 225.368L75.1042 223.954L75.1042 223.954L73.69 225.368ZM74.164 172.043L75.5782 173.457L75.5963 173.439L75.614 173.42L74.164 172.043ZM83.249 171.411L82.049 173.011L82.0721 173.028L82.0956 173.045L83.249 171.411ZM85.224 173.781L87.0803 173.037L87.0666 173.002L87.0516 172.969L85.224 173.781ZM103.157 218.495L101.301 219.239L103.157 223.868L105.013 219.239L103.157 218.495ZM121.09 173.781L119.262 172.969L119.247 173.002L119.234 173.037L121.09 173.781ZM122.986 171.411L121.833 169.777L121.809 169.794L121.786 169.811L122.986 171.411ZM132.15 172.043L130.7 173.42L130.718 173.439L130.736 173.457L132.15 172.043ZM132.624 225.368L134.038 226.782L134.038 226.782L132.624 225.368ZM127.489 225.368L126.075 226.782L126.101 226.808L126.128 226.834L127.489 225.368ZM126.462 177.968H128.462L124.608 177.218L126.462 177.968ZM108.213 223.077L110.056 223.853L110.062 223.84L110.067 223.827L108.213 223.077ZM106.159 225.526L107.246 227.205L107.257 227.198L107.268 227.19L106.159 225.526ZM100.076 225.526L98.9226 227.16L98.9767 227.198L99.0331 227.233L100.076 225.526ZM98.101 223.077L96.247 223.827L96.2523 223.84L96.2577 223.853L98.101 223.077ZM79.852 177.968L81.706 177.218L77.852 177.968H79.852ZM78.746 225.368L77.3851 223.902L77.358 223.928L77.3318 223.954L78.746 225.368ZM76.218 224.395C75.7279 224.395 75.4 224.25 75.1042 223.954L72.2758 226.782C73.3493 227.856 74.7067 228.395 76.218 228.395V224.395ZM75.1042 223.954C74.8084 223.658 74.663 223.33 74.663 222.84H70.663C70.663 224.351 71.2022 225.709 72.2758 226.782L75.1042 223.954ZM74.663 222.84V175.677H70.663V222.84H74.663ZM74.663 175.677C74.663 174.783 74.9547 174.081 75.5782 173.457L72.7498 170.629C71.372 172.007 70.663 173.727 70.663 175.677H74.663ZM75.614 173.42C76.2463 172.755 76.9375 172.463 77.798 172.463V168.463C75.8145 168.463 74.083 169.224 72.714 170.665L75.614 173.42ZM77.798 172.463H80.405V168.463H77.798V172.463ZM80.405 172.463C81.0256 172.463 81.5525 172.639 82.049 173.011L84.449 169.811C83.2601 168.919 81.8911 168.463 80.405 168.463V172.463ZM82.0956 173.045C82.7135 173.481 83.1299 173.994 83.3964 174.593L87.0516 172.969C86.4754 171.672 85.5751 170.605 84.4024 169.777L82.0956 173.045ZM83.3677 174.525L101.301 219.239L105.013 217.751L87.0803 173.037L83.3677 174.525ZM105.013 219.239L122.946 174.525L119.234 173.037L101.301 217.751L105.013 219.239ZM122.918 174.593C123.198 173.962 123.612 173.442 124.186 173.011L121.786 169.811C120.675 170.644 119.825 171.704 119.262 172.969L122.918 174.593ZM124.139 173.045C124.712 172.641 125.286 172.463 125.909 172.463V168.463C124.425 168.463 123.051 168.917 121.833 169.777L124.139 173.045ZM125.909 172.463H128.516V168.463H125.909V172.463ZM128.516 172.463C129.376 172.463 130.068 172.755 130.7 173.42L133.6 170.665C132.231 169.224 130.5 168.463 128.516 168.463V172.463ZM130.736 173.457C131.359 174.081 131.651 174.783 131.651 175.677H135.651C135.651 173.727 134.942 172.007 133.564 170.629L130.736 173.457ZM131.651 175.677V222.84H135.651V175.677H131.651ZM131.651 222.84C131.651 223.33 131.506 223.658 131.21 223.954L134.038 226.782C135.112 225.709 135.651 224.351 135.651 222.84H131.651ZM131.21 223.954C130.914 224.25 130.586 224.395 130.096 224.395V228.395C131.607 228.395 132.965 227.856 134.038 226.782L131.21 223.954ZM130.096 224.395C129.603 224.395 129.22 224.246 128.85 223.902L126.128 226.834C127.233 227.86 128.587 228.395 130.096 228.395V224.395ZM128.903 223.954C128.607 223.658 128.462 223.33 128.462 222.84H124.462C124.462 224.351 125.001 225.709 126.075 226.782L128.903 223.954ZM128.462 222.84V177.968H124.462V222.84H128.462ZM124.608 177.218L106.359 222.327L110.067 223.827L128.316 178.718L124.608 177.218ZM106.37 222.301C106.108 222.922 105.688 223.436 105.05 223.862L107.268 227.19C108.526 226.352 109.475 225.234 110.056 223.853L106.37 222.301ZM105.073 223.847C104.513 224.209 103.893 224.395 103.157 224.395V228.395C104.633 228.395 106.014 228.002 107.246 227.205L105.073 223.847ZM103.157 224.395C102.421 224.395 101.754 224.208 101.119 223.819L99.0331 227.233C100.294 228.003 101.681 228.395 103.157 228.395V224.395ZM101.229 223.892C100.637 223.474 100.219 222.953 99.9443 222.301L96.2577 223.853C96.8257 225.202 97.7247 226.314 98.9226 227.16L101.229 223.892ZM99.955 222.327L81.706 177.218L77.998 178.718L96.247 223.827L99.955 222.327ZM77.852 177.968V222.84H81.852V177.968H77.852ZM77.852 222.84C77.852 223.281 77.7175 223.594 77.3851 223.902L80.1069 226.834C81.2492 225.773 81.852 224.4 81.852 222.84H77.852ZM77.3318 223.954C77.036 224.25 76.7081 224.395 76.218 224.395V228.395C77.7293 228.395 79.0867 227.856 80.1602 226.782L77.3318 223.954ZM155.52 224.973L156.934 223.559L156.934 223.559L155.52 224.973ZM155.52 171.964L156.934 173.378L156.96 173.352L156.985 173.325L155.52 171.964ZM189.174 174.887L188.089 176.567L188.101 176.575L188.114 176.583L189.174 174.887ZM198.654 185.157L196.865 186.051L196.865 186.051L198.654 185.157ZM198.654 211.701L196.865 210.807L196.865 210.807L198.654 211.701ZM189.174 222.05L190.243 223.74L190.249 223.736L189.174 222.05ZM184.434 216.678L185.374 218.443L185.385 218.438L185.395 218.432L184.434 216.678ZM192.018 209.331L193.751 210.33L193.754 210.323L193.758 210.317L192.018 209.331ZM192.018 187.606L190.278 188.592L190.281 188.598L190.285 188.605L192.018 187.606ZM184.434 180.259L183.472 182.013L183.483 182.019L183.494 182.024L184.434 180.259ZM161.682 177.573V175.573H159.682V177.573H161.682ZM161.682 219.285H159.682V221.285H161.682V219.285ZM158.048 224C157.558 224 157.23 223.855 156.934 223.559L154.106 226.387C155.179 227.461 156.537 228 158.048 228V224ZM156.934 223.559C156.638 223.263 156.493 222.935 156.493 222.445H152.493C152.493 223.956 153.032 225.314 154.106 226.387L156.934 223.559ZM156.493 222.445V174.492H152.493V222.445H156.493ZM156.493 174.492C156.493 174.002 156.638 173.674 156.934 173.378L154.106 170.55C153.032 171.623 152.493 172.981 152.493 174.492H156.493ZM156.985 173.325C157.294 172.993 157.607 172.858 158.048 172.858V168.858C156.488 168.858 155.115 169.461 154.054 170.603L156.985 173.325ZM158.048 172.858H173.927V168.858H158.048V172.858ZM173.927 172.858C179.628 172.858 184.315 174.131 188.089 176.567L190.259 173.207C185.712 170.271 180.233 168.858 173.927 168.858V172.858ZM188.114 176.583C192.033 179.032 194.932 182.186 196.865 186.051L200.443 184.263C198.162 179.702 194.741 176.008 190.234 173.191L188.114 176.583ZM196.865 186.051C198.835 189.992 199.814 194.11 199.814 198.429H203.814C203.814 193.479 202.686 188.749 200.443 184.263L196.865 186.051ZM199.814 198.429C199.814 202.748 198.835 206.866 196.865 210.807L200.443 212.595C202.686 208.109 203.814 203.379 203.814 198.429H199.814ZM196.865 210.807C194.93 214.676 192.026 217.86 188.099 220.364L190.249 223.736C194.748 220.868 198.164 217.152 200.443 212.595L196.865 210.807ZM188.104 220.36C184.327 222.75 179.636 224 173.927 224V228C180.226 228 185.699 226.616 190.243 223.74L188.104 220.36ZM173.927 224H158.048V228H173.927V224ZM173.058 221.285C177.649 221.285 181.774 220.359 185.374 218.443L183.494 214.913C180.563 216.473 177.104 217.285 173.058 217.285V221.285ZM185.395 218.432C188.969 216.472 191.77 213.767 193.751 210.33L190.285 208.332C188.685 211.11 186.429 213.303 183.472 214.924L185.395 218.432ZM193.758 210.317C195.74 206.819 196.704 202.837 196.704 198.429H192.704C192.704 202.237 191.877 205.523 190.278 208.345L193.758 210.317ZM196.704 198.429C196.704 194.022 195.74 190.06 193.751 186.607L190.285 188.605C191.876 191.366 192.704 194.62 192.704 198.429H196.704ZM193.758 186.62C191.776 183.123 188.968 180.407 185.374 178.494L183.494 182.024C186.431 183.587 188.678 185.769 190.278 188.592L193.758 186.62ZM185.395 178.505C181.791 176.529 177.659 175.573 173.058 175.573V179.573C177.094 179.573 180.546 180.408 183.472 182.013L185.395 178.505ZM173.058 175.573H161.682V179.573H173.058V175.573ZM159.682 177.573V219.285H163.682V177.573H159.682ZM161.682 221.285H173.058V217.285H161.682V221.285Z" fill="white"/>
<g filter="url(#filter1_d_8_0)">
<path d="M272 102H192C179.85 102 170 92.1503 170 80V0L272 102Z" fill="url(#paint2_linear_8_0)"/>
</g>
</g>
<defs>
<filter id="filter0_f_8_0" x="9" y="110" width="256" height="162" filterUnits="userSpaceOnUse" color-interpolation-filters="sRGB">
<feFlood flood-opacity="0" result="BackgroundImageFix"/>
<feBlend mode="normal" in="SourceGraphic" in2="BackgroundImageFix" result="shape"/>
<feGaussianBlur stdDeviation="19.5" result="effect1_foregroundBlur_8_0"/>
</filter>
<filter id="filter1_d_8_0" x="147" y="-24" width="152" height="152" filterUnits="userSpaceOnUse" color-interpolation-filters="sRGB">
<feFlood flood-opacity="0" result="BackgroundImageFix"/>
<feColorMatrix in="SourceAlpha" type="matrix" values="0 0 0 0 0 0 0 0 0 0 0 0 0 0 0 0 0 0 127 0" result="hardAlpha"/>
<feOffset dx="2" dy="1"/>
<feGaussianBlur stdDeviation="12.5"/>
<feColorMatrix type="matrix" values="0 0 0 0 0 0 0 0 0 0 0 0 0 0 0 0 0 0 0.33 0"/>
<feBlend mode="normal" in2="BackgroundImageFix" result="effect1_dropShadow_8_0"/>
<feBlend mode="normal" in="SourceGraphic" in2="effect1_dropShadow_8_0" result="shape"/>
</filter>
<linearGradient id="paint0_linear_8_0" x1="136" y1="0" x2="136" y2="308" gradientUnits="userSpaceOnUse">
<stop stop-color="#FF7979"/>
<stop offset="1" stop-color="#E85555"/>
</linearGradient>
<linearGradient id="paint1_linear_8_0" x1="136" y1="0" x2="136" y2="308" gradientUnits="userSpaceOnUse">
<stop stop-color="#FF6AC3"/>
<stop offset="1" stop-color="#DD3C9C"/>
</linearGradient>
<linearGradient id="paint2_linear_8_0" x1="221" y1="0" x2="221" y2="102" gradientUnits="userSpaceOnUse">
<stop stop-color="#F430A6"/>
<stop offset="1" stop-color="#BF0B77"/>
</linearGradient>
</defs>
</svg>
