<?xml version="1.0" ?><!DOCTYPE svg  PUBLIC '-//W3C//DTD SVG 1.1//EN'  'http://www.w3.org/Graphics/SVG/1.1/DTD/svg11.dtd'><svg enable-background="new 0 0 53.763 53.763" height="53.763px" id="Layer_1" version="1.1" viewBox="0 0 53.763 53.763" width="53.763px" xml:space="preserve" xmlns="http://www.w3.org/2000/svg" xmlns:xlink="http://www.w3.org/1999/xlink"><circle cx="26.373" cy="26.496" r="26.881"/><g><polygon fill="#FFFFFF" points="4.447,21.377 15.211,13.849 29.511,13.849 19.254,21.377  "/><path d="M14.958,22.186h4.649l3.941-2.678c0,0-2.628,3.891-2.577,7.276C20.972,26.784,19.031,22.9,14.958,22.186z" fill="#FFFFFF"/><g><path d="M12.396,22.31c-0.791,1.628-0.851,3.314-0.851,3.314l0.037,13.109h6.24l-0.037-13.109    c0,0,0.001-0.583,0.288-1.224c-0.901-0.757-2.847-1.684-4.057-2.09H12.396z" fill="#FFFFFF"/><path d="M33.554,17.981c-2.89,0-4.897,0.738-6.29,1.754c-0.579-0.427-1.268-0.805-2.086-1.099l-0.407,0.28    c-0.451,0.728-1.395,2.346-2.155,4.295c1.212,0.816,1.485,2.413,1.485,2.413v13.109h6.24V25.625c0,0,0.001-2.978,3.323-2.879    c2.512,0.073,2.99,2.879,2.99,2.879v13.109h6.241V25.625C42.896,25.625,42.859,17.981,33.554,17.981z" fill="#FFFFFF"/></g></g></svg>