<svg id="svg" version="1.1" xmlns="http://www.w3.org/2000/svg" xmlns:xlink="http://www.w3.org/1999/xlink" width="400" height="400" viewBox="0, 0, 400,400"><g id="svgg"><path id="path0" d="M177.031 48.760 C 168.879 50.033,161.150 58.054,160.480 65.938 C 160.356 67.398,160.153 89.650,160.029 115.385 C 159.905 141.120,159.720 162.259,159.619 162.360 C 159.518 162.461,137.449 162.621,110.577 162.715 L 61.719 162.886 58.594 164.387 C 52.209 167.452,47.714 172.620,46.236 178.594 C 45.737 180.610,45.432 224.232,45.883 229.078 C 46.670 237.541,52.442 244.787,60.625 247.586 L 62.656 248.281 111.310 248.367 L 159.964 248.453 160.076 296.961 C 160.178 341.822,160.227 345.608,160.727 347.315 C 162.658 353.912,168.395 359.715,175.313 362.071 C 178.225 363.063,227.613 362.967,230.781 361.963 C 237.109 359.958,243.264 353.784,244.887 347.813 C 245.672 344.925,245.909 331.408,245.924 288.679 L 245.938 248.453 294.609 248.367 L 343.281 248.281 345.313 247.557 C 351.473 245.361,356.439 240.550,358.993 234.306 C 360.805 229.875,360.869 182.503,359.070 177.188 C 357.141 171.489,352.345 166.510,346.231 163.861 L 343.812 162.813 315.083 162.813 C 299.281 162.812,277.283 162.719,266.197 162.605 L 246.040 162.398 245.816 115.340 C 245.693 89.458,245.481 67.135,245.345 65.733 C 244.551 57.543,236.266 49.481,227.872 48.731 C 224.137 48.397,179.190 48.422,177.031 48.760 " stroke="none" fill="#ececec" fill-rule="evenodd"></path><path id="path1" d="" stroke="none" fill="#f0ecec" fill-rule="evenodd"></path><path id="path2" d="" stroke="none" fill="#f0ecec" fill-rule="evenodd"></path><path id="path3" d="" stroke="none" fill="#f0ecec" fill-rule="evenodd"></path><path id="path4" d="" stroke="none" fill="#f0ecec" fill-rule="evenodd"></path><path id="path5" d="" stroke="none" fill="#f0ecec" fill-rule="evenodd"></path><path id="path6" d="" stroke="none" fill="#f0ecec" fill-rule="evenodd"></path><path id="path7" d="" stroke="none" fill="#f0ecec" fill-rule="evenodd"></path><path id="path8" d="" stroke="none" fill="#f0ecec" fill-rule="evenodd"></path></g></svg>