<?xml version="1.0" standalone="no"?>
<!DOCTYPE svg PUBLIC "-//W3C//DTD SVG 20010904//EN"
 "http://www.w3.org/TR/2001/REC-SVG-20010904/DTD/svg10.dtd">
<svg version="1.0" xmlns="http://www.w3.org/2000/svg"
 width="1024.000000pt" height="1024.000000pt" viewBox="0 0 1024.000000 1024.000000"
 preserveAspectRatio="xMidYMid meet">

<g transform="translate(0.000000,1024.000000) scale(0.100000,-0.100000)"
fill="#000000" stroke="none">
<path d="M4535 8990 c-192 -40 -352 -183 -416 -375 -11 -32 -15 -278 -19
-1290 l-5 -1250 -1255 -5 -1255 -5 -57 -23 c-130 -52 -244 -156 -302 -274 -53
-109 -56 -142 -56 -783 0 -364 4 -615 11 -655 33 -208 224 -401 433 -439 41
-8 451 -11 1273 -11 l1213 0 0 -1228 c0 -1062 2 -1236 15 -1286 47 -181 192
-333 370 -389 69 -22 77 -22 710 -22 634 0 641 0 710 22 132 42 256 146 322
270 65 121 63 64 63 1411 l0 1222 1213 0 c822 0 1232 3 1273 11 181 33 355
186 416 368 22 65 23 75 26 675 2 395 -1 634 -8 680 -28 187 -163 352 -353
429 l-52 22 -1255 5 -1255 5 -5 1250 c-5 1184 -6 1253 -23 1300 -61 164 -182
286 -345 348 -56 21 -67 22 -702 23 -355 1 -663 -1 -685 -6z"/>
</g>
</svg>
