<svg width="272" height="308" viewBox="0 0 272 308" fill="none" xmlns="http://www.w3.org/2000/svg">
<mask id="mask0_0_199" style="mask-type:alpha" maskUnits="userSpaceOnUse" x="0" y="0" width="272" height="308">
<path d="M250 308H22C9.84974 308 0 298.15 0 286V22C0 9.84974 9.84974 0 22 0H170L272 102V286C272 298.15 262.15 308 250 308Z" fill="url(#paint0_linear_0_199)"/>
</mask>
<g mask="url(#mask0_0_199)">
<path d="M250 308H22C9.84974 308 0 298.15 0 286V22C0 9.84974 9.84974 0 22 0H170L272 102V286C272 298.15 262.15 308 250 308Z" fill="url(#paint1_linear_0_199)"/>
<path d="M53.218 226.395C52.2173 226.395 51.3747 226.053 50.69 225.368C50.0053 224.683 49.663 223.841 49.663 222.84V174.492C49.663 173.491 50.0053 172.649 50.69 171.964C51.3747 171.227 52.2173 170.858 53.218 170.858H71.23C76.2333 170.858 80.315 171.701 83.475 173.386C86.635 175.071 88.8997 177.231 90.269 179.864C91.6383 182.497 92.323 185.341 92.323 188.396C92.323 191.451 91.6383 194.295 90.269 196.928C88.8997 199.561 86.635 201.721 83.475 203.406C80.315 205.091 76.2333 205.934 71.23 205.934H56.852V222.84C56.852 223.841 56.4833 224.683 55.746 225.368C55.0613 226.053 54.2187 226.395 53.218 226.395ZM70.519 199.14C75.891 199.14 79.6567 198.113 81.816 196.059C84.028 194.005 85.134 191.451 85.134 188.396C85.134 185.341 84.028 182.787 81.816 180.733C79.6567 178.679 75.891 177.652 70.519 177.652H56.852V199.14H70.519ZM111.826 226.395C110.825 226.395 109.983 226.053 109.298 225.368C108.613 224.683 108.271 223.841 108.271 222.84V175.677C108.271 174.255 108.771 173.044 109.772 172.043C110.773 170.99 111.984 170.463 113.406 170.463H114.433C116.118 170.463 117.567 171.253 118.778 172.833L149.193 216.757V174.097C149.193 173.096 149.535 172.254 150.22 171.569C150.905 170.832 151.747 170.463 152.748 170.463C153.749 170.463 154.591 170.832 155.276 171.569C156.013 172.254 156.382 173.096 156.382 174.097V221.26C156.382 222.682 155.855 223.893 154.802 224.894C153.801 225.895 152.59 226.395 151.168 226.395H150.22C149.377 226.395 148.587 226.211 147.85 225.842C147.113 225.421 146.507 224.894 146.033 224.262L115.46 180.101V222.84C115.46 223.841 115.091 224.683 114.354 225.368C113.669 226.053 112.827 226.395 111.826 226.395ZM201.628 226.79C196.203 226.79 191.384 225.605 187.171 223.235C182.958 220.812 179.692 217.468 177.375 213.202C175.058 208.883 173.899 203.985 173.899 198.508C173.899 192.925 175.11 187.975 177.533 183.656C179.956 179.337 183.247 175.993 187.408 173.623C191.621 171.253 196.282 170.068 201.391 170.068C205.499 170.068 209.08 170.568 212.135 171.569C215.242 172.57 218.218 173.965 221.062 175.756C221.483 175.967 221.852 176.335 222.168 176.862C222.484 177.389 222.642 177.968 222.642 178.6C222.642 179.495 222.326 180.259 221.694 180.891C221.115 181.523 220.325 181.839 219.324 181.839C218.745 181.839 218.192 181.707 217.665 181.444C215.19 179.969 212.714 178.863 210.239 178.126C207.764 177.389 205.078 177.02 202.181 177.02C198.178 177.02 194.571 177.863 191.358 179.548C188.145 181.233 185.617 183.709 183.774 186.974C181.983 190.187 181.088 194.031 181.088 198.508C181.088 202.616 181.931 206.303 183.616 209.568C185.354 212.781 187.829 215.335 191.042 217.231C194.307 219.074 198.152 219.996 202.576 219.996C207.527 219.996 212.135 218.837 216.401 216.52V202.221H203.366C202.471 202.221 201.707 201.905 201.075 201.273C200.443 200.641 200.127 199.877 200.127 198.982C200.127 198.087 200.443 197.323 201.075 196.691C201.707 196.059 202.471 195.743 203.366 195.743H218.929C219.982 195.743 220.878 196.112 221.615 196.849C222.352 197.586 222.721 198.482 222.721 199.535V217.468C222.721 218.574 222.431 219.575 221.852 220.47C221.325 221.313 220.614 221.945 219.719 222.366C213.82 225.315 207.79 226.79 201.628 226.79Z" fill="white"/>
<path d="M50.69 225.368L52.1042 223.954L52.1042 223.954L50.69 225.368ZM50.69 171.964L52.1042 173.378L52.1304 173.352L52.1556 173.325L50.69 171.964ZM83.475 173.386L84.4162 171.621L83.475 173.386ZM90.269 179.864L88.4946 180.787L88.4946 180.787L90.269 179.864ZM90.269 196.928L88.4946 196.005L88.4946 196.005L90.269 196.928ZM83.475 203.406L84.4162 205.171L83.475 203.406ZM56.852 205.934V203.934H54.852V205.934H56.852ZM55.746 225.368L54.3851 223.902L54.358 223.928L54.3318 223.954L55.746 225.368ZM81.816 196.059L80.4551 194.593L80.4463 194.602L80.4376 194.61L81.816 196.059ZM81.816 180.733L80.4376 182.182L80.4463 182.19L80.4551 182.199L81.816 180.733ZM56.852 177.652V175.652H54.852V177.652H56.852ZM56.852 199.14H54.852V201.14H56.852V199.14ZM53.218 224.395C52.7279 224.395 52.4 224.25 52.1042 223.954L49.2758 226.782C50.3493 227.856 51.7067 228.395 53.218 228.395V224.395ZM52.1042 223.954C51.8084 223.658 51.663 223.33 51.663 222.84H47.663C47.663 224.351 48.2022 225.709 49.2758 226.782L52.1042 223.954ZM51.663 222.84V174.492H47.663V222.84H51.663ZM51.663 174.492C51.663 174.002 51.8084 173.674 52.1042 173.378L49.2758 170.55C48.2023 171.623 47.663 172.981 47.663 174.492H51.663ZM52.1556 173.325C52.4642 172.993 52.777 172.858 53.218 172.858V168.858C51.6577 168.858 50.2851 169.461 49.2244 170.603L52.1556 173.325ZM53.218 172.858H71.23V168.858H53.218V172.858ZM71.23 172.858C76.0282 172.858 79.7555 173.669 82.5338 175.151L84.4162 171.621C80.8745 169.732 76.4385 168.858 71.23 168.858V172.858ZM82.5338 175.151C85.4123 176.686 87.3472 178.58 88.4946 180.787L92.0434 178.941C90.4521 175.881 87.8578 173.457 84.4162 171.621L82.5338 175.151ZM88.4946 180.787C89.7113 183.127 90.323 185.653 90.323 188.396H94.323C94.323 185.03 93.5654 181.868 92.0434 178.941L88.4946 180.787ZM90.323 188.396C90.323 191.139 89.7113 193.665 88.4946 196.005L92.0434 197.851C93.5654 194.924 94.323 191.762 94.323 188.396H90.323ZM88.4946 196.005C87.3472 198.212 85.4123 200.106 82.5338 201.641L84.4162 205.171C87.8578 203.335 90.4521 200.911 92.0434 197.851L88.4946 196.005ZM82.5338 201.641C79.7555 203.123 76.0282 203.934 71.23 203.934V207.934C76.4385 207.934 80.8745 207.06 84.4162 205.171L82.5338 201.641ZM71.23 203.934H56.852V207.934H71.23V203.934ZM54.852 205.934V222.84H58.852V205.934H54.852ZM54.852 222.84C54.852 223.281 54.7175 223.594 54.3851 223.902L57.1069 226.834C58.2492 225.773 58.852 224.4 58.852 222.84H54.852ZM54.3318 223.954C54.036 224.25 53.7081 224.395 53.218 224.395V228.395C54.7293 228.395 56.0867 227.856 57.1602 226.782L54.3318 223.954ZM70.519 201.14C76.031 201.14 80.4605 200.109 83.1944 197.508L80.4376 194.61C78.8529 196.117 75.751 197.14 70.519 197.14V201.14ZM83.1769 197.525C85.8019 195.087 87.134 191.999 87.134 188.396H83.134C83.134 190.902 82.2541 192.923 80.4551 194.593L83.1769 197.525ZM87.134 188.396C87.134 184.793 85.8019 181.705 83.1769 179.267L80.4551 182.199C82.2541 183.869 83.134 185.89 83.134 188.396H87.134ZM83.1944 179.284C80.4605 176.683 76.031 175.652 70.519 175.652V179.652C75.751 179.652 78.8529 180.675 80.4376 182.182L83.1944 179.284ZM70.519 175.652H56.852V179.652H70.519V175.652ZM54.852 177.652V199.14H58.852V177.652H54.852ZM56.852 201.14H70.519V197.14H56.852V201.14ZM109.298 225.368L110.712 223.954L110.712 223.954L109.298 225.368ZM109.772 172.043L111.186 173.457L111.204 173.439L111.222 173.42L109.772 172.043ZM118.778 172.833L120.422 171.694L120.395 171.655L120.365 171.616L118.778 172.833ZM149.193 216.757L147.549 217.896L151.193 223.158V216.757H149.193ZM150.22 171.569L151.634 172.983L151.661 172.957L151.686 172.93L150.22 171.569ZM155.276 171.569L153.811 172.93L153.861 172.984L153.915 173.035L155.276 171.569ZM154.802 224.894L153.425 223.444L153.406 223.462L153.388 223.48L154.802 224.894ZM147.85 225.842L146.858 227.578L146.906 227.606L146.956 227.631L147.85 225.842ZM146.033 224.262L144.389 225.4L144.41 225.432L144.433 225.462L146.033 224.262ZM115.46 180.101L117.105 178.963L113.46 173.698V180.101H115.46ZM114.354 225.368L112.993 223.902L112.966 223.928L112.94 223.954L114.354 225.368ZM111.826 224.395C111.336 224.395 111.008 224.25 110.712 223.954L107.884 226.782C108.957 227.856 110.315 228.395 111.826 228.395V224.395ZM110.712 223.954C110.417 223.658 110.271 223.33 110.271 222.84H106.271C106.271 224.351 106.81 225.709 107.884 226.782L110.712 223.954ZM110.271 222.84V175.677H106.271V222.84H110.271ZM110.271 175.677C110.271 174.783 110.563 174.081 111.186 173.457L108.358 170.629C106.98 172.007 106.271 173.727 106.271 175.677H110.271ZM111.222 173.42C111.854 172.755 112.546 172.463 113.406 172.463V168.463C111.423 168.463 109.691 169.224 108.322 170.665L111.222 173.42ZM113.406 172.463H114.433V168.463H113.406V172.463ZM114.433 172.463C115.38 172.463 116.281 172.863 117.191 174.05L120.365 171.616C118.853 169.643 116.857 168.463 114.433 168.463V172.463ZM117.134 173.972L147.549 217.896L150.837 215.618L120.422 171.694L117.134 173.972ZM151.193 216.757V174.097H147.193V216.757H151.193ZM151.193 174.097C151.193 173.607 151.339 173.279 151.634 172.983L148.806 170.155C147.732 171.228 147.193 172.586 147.193 174.097H151.193ZM151.686 172.93C151.994 172.598 152.307 172.463 152.748 172.463V168.463C151.188 168.463 149.815 169.066 148.755 170.208L151.686 172.93ZM152.748 172.463C153.189 172.463 153.502 172.598 153.811 172.93L156.742 170.208C155.681 169.066 154.308 168.463 152.748 168.463V172.463ZM153.915 173.035C154.248 173.343 154.382 173.656 154.382 174.097H158.382C158.382 172.537 157.779 171.164 156.637 170.103L153.915 173.035ZM154.382 174.097V221.26H158.382V174.097H154.382ZM154.382 221.26C154.382 222.12 154.09 222.812 153.425 223.444L156.18 226.344C157.621 224.975 158.382 223.244 158.382 221.26H154.382ZM153.388 223.48C152.764 224.103 152.063 224.395 151.168 224.395V228.395C153.118 228.395 154.839 227.686 156.216 226.308L153.388 223.48ZM151.168 224.395H150.22V228.395H151.168V224.395ZM150.22 224.395C149.681 224.395 149.198 224.28 148.745 224.053L146.956 227.631C147.977 228.142 149.074 228.395 150.22 228.395V224.395ZM148.842 224.106C148.324 223.809 147.931 223.46 147.633 223.062L144.433 225.462C145.083 226.328 145.901 227.032 146.858 227.578L148.842 224.106ZM147.678 223.124L117.105 178.963L113.816 181.239L144.389 225.4L147.678 223.124ZM113.46 180.101V222.84H117.46V180.101H113.46ZM113.46 222.84C113.46 223.281 113.326 223.594 112.993 223.902L115.715 226.834C116.857 225.773 117.46 224.4 117.46 222.84H113.46ZM112.94 223.954C112.644 224.25 112.316 224.395 111.826 224.395V228.395C113.337 228.395 114.695 227.856 115.768 226.782L112.94 223.954ZM187.171 223.235L186.174 224.969L186.182 224.974L186.191 224.978L187.171 223.235ZM177.375 213.202L175.613 214.148L175.618 214.157L177.375 213.202ZM177.533 183.656L179.277 184.635L179.277 184.635L177.533 183.656ZM187.408 173.623L186.428 171.88L186.418 171.885L187.408 173.623ZM212.135 171.569L211.513 173.47L211.522 173.473L212.135 171.569ZM221.062 175.756L219.997 177.448L220.08 177.501L220.168 177.545L221.062 175.756ZM222.168 176.862L220.453 177.891L220.453 177.891L222.168 176.862ZM221.694 180.891L220.28 179.477L220.249 179.508L220.22 179.54L221.694 180.891ZM217.665 181.444L216.642 183.162L216.705 183.2L216.771 183.233L217.665 181.444ZM210.239 178.126L210.81 176.209L210.81 176.209L210.239 178.126ZM191.358 179.548L192.287 181.319L192.287 181.319L191.358 179.548ZM183.774 186.974L182.032 185.991L182.027 186L183.774 186.974ZM183.616 209.568L181.839 210.485L181.848 210.503L181.857 210.52L183.616 209.568ZM191.042 217.231L190.026 218.953L190.042 218.963L190.059 218.973L191.042 217.231ZM216.401 216.52L217.356 218.277L218.401 217.71V216.52H216.401ZM216.401 202.221H218.401V200.221H216.401V202.221ZM201.075 201.273L199.661 202.687L201.075 201.273ZM201.075 196.691L199.661 195.277L201.075 196.691ZM221.852 220.47L220.173 219.383L220.164 219.397L220.156 219.41L221.852 220.47ZM219.719 222.366L218.868 220.556L218.846 220.566L218.825 220.577L219.719 222.366ZM201.628 224.79C196.504 224.79 192.03 223.674 188.152 221.492L186.191 224.978C190.738 227.536 195.903 228.79 201.628 228.79V224.79ZM188.168 221.501C184.275 219.263 181.273 216.188 179.133 212.247L175.618 214.157C178.112 218.748 181.641 222.362 186.174 224.969L188.168 221.501ZM179.137 212.256C176.994 208.261 175.899 203.695 175.899 198.508H171.899C171.899 204.276 173.122 209.505 175.613 214.148L179.137 212.256ZM175.899 198.508C175.899 193.224 177.043 188.618 179.277 184.635L175.789 182.677C173.178 187.332 171.899 192.627 171.899 198.508H175.899ZM179.277 184.635C181.529 180.621 184.564 177.545 188.398 175.361L186.418 171.885C181.931 174.441 178.383 178.053 175.789 182.677L179.277 184.635ZM188.389 175.366C192.285 173.174 196.606 172.068 201.391 172.068V168.068C195.959 168.068 190.957 169.332 186.428 171.88L188.389 175.366ZM201.391 172.068C205.343 172.068 208.706 172.55 211.513 173.47L212.758 169.668C209.455 168.587 205.655 168.068 201.391 168.068V172.068ZM211.522 173.473C214.466 174.421 217.29 175.744 219.997 177.448L222.128 174.064C219.147 172.186 216.019 170.719 212.748 169.665L211.522 173.473ZM220.168 177.545C220.168 177.545 220.174 177.548 220.186 177.556C220.197 177.565 220.216 177.58 220.24 177.605C220.291 177.655 220.365 177.744 220.453 177.891L223.883 175.833C223.43 175.078 222.807 174.392 221.957 173.967L220.168 177.545ZM220.453 177.891C220.577 178.098 220.642 178.319 220.642 178.6H224.642C224.642 177.617 224.391 176.68 223.883 175.833L220.453 177.891ZM220.642 178.6C220.642 178.966 220.536 179.221 220.28 179.477L223.108 182.305C224.116 181.297 224.642 180.025 224.642 178.6H220.642ZM220.22 179.54C220.084 179.688 219.867 179.839 219.324 179.839V183.839C220.783 183.839 222.146 183.358 223.168 182.242L220.22 179.54ZM219.324 179.839C219.061 179.839 218.813 179.782 218.56 179.655L216.771 183.233C217.57 183.633 218.429 183.839 219.324 183.839V179.839ZM218.689 179.726C216.087 178.176 213.461 176.999 210.81 176.209L209.668 180.043C211.968 180.728 214.292 181.763 216.642 183.162L218.689 179.726ZM210.81 176.209C208.129 175.41 205.248 175.02 202.181 175.02V179.02C204.908 179.02 207.399 179.367 209.668 180.043L210.81 176.209ZM202.181 175.02C197.889 175.02 193.957 175.926 190.429 177.777L192.287 181.319C195.185 179.799 198.468 179.02 202.181 179.02V175.02ZM190.429 177.777C186.863 179.647 184.058 182.402 182.032 185.991L185.516 187.957C187.176 185.015 189.428 182.819 192.287 181.319L190.429 177.777ZM182.027 186C180.038 189.569 179.088 193.764 179.088 198.508H183.088C183.088 194.299 183.929 190.804 185.521 187.948L182.027 186ZM179.088 198.508C179.088 202.897 179.991 206.904 181.839 210.485L185.393 208.651C183.871 205.701 183.088 202.335 183.088 198.508H179.088ZM181.857 210.52C183.772 214.059 186.507 216.877 190.026 218.953L192.059 215.509C189.152 213.793 186.936 211.502 185.375 208.616L181.857 210.52ZM190.059 218.973C193.674 221.014 197.87 221.996 202.576 221.996V217.996C198.434 217.996 194.941 217.135 192.025 215.489L190.059 218.973ZM202.576 221.996C207.853 221.996 212.791 220.757 217.356 218.277L215.446 214.763C211.479 216.917 207.2 217.996 202.576 217.996V221.996ZM218.401 216.52V202.221H214.401V216.52H218.401ZM216.401 200.221H203.366V204.221H216.401V200.221ZM203.366 200.221C203 200.221 202.746 200.115 202.489 199.859L199.661 202.687C200.669 203.695 201.941 204.221 203.366 204.221V200.221ZM202.489 199.859C202.233 199.603 202.127 199.348 202.127 198.982H198.127C198.127 200.407 198.653 201.679 199.661 202.687L202.489 199.859ZM202.127 198.982C202.127 198.616 202.233 198.361 202.489 198.105L199.661 195.277C198.653 196.285 198.127 197.557 198.127 198.982H202.127ZM202.489 198.105C202.746 197.849 203 197.743 203.366 197.743V193.743C201.941 193.743 200.669 194.269 199.661 195.277L202.489 198.105ZM203.366 197.743H218.929V193.743H203.366V197.743ZM218.929 197.743C219.458 197.743 219.843 197.905 220.201 198.263L223.029 195.435C221.913 194.318 220.507 193.743 218.929 193.743V197.743ZM220.201 198.263C220.559 198.621 220.721 199.006 220.721 199.535H224.721C224.721 197.957 224.146 196.551 223.029 195.435L220.201 198.263ZM220.721 199.535V217.468H224.721V199.535H220.721ZM220.721 217.468C220.721 218.204 220.535 218.824 220.173 219.383L223.531 221.557C224.328 220.325 224.721 218.944 224.721 217.468H220.721ZM220.156 219.41C219.832 219.928 219.414 220.299 218.868 220.556L220.571 224.176C221.815 223.59 222.819 222.697 223.548 221.53L220.156 219.41ZM218.825 220.577C213.184 223.398 207.458 224.79 201.628 224.79V228.79C208.122 228.79 214.457 227.233 220.614 224.155L218.825 220.577Z" fill="white"/>
<g filter="url(#filter0_d_0_199)">
<path d="M272 102H192C179.85 102 170 92.1503 170 80V0L272 102Z" fill="url(#paint2_linear_0_199)"/>
</g>
</g>
<defs>
<filter id="filter0_d_0_199" x="147" y="-24" width="152" height="152" filterUnits="userSpaceOnUse" color-interpolation-filters="sRGB">
<feFlood flood-opacity="0" result="BackgroundImageFix"/>
<feColorMatrix in="SourceAlpha" type="matrix" values="0 0 0 0 0 0 0 0 0 0 0 0 0 0 0 0 0 0 127 0" result="hardAlpha"/>
<feOffset dx="2" dy="1"/>
<feGaussianBlur stdDeviation="12.5"/>
<feColorMatrix type="matrix" values="0 0 0 0 0 0 0 0 0 0 0 0 0 0 0 0 0 0 0.33 0"/>
<feBlend mode="normal" in2="BackgroundImageFix" result="effect1_dropShadow_0_199"/>
<feBlend mode="normal" in="SourceGraphic" in2="effect1_dropShadow_0_199" result="shape"/>
</filter>
<linearGradient id="paint0_linear_0_199" x1="136" y1="0" x2="136" y2="308" gradientUnits="userSpaceOnUse">
<stop stop-color="#FF7979"/>
<stop offset="1" stop-color="#E85555"/>
</linearGradient>
<linearGradient id="paint1_linear_0_199" x1="136" y1="0" x2="136" y2="308" gradientUnits="userSpaceOnUse">
<stop stop-color="#9391FC"/>
<stop offset="1" stop-color="#5B59EF"/>
</linearGradient>
<linearGradient id="paint2_linear_0_199" x1="221" y1="0" x2="221" y2="102" gradientUnits="userSpaceOnUse">
<stop stop-color="#7371F1"/>
<stop offset="1" stop-color="#504DE8"/>
</linearGradient>
</defs>
</svg>
