<svg viewBox="0 0 448 512" height="170" fill="#828282" opacity="0.2" width="170" xmlns="http://www.w3.org/2000/svg"><path d="M384 31.1H64c-35.35 0-64 28.65-64 63.1v320c0 35.35 28.65 64 64 64h320c35.35 0 64-28.65 64-64v-320c0-33.55-28.7-63.1-64-63.1zM160 368c0 8.9-7.1 16-16 16h-32c-8.9 0-16-7.1-16-16V240c0-8.9 7.1-16 16-16h32c8.9 0 16 7.1 16 16v128zm96 0c0 8.875-7.125 16-16 16h-32c-8.9 0-16-7.1-16-16V144c0-8.875 7.125-16 16-16h32c8.875 0 16 7.125 16 16v224zm96 0c0 8.875-7.125 16-16 16h-32c-8.875 0-16-7.125-16-16v-64c0-8.9 7.1-16 16-16h32c8.9 0 16 7.1 16 16v64z" fill="#828282" class="fill-000000"></path></svg>