<svg width="272" height="308" viewBox="0 0 272 308" fill="none" xmlns="http://www.w3.org/2000/svg">
<mask id="mask0_0_66" style="mask-type:alpha" maskUnits="userSpaceOnUse" x="0" y="0" width="272" height="308">
<path d="M250 308H22C9.84974 308 0 298.15 0 286V22C0 9.84974 9.84974 0 22 0H170L272 102V286C272 298.15 262.15 308 250 308Z" fill="url(#paint0_linear_0_66)"/>
</mask>
<g mask="url(#mask0_0_66)">
<path d="M250 308H22C9.84974 308 0 298.15 0 286V22C0 9.84974 9.84974 0 22 0H170L272 102V286C272 298.15 262.15 308 250 308Z" fill="url(#paint1_linear_0_66)"/>
<g opacity="0.26" filter="url(#filter0_f_0_66)">
<rect x="48" y="149" width="178" height="84" fill="#E66000" style="mix-blend-mode:darken"/>
</g>
<path d="M34.3854 217.395C33.3847 217.395 32.5421 217.053 31.8574 216.368C31.1727 215.683 30.8304 214.841 30.8304 213.84V165.492C30.8304 164.491 31.1727 163.649 31.8574 162.964C32.5421 162.227 33.3847 161.858 34.3854 161.858H52.3974C57.4007 161.858 61.4824 162.701 64.6424 164.386C67.8024 166.071 70.0671 168.231 71.4364 170.864C72.8057 173.497 73.4904 176.341 73.4904 179.396C73.4904 182.451 72.8057 185.295 71.4364 187.928C70.0671 190.561 67.8024 192.721 64.6424 194.406C61.4824 196.091 57.4007 196.934 52.3974 196.934H38.0194V213.84C38.0194 214.841 37.6507 215.683 36.9134 216.368C36.2287 217.053 35.3861 217.395 34.3854 217.395ZM51.6864 190.14C57.0584 190.14 60.8241 189.113 62.9834 187.059C65.1954 185.005 66.3014 182.451 66.3014 179.396C66.3014 176.341 65.1954 173.787 62.9834 171.733C60.8241 169.679 57.0584 168.652 51.6864 168.652H38.0194V190.14H51.6864ZM92.9935 217.395C91.9929 217.395 91.1502 217.053 90.4655 216.368C89.7809 215.683 89.4385 214.841 89.4385 213.84V165.492C89.4385 164.491 89.7809 163.649 90.4655 162.964C91.1502 162.227 91.9929 161.858 92.9935 161.858H111.006C116.009 161.858 120.091 162.701 123.251 164.386C126.411 166.071 128.675 168.231 130.045 170.864C131.414 173.497 132.099 176.341 132.099 179.396C132.099 182.451 131.414 185.295 130.045 187.928C128.675 190.561 126.411 192.721 123.251 194.406C120.091 196.091 116.009 196.934 111.006 196.934H96.6275V213.84C96.6275 214.841 96.2589 215.683 95.5215 216.368C94.8369 217.053 93.9942 217.395 92.9935 217.395ZM110.295 190.14C115.667 190.14 119.432 189.113 121.592 187.059C123.804 185.005 124.91 182.451 124.91 179.396C124.91 176.341 123.804 173.787 121.592 171.733C119.432 169.679 115.667 168.652 110.295 168.652H96.6275V190.14H110.295ZM164.4 217.395C163.399 217.395 162.556 217.053 161.872 216.368C161.187 215.683 160.845 214.841 160.845 213.84V168.573H144.729C143.781 168.573 142.991 168.257 142.359 167.625C141.727 166.993 141.411 166.203 141.411 165.255C141.411 164.307 141.727 163.517 142.359 162.885C142.991 162.2 143.781 161.858 144.729 161.858H184.071C185.019 161.858 185.809 162.2 186.441 162.885C187.125 163.517 187.468 164.307 187.468 165.255C187.468 166.203 187.125 166.993 186.441 167.625C185.809 168.257 185.019 168.573 184.071 168.573H168.034V213.84C168.034 214.841 167.665 215.683 166.928 216.368C166.243 217.053 165.4 217.395 164.4 217.395ZM203.626 217.395C202.73 217.395 201.94 217.079 201.256 216.447C200.624 215.762 200.308 214.972 200.308 214.077C200.308 213.234 200.545 212.497 201.019 211.865L219.268 189.429L201.177 167.151C200.703 166.519 200.466 165.782 200.466 164.939C200.466 163.938 200.782 163.122 201.414 162.49C202.098 161.805 202.941 161.463 203.942 161.463C204.521 161.463 205.074 161.595 205.601 161.858C206.127 162.121 206.549 162.464 206.865 162.885L223.534 184.057L240.203 162.727C240.782 161.884 241.651 161.463 242.81 161.463C243.758 161.463 244.574 161.805 245.259 162.49C245.943 163.122 246.286 163.912 246.286 164.86C246.286 165.597 246.075 166.256 245.654 166.835L227.405 189.35L245.654 211.786C246.128 212.313 246.365 212.997 246.365 213.84C246.365 214.841 246.022 215.683 245.338 216.368C244.706 217.053 243.863 217.395 242.81 217.395C241.651 217.395 240.703 216.895 239.966 215.894L223.06 194.643L206.391 215.973C205.601 216.921 204.679 217.395 203.626 217.395Z" fill="white"/>
<path d="M31.8574 216.368L33.2716 214.954L33.2716 214.954L31.8574 216.368ZM31.8574 162.964L33.2716 164.378L33.2978 164.352L33.323 164.325L31.8574 162.964ZM64.6424 164.386L65.5836 162.621L64.6424 164.386ZM71.4364 170.864L69.662 171.787L69.662 171.787L71.4364 170.864ZM71.4364 187.928L69.662 187.005L69.662 187.005L71.4364 187.928ZM64.6424 194.406L65.5836 196.171L64.6424 194.406ZM38.0194 196.934V194.934H36.0194V196.934H38.0194ZM36.9134 216.368L35.5525 214.902L35.5254 214.928L35.4992 214.954L36.9134 216.368ZM62.9834 187.059L61.6225 185.593L61.6137 185.602L61.605 185.61L62.9834 187.059ZM62.9834 171.733L61.605 173.182L61.6137 173.19L61.6225 173.199L62.9834 171.733ZM38.0194 168.652V166.652H36.0194V168.652H38.0194ZM38.0194 190.14H36.0194V192.14H38.0194V190.14ZM34.3854 215.395C33.8953 215.395 33.5674 215.25 33.2716 214.954L30.4432 217.782C31.5167 218.856 32.8741 219.395 34.3854 219.395V215.395ZM33.2716 214.954C32.9758 214.658 32.8304 214.33 32.8304 213.84H28.8304C28.8304 215.351 29.3697 216.709 30.4432 217.782L33.2716 214.954ZM32.8304 213.84V165.492H28.8304V213.84H32.8304ZM32.8304 165.492C32.8304 165.002 32.9758 164.674 33.2716 164.378L30.4432 161.55C29.3697 162.623 28.8304 163.981 28.8304 165.492H32.8304ZM33.323 164.325C33.6316 163.993 33.9444 163.858 34.3854 163.858V159.858C32.8251 159.858 31.4525 160.461 30.3918 161.603L33.323 164.325ZM34.3854 163.858H52.3974V159.858H34.3854V163.858ZM52.3974 163.858C57.1956 163.858 60.9229 164.669 63.7012 166.151L65.5836 162.621C62.0419 160.732 57.6059 159.858 52.3974 159.858V163.858ZM63.7012 166.151C66.5797 167.686 68.5146 169.58 69.662 171.787L73.2108 169.941C71.6195 166.881 69.0252 164.457 65.5836 162.621L63.7012 166.151ZM69.662 171.787C70.8787 174.127 71.4904 176.653 71.4904 179.396H75.4904C75.4904 176.03 74.7328 172.868 73.2108 169.941L69.662 171.787ZM71.4904 179.396C71.4904 182.139 70.8787 184.665 69.662 187.005L73.2108 188.851C74.7328 185.924 75.4904 182.762 75.4904 179.396H71.4904ZM69.662 187.005C68.5146 189.212 66.5797 191.106 63.7012 192.641L65.5836 196.171C69.0252 194.335 71.6195 191.911 73.2108 188.851L69.662 187.005ZM63.7012 192.641C60.9229 194.123 57.1956 194.934 52.3974 194.934V198.934C57.6059 198.934 62.0419 198.06 65.5836 196.171L63.7012 192.641ZM52.3974 194.934H38.0194V198.934H52.3974V194.934ZM36.0194 196.934V213.84H40.0194V196.934H36.0194ZM36.0194 213.84C36.0194 214.281 35.8849 214.594 35.5525 214.902L38.2743 217.834C39.4166 216.773 40.0194 215.4 40.0194 213.84H36.0194ZM35.4992 214.954C35.2034 215.25 34.8755 215.395 34.3854 215.395V219.395C35.8967 219.395 37.2541 218.856 38.3276 217.782L35.4992 214.954ZM51.6864 192.14C57.1984 192.14 61.6279 191.109 64.3618 188.508L61.605 185.61C60.0203 187.117 56.9184 188.14 51.6864 188.14V192.14ZM64.3443 188.525C66.9693 186.087 68.3014 182.999 68.3014 179.396H64.3014C64.3014 181.902 63.4215 183.923 61.6225 185.593L64.3443 188.525ZM68.3014 179.396C68.3014 175.793 66.9693 172.705 64.3443 170.267L61.6225 173.199C63.4215 174.869 64.3014 176.89 64.3014 179.396H68.3014ZM64.3618 170.284C61.6279 167.683 57.1984 166.652 51.6864 166.652V170.652C56.9184 170.652 60.0203 171.675 61.605 173.182L64.3618 170.284ZM51.6864 166.652H38.0194V170.652H51.6864V166.652ZM36.0194 168.652V190.14H40.0194V168.652H36.0194ZM38.0194 192.14H51.6864V188.14H38.0194V192.14ZM90.4655 216.368L91.8797 214.954L91.8797 214.954L90.4655 216.368ZM90.4655 162.964L91.8797 164.378L91.9059 164.352L91.9311 164.325L90.4655 162.964ZM123.251 164.386L124.192 162.621L123.251 164.386ZM130.045 170.864L128.27 171.787L128.27 171.787L130.045 170.864ZM130.045 187.928L128.27 187.005L128.27 187.005L130.045 187.928ZM123.251 194.406L124.192 196.171L123.251 194.406ZM96.6275 196.934V194.934H94.6275V196.934H96.6275ZM95.5215 216.368L94.1606 214.902L94.1335 214.928L94.1073 214.954L95.5215 216.368ZM121.592 187.059L120.231 185.593L120.222 185.602L120.213 185.61L121.592 187.059ZM121.592 171.733L120.213 173.182L120.222 173.19L120.231 173.199L121.592 171.733ZM96.6275 168.652V166.652H94.6275V168.652H96.6275ZM96.6275 190.14H94.6275V192.14H96.6275V190.14ZM92.9935 215.395C92.5035 215.395 92.1755 215.25 91.8797 214.954L89.0513 217.782C90.1249 218.856 91.4823 219.395 92.9935 219.395V215.395ZM91.8797 214.954C91.5839 214.658 91.4385 214.33 91.4385 213.84H87.4385C87.4385 215.351 87.9778 216.709 89.0513 217.782L91.8797 214.954ZM91.4385 213.84V165.492H87.4385V213.84H91.4385ZM91.4385 165.492C91.4385 165.002 91.5839 164.674 91.8797 164.378L89.0513 161.55C87.9778 162.623 87.4385 163.981 87.4385 165.492H91.4385ZM91.9311 164.325C92.2397 163.993 92.5525 163.858 92.9935 163.858V159.858C91.4332 159.858 90.0607 160.461 88.9999 161.603L91.9311 164.325ZM92.9935 163.858H111.006V159.858H92.9935V163.858ZM111.006 163.858C115.804 163.858 119.531 164.669 122.309 166.151L124.192 162.621C120.65 160.732 116.214 159.858 111.006 159.858V163.858ZM122.309 166.151C125.188 167.686 127.123 169.58 128.27 171.787L131.819 169.941C130.228 166.881 127.633 164.457 124.192 162.621L122.309 166.151ZM128.27 171.787C129.487 174.127 130.099 176.653 130.099 179.396H134.099C134.099 176.03 133.341 172.868 131.819 169.941L128.27 171.787ZM130.099 179.396C130.099 182.139 129.487 184.665 128.27 187.005L131.819 188.851C133.341 185.924 134.099 182.762 134.099 179.396H130.099ZM128.27 187.005C127.123 189.212 125.188 191.106 122.309 192.641L124.192 196.171C127.633 194.335 130.228 191.911 131.819 188.851L128.27 187.005ZM122.309 192.641C119.531 194.123 115.804 194.934 111.006 194.934V198.934C116.214 198.934 120.65 198.06 124.192 196.171L122.309 192.641ZM111.006 194.934H96.6275V198.934H111.006V194.934ZM94.6275 196.934V213.84H98.6275V196.934H94.6275ZM94.6275 213.84C94.6275 214.281 94.493 214.594 94.1606 214.902L96.8824 217.834C98.0247 216.773 98.6275 215.4 98.6275 213.84H94.6275ZM94.1073 214.954C93.8115 215.25 93.4836 215.395 92.9935 215.395V219.395C94.5048 219.395 95.8622 218.856 96.9357 217.782L94.1073 214.954ZM110.295 192.14C115.807 192.14 120.236 191.109 122.97 188.508L120.213 185.61C118.628 187.117 115.527 188.14 110.295 188.14V192.14ZM122.952 188.525C125.577 186.087 126.91 182.999 126.91 179.396H122.91C122.91 181.902 122.03 183.923 120.231 185.593L122.952 188.525ZM126.91 179.396C126.91 175.793 125.577 172.705 122.952 170.267L120.231 173.199C122.03 174.869 122.91 176.89 122.91 179.396H126.91ZM122.97 170.284C120.236 167.683 115.807 166.652 110.295 166.652V170.652C115.527 170.652 118.628 171.675 120.213 173.182L122.97 170.284ZM110.295 166.652H96.6275V170.652H110.295V166.652ZM94.6275 168.652V190.14H98.6275V168.652H94.6275ZM96.6275 192.14H110.295V188.14H96.6275V192.14ZM161.872 216.368L160.457 217.782L161.872 216.368ZM160.845 168.573H162.845V166.573H160.845V168.573ZM142.359 167.625L140.944 169.039L140.944 169.039L142.359 167.625ZM142.359 162.885L143.773 164.299L143.801 164.271L143.828 164.242L142.359 162.885ZM186.441 162.885L184.971 164.242L185.025 164.3L185.084 164.355L186.441 162.885ZM186.441 167.625L185.084 166.155L185.055 166.183L185.026 166.211L186.441 167.625ZM168.034 168.573V166.573H166.034V168.573H168.034ZM166.928 216.368L165.567 214.902L165.54 214.928L165.513 214.954L166.928 216.368ZM164.4 215.395C163.91 215.395 163.582 215.25 163.286 214.954L160.457 217.782C161.531 218.856 162.888 219.395 164.4 219.395V215.395ZM163.286 214.954C162.99 214.658 162.845 214.33 162.845 213.84H158.845C158.845 215.351 159.384 216.709 160.457 217.782L163.286 214.954ZM162.845 213.84V168.573H158.845V213.84H162.845ZM160.845 166.573H144.729V170.573H160.845V166.573ZM144.729 166.573C144.275 166.573 144.005 166.443 143.773 166.211L140.944 169.039C141.976 170.071 143.286 170.573 144.729 170.573V166.573ZM143.773 166.211C143.54 165.978 143.411 165.708 143.411 165.255H139.411C139.411 166.698 139.913 168.008 140.944 169.039L143.773 166.211ZM143.411 165.255C143.411 164.802 143.54 164.532 143.773 164.299L140.944 161.471C139.913 162.502 139.411 163.812 139.411 165.255H143.411ZM143.828 164.242C144.074 163.975 144.328 163.858 144.729 163.858V159.858C143.234 159.858 141.907 160.426 140.889 161.528L143.828 164.242ZM144.729 163.858H184.071V159.858H144.729V163.858ZM184.071 163.858C184.472 163.858 184.725 163.975 184.971 164.242L187.91 161.528C186.892 160.426 185.566 159.858 184.071 159.858V163.858ZM185.084 164.355C185.351 164.601 185.468 164.854 185.468 165.255H189.468C189.468 163.76 188.9 162.433 187.797 161.415L185.084 164.355ZM185.468 165.255C185.468 165.656 185.351 165.909 185.084 166.155L187.797 169.095C188.9 168.077 189.468 166.75 189.468 165.255H185.468ZM185.026 166.211C184.794 166.443 184.524 166.573 184.071 166.573V170.573C185.513 170.573 186.823 170.071 187.855 169.039L185.026 166.211ZM184.071 166.573H168.034V170.573H184.071V166.573ZM166.034 168.573V213.84H170.034V168.573H166.034ZM166.034 213.84C166.034 214.281 165.899 214.594 165.567 214.902L168.289 217.834C169.431 216.773 170.034 215.4 170.034 213.84H166.034ZM165.513 214.954C165.218 215.25 164.89 215.395 164.4 215.395V219.395C165.911 219.395 167.268 218.856 168.342 217.782L165.513 214.954ZM201.256 216.447L199.786 217.804L199.84 217.862L199.899 217.917L201.256 216.447ZM201.019 211.865L199.467 210.603L199.442 210.634L199.419 210.665L201.019 211.865ZM219.268 189.429L220.819 190.691L221.845 189.43L220.82 188.168L219.268 189.429ZM201.177 167.151L199.577 168.351L199.6 168.382L199.624 168.412L201.177 167.151ZM201.414 162.49L199.999 161.076L199.999 161.076L201.414 162.49ZM205.601 161.858L206.495 160.069L206.495 160.069L205.601 161.858ZM206.865 162.885L205.265 164.085L205.279 164.104L205.293 164.122L206.865 162.885ZM223.534 184.057L221.962 185.294L223.539 187.298L225.109 185.289L223.534 184.057ZM240.203 162.727L241.778 163.959L241.816 163.91L241.851 163.86L240.203 162.727ZM245.259 162.49L243.844 163.904L243.873 163.932L243.902 163.96L245.259 162.49ZM245.654 166.835L247.207 168.094L247.24 168.054L247.271 168.011L245.654 166.835ZM227.405 189.35L225.851 188.091L224.828 189.352L225.853 190.612L227.405 189.35ZM245.654 211.786L244.102 213.048L244.134 213.087L244.167 213.124L245.654 211.786ZM245.338 216.368L243.923 214.954L243.895 214.982L243.868 215.011L245.338 216.368ZM239.966 215.894L241.576 214.708L241.554 214.678L241.531 214.649L239.966 215.894ZM223.06 194.643L224.625 193.398L223.046 191.413L221.484 193.411L223.06 194.643ZM206.391 215.973L207.927 217.253L207.947 217.229L207.966 217.205L206.391 215.973ZM203.626 215.395C203.255 215.395 202.944 215.284 202.612 214.977L199.899 217.917C200.937 218.874 202.205 219.395 203.626 219.395V215.395ZM202.725 215.09C202.419 214.759 202.308 214.447 202.308 214.077H198.308C198.308 215.497 198.828 216.766 199.786 217.804L202.725 215.09ZM202.308 214.077C202.308 213.636 202.422 213.327 202.619 213.065L199.419 210.665C198.667 211.667 198.308 212.832 198.308 214.077H202.308ZM202.57 213.127L220.819 190.691L217.716 188.167L199.467 210.603L202.57 213.127ZM220.82 188.168L202.729 165.89L199.624 168.412L217.715 190.69L220.82 188.168ZM202.777 165.951C202.58 165.689 202.466 165.38 202.466 164.939H198.466C198.466 166.184 198.825 167.349 199.577 168.351L202.777 165.951ZM202.466 164.939C202.466 164.399 202.617 164.115 202.828 163.904L199.999 161.076C198.946 162.129 198.466 163.477 198.466 164.939H202.466ZM202.828 163.904C203.124 163.608 203.452 163.463 203.942 163.463V159.463C202.43 159.463 201.073 160.002 199.999 161.076L202.828 163.904ZM203.942 163.463C204.205 163.463 204.453 163.52 204.706 163.647L206.495 160.069C205.695 159.669 204.837 159.463 203.942 159.463V163.463ZM204.706 163.647C204.988 163.788 205.156 163.94 205.265 164.085L208.465 161.685C207.941 160.987 207.266 160.455 206.495 160.069L204.706 163.647ZM205.293 164.122L221.962 185.294L225.105 182.82L208.436 161.648L205.293 164.122ZM225.109 185.289L241.778 163.959L238.627 161.495L221.958 182.825L225.109 185.289ZM241.851 163.86C242.003 163.639 242.208 163.463 242.81 163.463V159.463C241.094 159.463 239.561 160.13 238.555 161.594L241.851 163.86ZM242.81 163.463C243.215 163.463 243.526 163.586 243.844 163.904L246.673 161.076C245.622 160.025 244.301 159.463 242.81 159.463V163.463ZM243.902 163.96C244.169 164.206 244.286 164.459 244.286 164.86H248.286C248.286 163.365 247.718 162.038 246.615 161.02L243.902 163.96ZM244.286 164.86C244.286 165.188 244.201 165.432 244.036 165.659L247.271 168.011C247.949 167.08 248.286 166.007 248.286 164.86H244.286ZM244.1 165.576L225.851 188.091L228.958 190.609L247.207 168.094L244.1 165.576ZM225.853 190.612L244.102 213.048L247.205 210.524L228.956 188.088L225.853 190.612ZM244.167 213.124C244.25 213.216 244.365 213.393 244.365 213.84H248.365C248.365 212.602 248.005 211.409 247.14 210.448L244.167 213.124ZM244.365 213.84C244.365 214.33 244.219 214.658 243.923 214.954L246.752 217.782C247.825 216.709 248.365 215.351 248.365 213.84H244.365ZM243.868 215.011C243.666 215.23 243.385 215.395 242.81 215.395V219.395C244.341 219.395 245.745 218.875 246.807 217.725L243.868 215.011ZM242.81 215.395C242.338 215.395 241.968 215.24 241.576 214.708L238.356 217.08C239.438 218.549 240.963 219.395 242.81 219.395V215.395ZM241.531 214.649L224.625 193.398L221.494 195.888L238.4 217.139L241.531 214.649ZM221.484 193.411L204.815 214.741L207.966 217.205L224.635 195.875L221.484 193.411ZM204.854 214.693C204.372 215.272 203.981 215.395 203.626 215.395V219.395C205.377 219.395 206.83 218.57 207.927 217.253L204.854 214.693Z" fill="white"/>
<g filter="url(#filter1_d_0_66)">
<path d="M272 102H192C179.85 102 170 92.1503 170 80V0L272 102Z" fill="url(#paint2_linear_0_66)"/>
</g>
</g>
<defs>
<filter id="filter0_f_0_66" x="9" y="110" width="256" height="162" filterUnits="userSpaceOnUse" color-interpolation-filters="sRGB">
<feFlood flood-opacity="0" result="BackgroundImageFix"/>
<feBlend mode="normal" in="SourceGraphic" in2="BackgroundImageFix" result="shape"/>
<feGaussianBlur stdDeviation="19.5" result="effect1_foregroundBlur_0_66"/>
</filter>
<filter id="filter1_d_0_66" x="147" y="-24" width="152" height="152" filterUnits="userSpaceOnUse" color-interpolation-filters="sRGB">
<feFlood flood-opacity="0" result="BackgroundImageFix"/>
<feColorMatrix in="SourceAlpha" type="matrix" values="0 0 0 0 0 0 0 0 0 0 0 0 0 0 0 0 0 0 127 0" result="hardAlpha"/>
<feOffset dx="2" dy="1"/>
<feGaussianBlur stdDeviation="12.5"/>
<feColorMatrix type="matrix" values="0 0 0 0 0 0 0 0 0 0 0 0 0 0 0 0 0 0 0.33 0"/>
<feBlend mode="normal" in2="BackgroundImageFix" result="effect1_dropShadow_0_66"/>
<feBlend mode="normal" in="SourceGraphic" in2="effect1_dropShadow_0_66" result="shape"/>
</filter>
<linearGradient id="paint0_linear_0_66" x1="136" y1="0" x2="136" y2="308" gradientUnits="userSpaceOnUse">
<stop stop-color="#FF7979"/>
<stop offset="1" stop-color="#E85555"/>
</linearGradient>
<linearGradient id="paint1_linear_0_66" x1="136" y1="0" x2="136" y2="308" gradientUnits="userSpaceOnUse">
<stop stop-color="#FFA216"/>
<stop offset="1" stop-color="#EF8100"/>
</linearGradient>
<linearGradient id="paint2_linear_0_66" x1="221" y1="0" x2="221" y2="102" gradientUnits="userSpaceOnUse">
<stop stop-color="#FF7A1B"/>
<stop offset="1" stop-color="#E86100"/>
</linearGradient>
</defs>
</svg>
