<svg width="272" height="308" viewBox="0 0 272 308" fill="none" xmlns="http://www.w3.org/2000/svg">
<mask id="mask0_0_66" style="mask-type:alpha" maskUnits="userSpaceOnUse" x="0" y="0" width="272" height="308">
<path d="M250 308H22C9.84974 308 0 298.15 0 286V22C0 9.84974 9.84974 0 22 0H170L272 102V286C272 298.15 262.15 308 250 308Z" fill="url(#paint0_linear_0_66)"/>
</mask>
<g mask="url(#mask0_0_66)">
<path d="M250 308H22C9.84974 308 0 298.15 0 286V22C0 9.84974 9.84974 0 22 0H170L272 102V286C272 298.15 262.15 308 250 308Z" fill="url(#paint1_linear_0_66)"/>
<g opacity="0.26" filter="url(#filter0_f_0_66)">
<rect x="48" y="149" width="178" height="84" fill="#E66000" style="mix-blend-mode:darken"/>
</g>
<path d="M35.1689 217.395C34.2736 217.395 33.4836 217.079 32.7989 216.447C32.1669 215.762 31.8509 214.972 31.8509 214.077C31.8509 213.234 32.0879 212.497 32.5619 211.865L50.8109 189.429L32.7199 167.151C32.2459 166.519 32.0089 165.782 32.0089 164.939C32.0089 163.938 32.3249 163.122 32.9569 162.49C33.6416 161.805 34.4843 161.463 35.4849 161.463C36.0643 161.463 36.6173 161.595 37.1439 161.858C37.6706 162.121 38.0919 162.464 38.4079 162.885L55.0769 184.057L71.7459 162.727C72.3253 161.884 73.1943 161.463 74.3529 161.463C75.3009 161.463 76.1173 161.805 76.8019 162.49C77.4866 163.122 77.8289 163.912 77.8289 164.86C77.8289 165.597 77.6183 166.256 77.1969 166.835L58.9479 189.35L77.1969 211.786C77.6709 212.313 77.9079 212.997 77.9079 213.84C77.9079 214.841 77.5656 215.683 76.8809 216.368C76.2489 217.053 75.4063 217.395 74.3529 217.395C73.1943 217.395 72.2463 216.895 71.5089 215.894L54.6029 194.643L37.9339 215.973C37.1439 216.921 36.2223 217.395 35.1689 217.395ZM99.5459 217C98.1766 217 96.9916 216.526 95.9909 215.578C95.0429 214.577 94.5689 213.392 94.5689 212.023V165.097C94.5689 164.096 94.9112 163.254 95.5959 162.569C96.2806 161.832 97.1232 161.463 98.1239 161.463C99.1246 161.463 99.9672 161.832 100.652 162.569C101.389 163.254 101.758 164.096 101.758 165.097V209.811H127.591C128.592 209.811 129.434 210.18 130.119 210.917C130.856 211.602 131.225 212.444 131.225 213.445C131.225 214.446 130.856 215.288 130.119 215.973C129.434 216.658 128.592 217 127.591 217H99.5459ZM162.996 217.79C156.308 217.79 150.04 216.526 144.194 213.998C143.562 213.735 143.036 213.313 142.614 212.734C142.193 212.102 141.982 211.444 141.982 210.759C141.982 209.864 142.272 209.1 142.851 208.468C143.483 207.783 144.273 207.441 145.221 207.441C145.748 207.441 146.248 207.546 146.722 207.757C151.568 209.916 156.755 210.996 162.285 210.996C171.502 210.996 176.11 207.968 176.11 201.911C176.11 200.331 175.505 199.014 174.293 197.961C173.135 196.908 171.686 196.091 169.948 195.512C168.21 194.88 165.735 194.143 162.522 193.3C158.256 192.194 154.807 191.141 152.173 190.14C149.54 189.087 147.275 187.533 145.379 185.479C143.483 183.425 142.535 180.686 142.535 177.263C142.535 174.261 143.325 171.549 144.905 169.126C146.485 166.651 148.803 164.702 151.857 163.28C154.965 161.805 158.678 161.068 162.996 161.068C168.79 161.068 174.03 161.937 178.717 163.675C180.192 164.202 180.929 165.255 180.929 166.835C180.929 167.678 180.64 168.441 180.06 169.126C179.481 169.811 178.717 170.153 177.769 170.153C177.453 170.153 177.032 170.048 176.505 169.837C172.397 168.415 168.158 167.704 163.786 167.704C159.626 167.704 156.229 168.494 153.595 170.074C151.015 171.654 149.724 173.866 149.724 176.71C149.724 178.606 150.33 180.16 151.541 181.371C152.805 182.53 154.359 183.451 156.202 184.136C158.098 184.768 160.653 185.453 163.865 186.19C168.026 187.191 171.37 188.191 173.898 189.192C176.479 190.193 178.665 191.746 180.455 193.853C182.299 195.96 183.22 198.804 183.22 202.385C183.22 205.334 182.378 207.994 180.692 210.364C179.007 212.681 176.637 214.498 173.582 215.815C170.528 217.132 166.999 217.79 162.996 217.79ZM198.418 217.395C197.523 217.395 196.733 217.079 196.048 216.447C195.416 215.762 195.1 214.972 195.1 214.077C195.1 213.234 195.337 212.497 195.811 211.865L214.06 189.429L195.969 167.151C195.495 166.519 195.258 165.782 195.258 164.939C195.258 163.938 195.574 163.122 196.206 162.49C196.891 161.805 197.733 161.463 198.734 161.463C199.313 161.463 199.866 161.595 200.393 161.858C200.92 162.121 201.341 162.464 201.657 162.885L218.326 184.057L234.995 162.727C235.574 161.884 236.443 161.463 237.602 161.463C238.55 161.463 239.366 161.805 240.051 162.49C240.736 163.122 241.078 163.912 241.078 164.86C241.078 165.597 240.867 166.256 240.446 166.835L222.197 189.35L240.446 211.786C240.92 212.313 241.157 212.997 241.157 213.84C241.157 214.841 240.815 215.683 240.13 216.368C239.498 217.053 238.655 217.395 237.602 217.395C236.443 217.395 235.495 216.895 234.758 215.894L217.852 194.643L201.183 215.973C200.393 216.921 199.471 217.395 198.418 217.395Z" fill="white"/>
<path d="M32.7989 216.447L31.3293 217.804L31.3836 217.862L31.4424 217.917L32.7989 216.447ZM32.5619 211.865L31.0104 210.603L30.9855 210.634L30.9619 210.665L32.5619 211.865ZM50.8109 189.429L52.3625 190.691L53.3881 189.43L52.3635 188.168L50.8109 189.429ZM32.7199 167.151L31.1199 168.351L31.1431 168.382L31.1674 168.412L32.7199 167.151ZM32.9569 162.49L31.5427 161.076L31.5427 161.076L32.9569 162.49ZM37.1439 161.858L38.0384 160.069L38.0384 160.069L37.1439 161.858ZM38.4079 162.885L36.8079 164.085L36.822 164.104L36.8365 164.122L38.4079 162.885ZM55.0769 184.057L53.5055 185.294L55.0828 187.298L56.6528 185.289L55.0769 184.057ZM71.7459 162.727L73.3218 163.959L73.3594 163.91L73.394 163.86L71.7459 162.727ZM76.8019 162.49L75.3877 163.904L75.416 163.932L75.4454 163.96L76.8019 162.49ZM77.1969 166.835L78.7507 168.094L78.7836 168.054L78.8144 168.011L77.1969 166.835ZM58.9479 189.35L57.3942 188.091L56.3717 189.352L57.3964 190.612L58.9479 189.35ZM77.1969 211.786L75.6454 213.048L75.6769 213.087L75.7103 213.124L77.1969 211.786ZM76.8809 216.368L75.4667 214.954L75.4384 214.982L75.4113 215.011L76.8809 216.368ZM71.5089 215.894L73.119 214.708L73.0971 214.678L73.0741 214.649L71.5089 215.894ZM54.6029 194.643L56.1681 193.398L54.5889 191.413L53.0271 193.411L54.6029 194.643ZM37.9339 215.973L39.4704 217.253L39.4905 217.229L39.5098 217.205L37.9339 215.973ZM35.1689 215.395C34.7985 215.395 34.4873 215.284 34.1555 214.977L31.4424 217.917C32.4799 218.874 33.7487 219.395 35.1689 219.395V215.395ZM34.2685 215.09C33.9623 214.759 33.8509 214.447 33.8509 214.077H29.8509C29.8509 215.497 30.3716 216.766 31.3293 217.804L34.2685 215.09ZM33.8509 214.077C33.8509 213.636 33.9654 213.327 34.1619 213.065L30.9619 210.665C30.2104 211.667 29.8509 212.832 29.8509 214.077H33.8509ZM34.1135 213.127L52.3625 190.691L49.2594 188.167L31.0104 210.603L34.1135 213.127ZM52.3635 188.168L34.2725 165.89L31.1674 168.412L49.2584 190.69L52.3635 188.168ZM34.3199 165.951C34.1234 165.689 34.0089 165.38 34.0089 164.939H30.0089C30.0089 166.184 30.3684 167.349 31.1199 168.351L34.3199 165.951ZM34.0089 164.939C34.0089 164.399 34.1605 164.115 34.3711 163.904L31.5427 161.076C30.4893 162.129 30.0089 163.477 30.0089 164.939H34.0089ZM34.3711 163.904C34.6669 163.608 34.9949 163.463 35.4849 163.463V159.463C33.9737 159.463 32.6163 160.002 31.5427 161.076L34.3711 163.904ZM35.4849 163.463C35.7485 163.463 35.9958 163.52 36.2495 163.647L38.0384 160.069C37.2387 159.669 36.38 159.463 35.4849 159.463V163.463ZM36.2495 163.647C36.5316 163.788 36.6992 163.94 36.8079 164.085L40.0079 161.685C39.4846 160.987 38.8096 160.455 38.0384 160.069L36.2495 163.647ZM36.8365 164.122L53.5055 185.294L56.6483 182.82L39.9793 161.648L36.8365 164.122ZM56.6528 185.289L73.3218 163.959L70.1701 161.495L53.5011 182.825L56.6528 185.289ZM73.394 163.86C73.546 163.639 73.751 163.463 74.3529 163.463V159.463C72.6376 159.463 71.1045 160.13 70.0978 161.594L73.394 163.86ZM74.3529 163.463C74.7579 163.463 75.0691 163.586 75.3877 163.904L78.2161 161.076C77.1654 160.025 75.8439 159.463 74.3529 159.463V163.463ZM75.4454 163.96C75.7118 164.206 75.8289 164.459 75.8289 164.86H79.8289C79.8289 163.365 79.2614 162.038 78.1585 161.02L75.4454 163.96ZM75.8289 164.86C75.8289 165.188 75.7445 165.432 75.5795 165.659L78.8144 168.011C79.492 167.08 79.8289 166.007 79.8289 164.86H75.8289ZM75.6432 165.576L57.3942 188.091L60.5017 190.609L78.7507 168.094L75.6432 165.576ZM57.3964 190.612L75.6454 213.048L78.7485 210.524L60.4995 188.088L57.3964 190.612ZM75.7103 213.124C75.7932 213.216 75.9079 213.393 75.9079 213.84H79.9079C79.9079 212.602 79.5487 211.409 78.6835 210.448L75.7103 213.124ZM75.9079 213.84C75.9079 214.33 75.7625 214.658 75.4667 214.954L78.2951 217.782C79.3687 216.709 79.9079 215.351 79.9079 213.84H75.9079ZM75.4113 215.011C75.2092 215.23 74.9285 215.395 74.3529 215.395V219.395C75.884 219.395 77.2886 218.875 78.3505 217.725L75.4113 215.011ZM74.3529 215.395C73.8818 215.395 73.5114 215.24 73.119 214.708L69.8988 217.08C70.9811 218.549 72.5067 219.395 74.3529 219.395V215.395ZM73.0741 214.649L56.1681 193.398L53.0378 195.888L69.9438 217.139L73.0741 214.649ZM53.0271 193.411L36.3581 214.741L39.5098 217.205L56.1788 195.875L53.0271 193.411ZM36.3975 214.693C35.915 215.272 35.5241 215.395 35.1689 215.395V219.395C36.9204 219.395 38.3728 218.57 39.4704 217.253L36.3975 214.693ZM95.9909 215.578L94.539 216.953L94.5762 216.993L94.6154 217.03L95.9909 215.578ZM95.5959 162.569L97.0101 163.983L97.0363 163.957L97.0615 163.93L95.5959 162.569ZM100.652 162.569L99.1863 163.93L99.2367 163.984L99.291 164.035L100.652 162.569ZM101.758 209.811H99.7579V211.811H101.758V209.811ZM130.119 210.917L128.653 212.278L128.704 212.332L128.758 212.383L130.119 210.917ZM130.119 215.973L128.758 214.507L128.731 214.533L128.705 214.559L130.119 215.973ZM99.5459 215C98.6921 215 97.9983 214.725 97.3664 214.126L94.6154 217.03C95.9848 218.327 97.6611 219 99.5459 219V215ZM97.4428 214.203C96.8441 213.571 96.5689 212.877 96.5689 212.023H92.5689C92.5689 213.908 93.2417 215.584 94.539 216.953L97.4428 214.203ZM96.5689 212.023V165.097H92.5689V212.023H96.5689ZM96.5689 165.097C96.5689 164.607 96.7143 164.279 97.0101 163.983L94.1817 161.155C93.1081 162.228 92.5689 163.586 92.5689 165.097H96.5689ZM97.0615 163.93C97.3701 163.598 97.6829 163.463 98.1239 163.463V159.463C96.5636 159.463 95.191 160.066 94.1303 161.208L97.0615 163.93ZM98.1239 163.463C98.5649 163.463 98.8777 163.598 99.1863 163.93L102.117 161.208C101.057 160.066 99.6842 159.463 98.1239 159.463V163.463ZM99.291 164.035C99.6234 164.343 99.7579 164.656 99.7579 165.097H103.758C103.758 163.537 103.155 162.164 102.013 161.103L99.291 164.035ZM99.7579 165.097V209.811H103.758V165.097H99.7579ZM101.758 211.811H127.591V207.811H101.758V211.811ZM127.591 211.811C128.032 211.811 128.345 211.946 128.653 212.278L131.584 209.556C130.524 208.414 129.151 207.811 127.591 207.811V211.811ZM128.758 212.383C129.09 212.691 129.225 213.004 129.225 213.445H133.225C133.225 211.885 132.622 210.512 131.48 209.451L128.758 212.383ZM129.225 213.445C129.225 213.886 129.09 214.199 128.758 214.507L131.48 217.439C132.622 216.378 133.225 215.005 133.225 213.445H129.225ZM128.705 214.559C128.409 214.855 128.081 215 127.591 215V219C129.102 219 130.46 218.461 131.533 217.387L128.705 214.559ZM127.591 215H99.5459V219H127.591V215ZM144.194 213.998L144.988 212.162L144.976 212.157L144.964 212.152L144.194 213.998ZM142.614 212.734L140.95 213.843L140.973 213.877L140.997 213.91L142.614 212.734ZM142.851 208.468L141.382 207.111L141.377 207.117L142.851 208.468ZM146.722 207.757L147.537 205.93L147.535 205.929L146.722 207.757ZM174.293 197.961L172.948 199.441L172.964 199.456L172.981 199.47L174.293 197.961ZM169.948 195.512L169.265 197.392L169.29 197.401L169.316 197.409L169.948 195.512ZM162.522 193.3L163.03 191.365L163.024 191.364L162.522 193.3ZM152.173 190.14L151.431 191.997L151.447 192.003L151.463 192.01L152.173 190.14ZM145.379 185.479L143.91 186.836L143.91 186.836L145.379 185.479ZM144.905 169.126L146.581 170.219L146.586 170.21L146.591 170.202L144.905 169.126ZM151.857 163.28L152.702 165.093L152.708 165.09L152.715 165.087L151.857 163.28ZM178.717 163.675L178.022 165.55L178.033 165.554L178.045 165.558L178.717 163.675ZM180.06 169.126L181.587 170.418L181.587 170.418L180.06 169.126ZM176.505 169.837L177.248 167.98L177.204 167.962L177.16 167.947L176.505 169.837ZM153.595 170.074L152.566 168.359L152.559 168.364L152.551 168.368L153.595 170.074ZM151.541 181.371L150.127 182.785L150.158 182.816L150.19 182.845L151.541 181.371ZM156.202 184.136L155.506 186.011L155.538 186.023L155.57 186.033L156.202 184.136ZM163.865 186.19L164.333 184.245L164.323 184.243L164.313 184.241L163.865 186.19ZM173.898 189.192L173.162 191.052L173.175 191.057L173.898 189.192ZM180.455 193.853L178.932 195.148L178.941 195.159L178.95 195.17L180.455 193.853ZM180.692 210.364L182.31 211.54L182.316 211.532L182.322 211.523L180.692 210.364ZM173.582 215.815L174.374 217.652L174.374 217.652L173.582 215.815ZM162.996 215.79C156.567 215.79 150.571 214.577 144.988 212.162L143.401 215.834C149.51 218.475 156.049 219.79 162.996 219.79V215.79ZM144.964 212.152C144.687 212.036 144.448 211.854 144.232 211.558L140.997 213.91C141.624 214.772 142.438 215.433 143.425 215.844L144.964 212.152ZM144.279 211.625C144.051 211.284 143.982 211.006 143.982 210.759H139.982C139.982 211.881 140.335 212.92 140.95 213.843L144.279 211.625ZM143.982 210.759C143.982 210.34 144.101 210.065 144.326 209.819L141.377 207.117C140.444 208.135 139.982 209.388 139.982 210.759H143.982ZM144.321 209.825C144.567 209.558 144.821 209.441 145.221 209.441V205.441C143.726 205.441 142.4 206.009 141.382 207.111L144.321 209.825ZM145.221 209.441C145.473 209.441 145.696 209.489 145.91 209.585L147.535 205.929C146.801 205.603 146.024 205.441 145.221 205.441V209.441ZM145.908 209.584C151.021 211.862 156.487 212.996 162.285 212.996V208.996C157.024 208.996 152.115 207.97 147.537 205.93L145.908 209.584ZM162.285 212.996C167.049 212.996 170.97 212.225 173.753 210.396C176.682 208.471 178.11 205.534 178.11 201.911H174.11C174.11 204.344 173.235 205.95 171.556 207.053C169.73 208.253 166.738 208.996 162.285 208.996V212.996ZM178.11 201.911C178.11 199.742 177.246 197.878 175.606 196.452L172.981 199.47C173.764 200.151 174.11 200.92 174.11 201.911H178.11ZM175.639 196.481C174.242 195.211 172.539 194.267 170.581 193.615L169.316 197.409C170.834 197.915 172.027 198.604 172.948 199.441L175.639 196.481ZM170.632 193.632C168.808 192.969 166.263 192.214 163.03 191.365L162.015 195.235C165.207 196.072 167.613 196.791 169.265 197.392L170.632 193.632ZM163.024 191.364C158.794 190.267 155.422 189.235 152.884 188.27L151.463 192.01C154.191 193.046 157.718 194.121 162.021 195.236L163.024 191.364ZM152.916 188.283C150.555 187.339 148.54 185.954 146.849 184.122L143.91 186.836C146.011 189.112 148.525 190.835 151.431 191.997L152.916 188.283ZM146.849 184.122C145.367 182.517 144.535 180.302 144.535 177.263H140.535C140.535 181.07 141.6 184.333 143.91 186.836L146.849 184.122ZM144.535 177.263C144.535 174.633 145.221 172.303 146.581 170.219L143.23 168.033C141.43 170.794 140.535 173.889 140.535 177.263H144.535ZM146.591 170.202C147.938 168.093 149.94 166.379 152.702 165.093L151.013 161.467C147.666 163.025 145.033 165.209 143.22 168.05L146.591 170.202ZM152.715 165.087C155.495 163.768 158.901 163.068 162.996 163.068V159.068C158.455 159.068 154.435 159.843 151 161.473L152.715 165.087ZM162.996 163.068C168.59 163.068 173.59 163.907 178.022 165.55L179.413 161.8C174.471 159.967 168.99 159.068 162.996 159.068V163.068ZM178.045 165.558C178.478 165.713 178.655 165.888 178.738 166.007C178.822 166.127 178.929 166.36 178.929 166.835H182.929C182.929 165.73 182.668 164.646 182.015 163.713C181.361 162.778 180.431 162.163 179.39 161.792L178.045 165.558ZM178.929 166.835C178.929 167.173 178.829 167.485 178.534 167.834L181.587 170.418C182.451 169.397 182.929 168.183 182.929 166.835H178.929ZM178.534 167.834C178.358 168.041 178.167 168.153 177.769 168.153V172.153C179.267 172.153 180.604 171.58 181.587 170.418L178.534 167.834ZM177.769 168.153C177.823 168.153 177.808 168.16 177.702 168.134C177.6 168.108 177.452 168.061 177.248 167.98L175.763 171.694C176.368 171.936 177.072 172.153 177.769 172.153V168.153ZM177.16 167.947C172.84 166.452 168.379 165.704 163.786 165.704V169.704C167.936 169.704 171.955 170.378 175.851 171.727L177.16 167.947ZM163.786 165.704C159.387 165.704 155.602 166.538 152.566 168.359L154.624 171.789C156.855 170.45 159.864 169.704 163.786 169.704V165.704ZM152.551 168.368C149.423 170.284 147.724 173.118 147.724 176.71H151.724C151.724 174.614 152.607 173.024 154.64 171.78L152.551 168.368ZM147.724 176.71C147.724 179.074 148.499 181.157 150.127 182.785L152.956 179.957C152.161 179.162 151.724 178.138 151.724 176.71H147.724ZM150.19 182.845C151.67 184.202 153.456 185.249 155.506 186.011L156.899 182.261C155.262 181.653 153.941 180.857 152.893 179.897L150.19 182.845ZM155.57 186.033C157.553 186.694 160.177 187.396 163.418 188.139L164.313 184.241C161.128 183.51 158.644 182.842 156.835 182.239L155.57 186.033ZM163.398 188.135C167.513 189.124 170.756 190.099 173.162 191.052L174.635 187.332C171.984 186.283 168.54 185.257 164.333 184.245L163.398 188.135ZM173.175 191.057C175.446 191.937 177.357 193.295 178.932 195.148L181.979 192.558C179.973 190.197 177.512 188.448 174.622 187.327L173.175 191.057ZM178.95 195.17C180.394 196.82 181.22 199.149 181.22 202.385H185.22C185.22 198.458 184.204 195.1 181.961 192.536L178.95 195.17ZM181.22 202.385C181.22 204.925 180.504 207.179 179.063 209.205L182.322 211.523C184.252 208.809 185.22 205.743 185.22 202.385H181.22ZM179.075 209.188C177.633 211.171 175.57 212.781 172.791 213.978L174.374 217.652C177.705 216.216 180.382 214.192 182.31 211.54L179.075 209.188ZM172.791 213.978C170.032 215.168 166.781 215.79 162.996 215.79V219.79C167.217 219.79 171.024 219.096 174.374 217.652L172.791 213.978ZM196.048 216.447L194.578 217.804L194.633 217.862L194.692 217.917L196.048 216.447ZM195.811 211.865L194.26 210.603L194.235 210.634L194.211 210.665L195.811 211.865ZM214.06 189.429L215.612 190.691L216.637 189.43L215.613 188.168L214.06 189.429ZM195.969 167.151L194.369 168.351L194.392 168.382L194.417 168.412L195.969 167.151ZM196.206 162.49L194.792 161.076L194.792 161.076L196.206 162.49ZM200.393 161.858L201.288 160.069L201.288 160.069L200.393 161.858ZM201.657 162.885L200.057 164.085L200.071 164.104L200.086 164.122L201.657 162.885ZM218.326 184.057L216.755 185.294L218.332 187.298L219.902 185.289L218.326 184.057ZM234.995 162.727L236.571 163.959L236.609 163.91L236.643 163.86L234.995 162.727ZM240.051 162.49L238.637 163.904L238.665 163.932L238.695 163.96L240.051 162.49ZM240.446 166.835L242 168.094L242.033 168.054L242.064 168.011L240.446 166.835ZM222.197 189.35L220.643 188.091L219.621 189.352L220.646 190.612L222.197 189.35ZM240.446 211.786L238.895 213.048L238.926 213.087L238.96 213.124L240.446 211.786ZM240.13 216.368L238.716 214.954L238.688 214.982L238.66 215.011L240.13 216.368ZM234.758 215.894L236.368 214.708L236.346 214.678L236.323 214.649L234.758 215.894ZM217.852 194.643L219.417 193.398L217.838 191.413L216.276 193.411L217.852 194.643ZM201.183 215.973L202.72 217.253L202.74 217.229L202.759 217.205L201.183 215.973ZM198.418 215.395C198.048 215.395 197.736 215.284 197.405 214.977L194.692 217.917C195.729 218.874 196.998 219.395 198.418 219.395V215.395ZM197.518 215.09C197.211 214.759 197.1 214.447 197.1 214.077H193.1C193.1 215.497 193.621 216.766 194.578 217.804L197.518 215.09ZM197.1 214.077C197.1 213.636 197.215 213.327 197.411 213.065L194.211 210.665C193.46 211.667 193.1 212.832 193.1 214.077H197.1ZM197.363 213.127L215.612 190.691L212.509 188.167L194.26 210.603L197.363 213.127ZM215.613 188.168L197.522 165.89L194.417 168.412L212.508 190.69L215.613 188.168ZM197.569 165.951C197.373 165.689 197.258 165.38 197.258 164.939H193.258C193.258 166.184 193.618 167.349 194.369 168.351L197.569 165.951ZM197.258 164.939C197.258 164.399 197.41 164.115 197.62 163.904L194.792 161.076C193.738 162.129 193.258 163.477 193.258 164.939H197.258ZM197.62 163.904C197.916 163.608 198.244 163.463 198.734 163.463V159.463C197.223 159.463 195.865 160.002 194.792 161.076L197.62 163.904ZM198.734 163.463C198.998 163.463 199.245 163.52 199.499 163.647L201.288 160.069C200.488 159.669 199.629 159.463 198.734 159.463V163.463ZM199.499 163.647C199.781 163.788 199.948 163.94 200.057 164.085L203.257 161.685C202.734 160.987 202.059 160.455 201.288 160.069L199.499 163.647ZM200.086 164.122L216.755 185.294L219.898 182.82L203.229 161.648L200.086 164.122ZM219.902 185.289L236.571 163.959L233.419 161.495L216.75 182.825L219.902 185.289ZM236.643 163.86C236.795 163.639 237 163.463 237.602 163.463V159.463C235.887 159.463 234.354 160.13 233.347 161.594L236.643 163.86ZM237.602 163.463C238.007 163.463 238.318 163.586 238.637 163.904L241.465 161.076C240.415 160.025 239.093 159.463 237.602 159.463V163.463ZM238.695 163.96C238.961 164.206 239.078 164.459 239.078 164.86H243.078C243.078 163.365 242.511 162.038 241.408 161.02L238.695 163.96ZM239.078 164.86C239.078 165.188 238.994 165.432 238.829 165.659L242.064 168.011C242.741 167.08 243.078 166.007 243.078 164.86H239.078ZM238.892 165.576L220.643 188.091L223.751 190.609L242 168.094L238.892 165.576ZM220.646 190.612L238.895 213.048L241.998 210.524L223.749 188.088L220.646 190.612ZM238.96 213.124C239.042 213.216 239.157 213.393 239.157 213.84H243.157C243.157 212.602 242.798 211.409 241.933 210.448L238.96 213.124ZM239.157 213.84C239.157 214.33 239.012 214.658 238.716 214.954L241.544 217.782C242.618 216.709 243.157 215.351 243.157 213.84H239.157ZM238.66 215.011C238.458 215.23 238.178 215.395 237.602 215.395V219.395C239.133 219.395 240.538 218.875 241.6 217.725L238.66 215.011ZM237.602 215.395C237.131 215.395 236.761 215.24 236.368 214.708L233.148 217.08C234.23 218.549 235.756 219.395 237.602 219.395V215.395ZM236.323 214.649L219.417 193.398L216.287 195.888L233.193 217.139L236.323 214.649ZM216.276 193.411L199.607 214.741L202.759 217.205L219.428 195.875L216.276 193.411ZM199.647 214.693C199.164 215.272 198.773 215.395 198.418 215.395V219.395C200.17 219.395 201.622 218.57 202.72 217.253L199.647 214.693Z" fill="white"/>
<g filter="url(#filter1_d_0_66)">
<path d="M272 102H192C179.85 102 170 92.1503 170 80V0L272 102Z" fill="url(#paint2_linear_0_66)"/>
</g>
</g>
<defs>
<filter id="filter0_f_0_66" x="9" y="110" width="256" height="162" filterUnits="userSpaceOnUse" color-interpolation-filters="sRGB">
<feFlood flood-opacity="0" result="BackgroundImageFix"/>
<feBlend mode="normal" in="SourceGraphic" in2="BackgroundImageFix" result="shape"/>
<feGaussianBlur stdDeviation="19.5" result="effect1_foregroundBlur_0_66"/>
</filter>
<filter id="filter1_d_0_66" x="147" y="-24" width="152" height="152" filterUnits="userSpaceOnUse" color-interpolation-filters="sRGB">
<feFlood flood-opacity="0" result="BackgroundImageFix"/>
<feColorMatrix in="SourceAlpha" type="matrix" values="0 0 0 0 0 0 0 0 0 0 0 0 0 0 0 0 0 0 127 0" result="hardAlpha"/>
<feOffset dx="2" dy="1"/>
<feGaussianBlur stdDeviation="12.5"/>
<feColorMatrix type="matrix" values="0 0 0 0 0 0 0 0 0 0 0 0 0 0 0 0 0 0 0.33 0"/>
<feBlend mode="normal" in2="BackgroundImageFix" result="effect1_dropShadow_0_66"/>
<feBlend mode="normal" in="SourceGraphic" in2="effect1_dropShadow_0_66" result="shape"/>
</filter>
<linearGradient id="paint0_linear_0_66" x1="136" y1="0" x2="136" y2="308" gradientUnits="userSpaceOnUse">
<stop stop-color="#FF7979"/>
<stop offset="1" stop-color="#E85555"/>
</linearGradient>
<linearGradient id="paint1_linear_0_66" x1="136" y1="0" x2="136" y2="308" gradientUnits="userSpaceOnUse">
<stop stop-color="#FFA216"/>
<stop offset="1" stop-color="#EF8100"/>
</linearGradient>
<linearGradient id="paint2_linear_0_66" x1="221" y1="0" x2="221" y2="102" gradientUnits="userSpaceOnUse">
<stop stop-color="#FF7A1B"/>
<stop offset="1" stop-color="#E86100"/>
</linearGradient>
</defs>
</svg>
