<?xml version="1.0" ?><!DOCTYPE svg  PUBLIC '-//W3C//DTD SVG 1.1//EN'  'http://www.w3.org/Graphics/SVG/1.1/DTD/svg11.dtd'><svg enable-background="new 0 0 56.693 56.693" height="56.693px" id="Layer_1" version="1.1" viewBox="0 0 56.693 56.693" width="56.693px" xml:space="preserve" xmlns="http://www.w3.org/2000/svg" xmlns:xlink="http://www.w3.org/1999/xlink"><path d="M28.347,5.155c-13.6,0-24.625,11.025-24.625,24.625c0,13.602,11.025,24.625,24.625,24.625  c13.6,0,24.625-11.023,24.625-24.625C52.972,16.18,41.946,5.155,28.347,5.155z M39.165,25.19c-0.852,0.229-8.627,6.234-9.139,7.711  c-0.113,0.51,0.012,5.445,0.125,6.186c0.512,0.115,4.211,0.016,4.891,0.129l-0.084,1.525c-0.662-0.051-5.363-0.039-8.047-0.039  c-1.361,0-5.742,0.15-7.088,0.111l0.255-1.453c0.738-0.053,3.792,0.137,4.462-0.574c0.334-0.355,0.229-5.047,0.117-5.84  c-0.283-0.85-7.098-9.357-8.878-10.75h-4.591v-2.135h15.479v0.145c0.014,0,0.039,0.002,0.053,0.006l-0.053,0.359v1.625h-4.668  c2.08,3.029,5.062,6.691,6.336,8.447l6.234-5.627h-3.707l-0.521-2.137h13.576l-0.102,0.152c0.012,0,0.033,0.004,0.047,0.004  l-0.969,1.398c-0.008,0-0.023,0.004-0.031,0.006l-0.391,0.576h-2.504C39.644,25.089,39.356,25.151,39.165,25.19z M43.261,40.821  l-1.137-0.084l-1.055-0.092l-0.01-2.283l1.336,0.164l1.199,0.059L43.261,40.821z M43.499,37.028l-2.082-0.168l-0.055-9.646  c0.477,0.094,4.154,0.441,4.559,0.455L43.499,37.028z"/></svg>